<svg xmlns="http://www.w3.org/2000/svg" width="111" height="111" shape-rendering="geometricPrecision" image-rendering="optimizeQuality" fill-rule="evenodd" viewBox="0 0 540 540" xmlns:v="https://vecta.io/nano"><path d="M276 443l68-88c2-3 3-7 1-11-1-4-4-6-8-5l-30 3c-2 1-5 0-6-2-2-2-3-5-3-8l7-116c0-4-1-8-3-11-3-3-6-4-9-4h-46c-3 0-6 1-9 4-2 3-3 7-3 11l7 116c0 3-1 6-3 8-1 2-4 3-6 2l-30-3c-4-1-7 1-8 5-2 4-1 8 1 11l68 88c2 2 4 3 6 3s4-1 6-3zM1 322c20 110 107 197 218 218 8 1 17-1 24-7 7-5 10-13 10-22v-37c0-7-2-12-5-17l-87-120c-7-10 4-23 15-24 19 0 37 7 43-2 1-1 2-6 2-12-1-7-6-12-13-12H29c-9 0-17 4-22 10-6 7-8 16-6 25z"/><path d="M29 253h174c4 0 7-1 10-4 2-3 3-6 3-10-2-16-3-31-4-37 0-5 1-9 5-13 3-4 8-5 13-5h11c7 0 12-6 12-13V29c0-9-3-17-10-22-7-6-16-8-24-6C108 21 21 108 1 219c-2 8 0 17 6 24 5 7 13 10 22 10zM287 29v142c0 7 6 13 12 13h11c5 0 10 1 13 5 4 4 5 8 5 13 0 6-2 21-4 37 0 4 1 7 3 10 3 3 6 4 10 4h174c9 0 17-3 22-10 6-7 8-16 7-24C519 108 432 21 322 1c-9-2-18 0-25 6-6 5-10 13-10 22zm224 258H332c-7 0-12 5-12 12-1 6 0 11 1 12 6 9 25 2 43 2 11 1 22 14 15 24l-87 120c-3 5-5 10-5 17v37c0 9 4 17 10 22 7 6 16 8 25 7 110-21 197-108 218-218 1-9-1-18-7-25-5-6-13-10-22-10z"/></svg>