<svg xmlns="http://www.w3.org/2000/svg" width="82" height="111" shape-rendering="geometricPrecision" image-rendering="optimizeQuality" fill-rule="evenodd" viewBox="0 0 298 404" xmlns:v="https://vecta.io/nano"><path d="M288 283c9-17 9-37-5-50 6-19 1-43-19-50 4-12 5-25-1-36-6-9-17-12-28-11 11-24 28-55 51-77l3-3-3-4c-2-2-45-58-100-41l-4 1 1 4c0 1 7 99-14 142-2 1-4 2-5 3-4-9-7-18-12-27-8-21-22-49-41-72 9-8 5-21 1-27 12-11 29-22 49-25 2 6 7 16 15 19 0-8-1-12-1-12l-1-8 8-3c3-1 6-1 9-2l-3-1C133-14 90 43 88 45l-3 3 3 4c24 23 42 56 54 81-34 11-47 40-57 66-7 17-14 33-26 39l-1-1-4-12-54 18 52 161 55-18-3-9c49-14 100-20 150-32 16-4 32-8 40-22 8-12 2-29-6-40zM30 269l-6-16 16-5 6 16-16 5zm161-162c2 6 7 12 15 15 10 5 23 3 27-5 4-9-2-20-13-25-12-5-24-3-28 5 2-22 2-45 2-60 11 0 17-12 19-19 20 2 37 14 50 24-4 7-9 19 0 28-17 21-30 47-39 67-15 2-28 8-42 14 5-13 8-29 9-44zm-49 27v1-1zm131 185c-13 8-32 10-47 13-41 9-87 14-127 26L65 257c19-8 30-30 38-50 9-21 19-44 43-53 3 7 5 14 7 23 2 4 7 5 11 3 19-11 40-22 62-26h1 1c7-1 18-2 21 6 2 5 1 12 1 18-1 4-3 8-4 9-1 4 0 10 5 10 18 2 20 22 14 36-2 2-1 6 2 8 13 10 11 26 3 39-1 2-1 5 1 7 7 9 14 24 2 32zM155 84c-11 6-17 16-13 25 4 8 15 11 26 6 2-1 4-2 5-3l3-28c-6-3-14-3-21 0z"/></svg>