<svg xmlns="http://www.w3.org/2000/svg" width="111" height="111" shape-rendering="geometricPrecision" image-rendering="optimizeQuality" fill-rule="evenodd" viewBox="0 0 742 742" xmlns:v="https://vecta.io/nano"><path d="M356 3c9-4 17-4 26-1l4 1 334 148c14 7 22 20 22 34v5l-21 190c-11 98-65 186-146 241l-10 6-175 109c-11 7-23 7-34 2l-4-2-175-109C93 575 37 488 23 391l-1-11L0 190c-1-15 6-29 18-36l4-3L356 3zm15 75L78 209l18 163c8 75 49 144 111 186l9 6 155 97 156-97c64-40 107-107 119-182l1-10 18-163L371 78zm82 159c13-16 36-19 52-6 15 12 18 32 9 48l-3 4-147 185c-13 16-36 19-52 7l-4-4-74-75c-15-14-15-37 0-51 13-14 34-14 49-3l3 3 45 44 122-152z"/></svg>