<svg xmlns="http://www.w3.org/2000/svg" width="92" height="111" shape-rendering="geometricPrecision" image-rendering="optimizeQuality" fill-rule="evenodd" viewBox="0 0 374 451" xmlns:v="https://vecta.io/nano"><path d="M115 4l-9 4-5 3c-1 0-2 0-2 1-2 1-1 0-3 1-1 1-4 2-5 3s-2 1-3 2c-1 2-1 1-2 2-1 0 0 0-1 1s-1 1-2 1l-2 2c-2 2-3 4-5 5l-1 1c-1 2-3 3-4 5-4 4-6 8-9 13-1 2-1 1-2 2 0 2-2 6-3 8l-1 2-4 9-2 11-1 9v13 7l3 11c1 2 2 7 2 9l2 2c0 1 0 2 1 3l2 5c1 1 2 4 3 5 1 2 2 3 3 5l1 2c1 1 2 2 3 4 2 1 3 3 4 5 1 0 3 2 4 3l3 3v-37c0-6-1-5-2-10-2-3-5-15-4-18l-1-6c0-2 0-5 1-6 0-3 2-17 4-19 2-4 4-8 6-11 1-2 2-4 3-5 2-2 2-3 4-5 1-2 3-4 5-5 1-1 4-4 6-5v-1h1c1-1 1-1 2-1 3-3 7-4 11-6l2-1c2-2 5-2 8-3l9-2h11l9 1c4 0 8 1 12 2 2 1 3 1 5 2 1 1 3 1 4 2 2 1 9 5 11 7 2 1 7 5 8 7 2 1 3 2 3 4 3 2 6 6 8 10h0c1 2 4 7 4 10l4 10c0 2 1 5 1 8v6 5l-1 9v3h1c4 1 7 1 10 3 4 1 7 4 9 5s1 1 1 1c1 1 1 1 2 1v-2l2-10 1-9V89l-1-10-2-9c-2-4-3-7-4-11-1-3-3-6-4-9l-4-6c-1-1-2-3-3-5-1 0-5-5-6-7l-6-6c-2-1-2-2-4-3l-11-9c-2 0-5-2-7-3l-3-2-9-4c-4-1-8-2-13-3-3-1-11-1-13-2h-11c-1 1-10 1-12 2-4 0-8 2-12 2zM34 281h0zm69 17l25 25v-35-3V95c0-4 2-8 5-11s7-5 11-5c5 0 9 2 12 5s5 7 5 11v78 61c0 8 6 15 14 15s15-7 15-15v-60c0-4 2-7 5-10 3-2 7-4 11-4s8 2 11 5 5 7 5 12v17 61c0 8 7 15 15 15s14-7 14-15v-60c1-3 3-6 6-9 2-2 6-3 10-3 5 0 9 1 12 4s4 8 4 12v17 62c0 8 7 14 15 14s15-6 15-14v-60c0-4 2-7 5-9s6-4 10-4c5 0 9 2 12 5s5 7 5 12v110h0c-1 39-11 63-31 75-20 14-52 17-95 15-13-1-23-2-31-5-7-3-14-6-20-11-35-28-81-74-110-103-11-10-19-18-23-22s-6-9-6-13c0-5 2-10 5-13h0c4-4 9-6 13-6 5 0 10 2 13 6h0l41 40 2 3zm-89 3v1c5 4 13 12 23 22 29 29 76 76 113 104 9 7 18 13 29 16 11 4 23 6 38 7 49 2 86-2 113-20 28-18 43-49 44-99h0V222c0-13-5-24-13-32-9-9-20-14-33-14-7 0-13 2-19 5-3-5-6-10-10-14-8-8-19-13-32-13-7 0-14 1-20 4-2-5-5-10-9-13-8-9-20-14-32-14-6 0-11 1-16 3V95c0-12-5-24-14-32-8-8-19-13-32-13-12 0-23 5-32 13-8 8-13 20-13 32v158l-18-19h0c-9-9-22-14-34-14s-24 5-33 14h0c-9 9-14 21-14 34 0 12 5 24 14 33z"/></svg>