<svg xmlns="http://www.w3.org/2000/svg" xmlns:xlink="http://www.w3.org/1999/xlink" width="325" height="192" shape-rendering="geometricPrecision" image-rendering="optimizeQuality" fill-rule="evenodd" viewBox="0 0 32406 19176" xmlns:v="https://vecta.io/nano"><style><![CDATA[.B{fill-rule:nonzero}.C{fill:#ebebeb}.D{fill:#0060fa}.E{fill:#263138}.F{fill:#fff}.G{fill:#445964}.H{fill:#36464f}.I{fill:#dbdbdb}.J{fill:#d37569}.K{fill:#ac6259}]]></style><path d="M31673 12354l-640 13-324 6-326 3h-22v-22l-3-546v-24h25l645 3 645 8h13v13l-6 276-7 270zm-7-276h0l-7-270 14 14-645 8-645 3 24-25-3 546-21-22 318 3 321 5 651 14-7-276zm-713 963l-639 14-325 5c-109 3-218 2-326 3h-22v-22l-3-545v-24h25l645 3 645 8h13v13l-6 275-7 270zm-7-275h0l-6-270 13 13-645 8-645 3 24-24-3 545-21-21 319 2 320 6 651 13-7-275zm1446 275l-639 14-325 5c-108 3-217 2-326 3h-21v-22l-3-545v-24h24l645 3 645 8h14v13c-1 93-4 185-7 275l-7 270zm-6-275h0l-7-270 13 13-645 8-645 3 25-24-3 545-22-21 319 2 321 6 650 13-6-275zM13275 5866l-640 13-324 6c-109 2-218 1-326 2h-22v-21l-3-546v-24h25l645 3 645 8h13v13l-6 276-7 270zm-7-276h0l-6-270 13 14-645 8-645 3 24-25-3 546-21-22 318 2 321 6 651 14-7-276zm-713 963l-639 14-325 5-326 3h-22v-22l-3-545v-25l25 1 645 3 645 8h14l-1 13c0 92-4 184-6 275l-7 270zm-7-275h0l-6-270 13 13-645 8-645 3 24-24-2 545-22-22 319 3 320 6 651 13-7-275zm1447 275l-640 14-324 5-327 3h-21v-22l-3-545v-25l24 1 645 3 646 8h13v13l-6 275-7 270zm-7-275h0l-7-270 14 13-646 8-645 3 25-24-3 545-22-22 319 3 321 6 651 13-7-275zM2754 9473l-639 14-325 5c-108 3-217 2-326 3h-22v-22l-2-545v-24h24l645 3 645 8h14v13c-1 93-5 185-7 275l-7 270zm-7-275h0l-6-270 13 13-645 8-645 3 24-24-2 545-22-22 319 3 321 6 650 13-7-275zm21397-3333l-639 14-325 5c-108 3-217 2-326 3h-22v-22l-3-545v-24h25l645 3 645 8h14l-1 13-6 275-7 270zm-7-275h0l-6-270 13 13-645 8-645 3 24-24-2 545-22-22 319 3 320 6 651 13-7-275zm7461-5020l-639 13-325 6c-108 2-217 1-326 2l-22 1v-22l-3-546V0h25l645 3 645 8h14l-1 13-6 276-7 270zm-7-276h0l-6-270 13 14-645 8-645 3 24-25-2 546-22-22 319 3 320 5 651 14-7-276zm727 963l-640 14-324 5-326 3h-22v-22l-3-545v-24h25l645 3 645 8h13v13l-6 275-7 270zm-7-275h0l-6-270 13 13-645 8-645 3 24-24-3 545-21-21 319 2 320 6 651 13-7-275zM1315 570l-640 14-324 5c-109 3-218 2-327 3H3v-22L0 25V1h24l646 3 645 8h13v13l-6 276-7 269zm-7-275h0l-7-270 14 13-645 8-646 3 25-24-3 545-22-21 319 2 321 6 651 13-7-275z" class="B C"/><path d="M12408 4016H6632V123h5776z" class="B F"/><path d="M12432 4040H6607V99h5825v3941zm-5776-49h0 5727V148H6656v3843z" class="B C"/><path d="M7190 418c0 73-60 133-133 133-74 0-133-60-133-133a132.3 132.3 0 0 1 133-133c73 0 133 59 133 133z" class="B H"/><path d="M7733 418c0 73-60 133-133 133s-133-60-133-133c0-74 60-133 133-133s133 59 133 133z" class="B C"/><path d="M8276 418c0 73-59 133-133 133-73 0-133-60-133-133 0-74 60-133 133-133a132.3 132.3 0 0 1 133 133z" class="B D"/><path d="M12407 734H6632v-49h5775zM7682 5257c0-61 8-223 8-292 0-296-106-430-382-438-129-8-207-85-207-195 0-109 78-186 207-195 276-12 382-142 382-442 0-69-8-231-8-292 0-394 166-645 795-783 126-29 223 49 223 166 0 98-65 150-114 167-393 121-450 247-450 523 0 81 8 215 8 300 0 317-154 471-422 556 272 89 422 240 422 556 0 85-8 219-8 300 0 276 57 402 450 524 49 16 114 69 114 166 0 118-97 195-223 166-629-137-795-389-795-787zm2377-1854c0 61-8 223-8 292 0 300 110 430 386 442 126 9 203 86 203 195 0 110-77 187-203 195-276 8-386 142-386 438 0 69 8 231 8 292 0 398-166 650-795 787-126 29-223-48-223-166 0-97 65-150 118-166 389-122 446-248 446-524 0-81-8-215-8-300 0-316 154-471 422-556-272-89-422-239-422-556 0-85 8-219 8-300 0-276-57-402-446-523-53-17-118-69-118-167 0-117 97-195 223-166 629 138 795 389 795 783zm17823 4399c66 68 66 170 0 236-34 31-73 47-115 47-45 0-87-16-121-47l-737-748c-8-2-10-8-13-16-3-2-8-5-8-5-5-8-5-13-8-21-5-2-8-8-8-10-2-6-2-13-5-16 0-8-5-10-5-13v-18c0-6-3-8-3-16 0-3 3-11 3-13v-19c0-5 5-8 5-10 3-8 3-13 5-21 0-3 3-3 3-5 5-8 8-19 13-24 0 0 0-5 5-5 3-5 8-13 16-19l737-747c66-63 173-63 236 0 66 65 66 170 0 236l-622 627 622 627zm669 84l642-1529c32-74 116-108 192-77 71 29 105 116 73 187l-642 1531c-24 55-79 87-134 87-16 0-37-3-53-11-76-29-110-115-78-188zm2176-617s0 3-2 3c-5 5-11 13-18 18l-737 748c-32 31-77 47-118 47-45 0-84-16-118-47-66-66-66-168 0-236l621-627-621-627c-66-66-66-171 0-236 62-63 170-63 236 0l737 747c7 6 13 14 18 19 2 0 2 5 2 5 6 11 11 16 14 24 0 2 2 2 2 5 3 8 3 13 8 23 0 3 3 3 3 8v19c0 2 2 10 2 13 0 2-2 10-2 13v21c0 3-3 3-3 5-5 11-5 18-8 24 0 2-2 2-2 8l-14 23zm-4213-3242c0 331-256 603-582 627v2h-3561c-409 0-740-331-740-739 0-385 295-702 670-736 22-669 571-1205 1245-1205 537 0 994 339 1169 815 99-50 211-78 330-78 393 0 715 306 738 693 33-5 67-8 102-8 347 0 629 282 629 629zm3478 8562l404-651-200-124c-59-37-90-103-84-172 3-37 4-74 4-112-2-69 34-134 95-167l207-111-363-676-207 111c-59 32-132 29-187-10-33-24-68-45-104-64-59-33-95-96-92-164l7-234-766-24-7 235c-2 68-43 128-104 157l-54 27c-17 10-34 19-51 30-58 35-130 35-188-1l-201-124-404 651 201 125c59 37 89 103 83 171-3 37-4 75-4 112 2 69-33 135-95 167l-206 111 362 676 207-111c61-33 135-26 192 14 31 21 62 40 95 58 60 33 99 95 96 164l-7 237 766 24 8-236c2-68 44-128 106-158 17-8 34-16 51-25s33-19 49-28c59-36 133-38 192-2l199 124zm-579-527h0c-338 240-805 99-954-288-101-263-9-568 221-732 338-240 806-99 955 288 101 263 8 569-222 732zm-3652 2076l465-268-82-142c-25-42-22-94 4-134 15-23 28-46 40-70 22-43 66-71 114-71h164v-537h-164c-48 0-92-27-114-70-12-24-25-48-40-70-26-40-29-92-4-134l82-142-465-269-83 143c-24 42-70 65-118 63-13-1-26-1-40-1-13 0-26 0-39 1-48 2-94-20-118-62l-83-144-465 269 82 143c24 41 22 93-5 133-14 23-27 46-40 70-22 43-65 70-113 70h-165v537h165c48 0 91 28 113 71 13 24 26 47 40 69 27 41 29 92 5 134l-82 143 465 268 82-143c24-41 70-64 118-62 14 1 27 1 40 1 14 0 27 0 40-1 48-2 94 21 118 63l83 142zm-241-513h0c-243 0-439-197-439-440s196-440 439-440 440 197 440 440-197 440-440 440zM2142 2542c42 24 65 70 63 118-1 13-2 26-2 40 0 13 1 26 2 39 2 49-21 95-63 119l-143 82 269 465 143-82c41-24 93-22 133 4 23 15 46 28 70 41 43 21 70 65 70 113v164h537v-164c0-48 28-92 71-113 24-13 47-26 69-41 41-26 92-28 134-4l143 82 268-465-143-83c-42-24-65-70-62-118 0-13 1-26 1-39 0-14-1-27-1-40-3-48 20-94 62-118l143-83-268-465-143 82c-41 25-93 22-133-4-23-15-46-28-70-40-43-22-71-66-71-114v-164h-537v164c0 48-28 92-70 114-24 12-48 25-70 40-40 26-92 29-134 4l-142-82-269 465 143 83zm811-283h0c243 0 440 198 440 441s-197 439-440 439-440-196-440-439 197-441 440-441z" class="C B"/><path d="M16563 17934h5455l-1087-6327h-4080z" class="B I"/><path fill="#606162" d="M16563 17934h478l269-6327h-459z" class="B"/><path d="M15960 17934h-5455l1087-6327h4080z" class="B I"/><path fill="#606162" d="M15960 17934h-479l-268-6327h459z" class="B"/><path d="M28840 8027v3205h-5024V8027z" class="B F"/><path d="M28871 11263h-5087V7996h5087v3267zm-5023-63h0 4960V8059h-4960v3141z" class="B C"/><path d="M28840 8027v606h-5024v-606z" class="B D"/><path d="M28871 8665h-5087v-669h5087v669zm-5023-63h0 4960v-543h-4960v543z" class="B C"/><path d="M24385 8335c0 84-68 152-153 152-84 0-152-68-152-152 0-85 68-153 152-153 85 0 153 68 153 153z" class="B D"/><use xlink:href="#B" class="B C"/><path d="M25631 8335c0 84-69 152-153 152s-153-68-153-152c0-85 69-153 153-153s153 68 153 153z" class="B F"/><path d="M24683 9832c2-335 282-606 619-608 149 0 284 49 390 132 41 33 48 92 17 135-33 42-96 49-135 18-74-61-167-93-272-93-116 0-224 48-303 122-76 77-124 179-124 294 0 114 48 219 124 293 79 74 187 122 303 122 105 0 196-32 272-93 39-29 102-22 135 18 31 43 24 103-17 136-106 82-241 131-390 131-337 0-617-272-619-607zm1317 313c30-37 86-42 123-11 74 60 202 131 322 130 85 0 160-26 211-63s73-79 73-121c0-22-5-38-16-54-10-17-25-34-50-51-49-32-132-61-231-79h-4c-79-16-153-36-218-66-64-31-119-73-156-132-26-40-39-88-39-138 0-101 57-189 135-247 79-57 182-89 292-89 162 0 282 79 368 135 39 27 50 81 23 120-25 40-79 52-120 25-86-57-168-108-271-108-76 0-144 24-189 57-46 34-64 71-64 107 0 20 3 34 11 47 9 14 24 29 46 44 44 30 120 57 211 74h3c86 17 166 39 233 71 69 34 130 78 169 140 25 41 40 91 40 144 0 108-60 200-145 261-82 61-192 96-312 96-182-1-336-92-432-168-37-31-42-86-13-124zm1108 0c31-37 86-42 124-11 74 60 202 131 322 130 84 0 160-26 211-63s73-79 73-121c0-22-6-38-16-54-10-17-25-34-50-51-49-32-132-61-232-79h-3c-79-16-154-36-218-66-64-31-120-73-157-132-25-40-38-88-38-138 0-101 57-189 135-247 79-57 182-89 292-89 162 0 281 79 368 135 38 27 50 81 23 120-25 40-79 52-120 25-86-57-169-108-271-108-76 0-144 24-189 57-46 34-65 71-65 107 0 20 4 34 12 47 9 14 24 29 46 44 44 30 120 57 211 74h3c86 17 166 39 233 71 69 34 130 78 169 140 25 41 40 91 40 144 0 108-60 200-145 261-82 61-192 96-312 96-182-1-336-92-432-168-37-31-42-86-14-124z" class="C B"/><path d="M7678 8351v3205H2655V8351z" class="B F"/><path d="M7710 11587H2623V8319h5087v3268zm-5023-63h0 4960V8383H2687v3141z" class="B C"/><path d="M7678 8351v606H2655v-606z" class="B D"/><path d="M7710 8989H2623v-670h5087v670zm-5023-64h0 4960v-542H2687v542z" class="B C"/><path d="M3224 8659c0 84-68 152-153 152-84 0-152-68-152-152 0-85 68-153 152-153 85 0 153 68 153 153z" class="B D"/><use xlink:href="#B" x="-21161" y="324" class="B C"/><path d="M4470 8659c0 84-69 152-153 152s-153-68-153-152c0-85 69-153 153-153s153 68 153 153z" class="B F"/><path d="M3593 10155c2-334 282-606 619-607 149 0 284 49 390 131 41 34 47 93 17 135-34 43-96 49-135 19-74-61-167-93-272-93-116 0-224 47-303 122-76 77-124 179-124 293a410.8 410.8 0 0 0 124 294c79 74 187 122 303 122 105 0 196-32 272-93 39-29 101-22 135 18 30 43 24 103-17 135-106 83-241 132-390 132-337 0-617-272-619-608zm1618 107h-239c-51 0-93-41-93-93 0-51 42-93 93-93h239v-234c0-55 43-97 97-97 52 0 96 42 96 97v234h240c50 0 92 42 92 93 0 52-42 93-92 93h-240v234c0 54-44 97-96 97-54 0-97-43-97-97v-234zm1047 0h-240c-50 0-93-41-93-93 0-51 43-93 93-93h240v-234c0-55 42-97 96-97 52 0 96 42 96 97v234h240c51 0 93 42 93 93 0 52-42 93-93 93h-240v234c0 54-44 97-96 97-54 0-96-43-96-97v-234z" class="C B"/><path d="M21674 648v6880H10769V648z" class="B E"/><path d="M21706 7560H10737V616h10969v6944zm-10905-63h0 10841V680H10801v6817z" class="B C"/><path d="M21674 648v606H10769V648z" class="B D"/><path d="M21706 1286H10737V616h10969v670zm-10905-64h0 10841V680H10801v542z" class="B C"/><use xlink:href="#B" x="-13670" y="-7379" class="B D"/><use xlink:href="#B" x="-13047" y="-7379" class="B C"/><path d="M12583 956c0 84-68 152-152 152s-153-68-153-152c0-85 69-153 153-153s152 68 152 153z" class="B F"/><path d="M11743 2578h-324v-118h324zm5469 0h-5233v-118h5233z" class="C B"/><path d="M18027 2578h-616v-118h616z" class="B D"/><path d="M19012 4162h-616v-119h616z" class="B C"/><path d="M20235 2578h-2075v-118h2075z" class="B D"/><path d="M12067 2895h-324v-119h324z" class="B C"/><path d="M14734 2895h-2439v-119h2439zm3516 1267h-923v-119h923zm-3941-317h-2330v-118h2330zm-380-633h-1634v-119h1634zm5528 316h-1634v-118h1634zm-1220-316h-4126v-119h4126zm-1121 950h-5137v-119h5137zm3675-1267h-2699v-119h2699z" class="D B"/><path d="M17958 2895h-3071v-119h3071zm2462 317h-1049v-119h1049zm-8353 0h-324v-119h324z" class="C B"/><path d="M11743 3528h-324v-118h324z" class="B D"/><path d="M13894 3528h-1915v-118h1915zm316 950h-1915v-118h1915z" class="C B"/><path d="M19849 4795h-2467v-118h2467zm-2047-317h-3437v-118h3437z" class="D B"/><path d="M17215 4795h-3188v-118h3188z" class="B C"/><path d="M12849 4795h-554v-118h554z" class="B D"/><path d="M18027 3845h-3586v-118h3586z" class="B C"/><path d="M20488 3845h-2328v-118h2328zm-2816-317h-3583v-118h3583z" class="D B"/><path d="M11743 3845h-324v-118h324zm0 317h-324v-119h324z" class="C B"/><path d="M12067 4478h-324v-118h324z" class="B D"/><path d="M12067 4795h-324v-118h324zm-324 265h-324v-118h324zm4035 0h-3799v-118h3799zm-3711 317h-324v-118h324z" class="C B"/><path d="M14734 5377h-2439v-118h2439zm-425 950h-2330v-118h2330zm-380-633h-1634v-118h1634zm4308 0h-4126v-118h4126zm-1121 950h-5137v-118h5137zm3675-1267h-2699v-118h2699z" class="D B"/><path d="M17958 5377h-3071v-118h3071zm2462 317h-1049v-118h1049zm-8353 0h-324v-118h324z" class="C B"/><path d="M11743 6011h-324v-119h324z" class="B D"/><path d="M13894 6011h-1915v-119h1915zm4133 316h-3586v-118h3586z" class="C B"/><path d="M17672 6011h-3583v-119h3583z" class="B D"/><path d="M11743 6327h-324v-118h324z" class="B C"/><path d="M11619 2148c11 12 11 29 0 40-6 5-12 8-19 8-8 0-15-3-21-8l-125-127c-1 0-2-1-2-2s-1-1-1-1l-2-4c-1 0-1-1-1-2 0 0 0-2-1-2 0-2-1-2-1-2v-4-2-2-4l1-1c1-2 1-3 1-4v-1c1-1 2-3 3-4 0 0 0-1 1-1 0-1 1-2 2-3l125-127c11-10 30-10 40 0 11 12 11 29 0 40l-105 107 105 106zm113 14l109-259c6-12 20-18 33-13 12 5 18 20 12 32l-109 259c-4 10-13 15-22 15-3 0-7 0-9-2-13-5-19-19-14-32zm369-104l-3 3-125 127c-5 5-13 8-20 8-8 0-14-3-20-8-11-11-11-28 0-40l105-106-105-107c-11-11-11-28 0-40 11-10 29-10 40 0l125 127 3 3v1a13.8 13.8 0 0 0 3 4v1c1 1 1 2 1 4 0 1 1 1 1 1v4 2 2 4h-1c0 2 0 4-1 4v2c-1 1-2 2-3 4z" class="D B"/><path d="M24578 7058h-3422V5791h3422z" class="B G"/><path d="M21650 6687v-562c0-29 23-52 52-52 30 0 53 23 53 52v229h247v-229c0-29 23-52 52-52 30 0 54 23 54 52v562c0 30-24 53-54 53-29 0-52-23-52-53v-228h-247v228c0 30-23 53-53 53-29 0-52-23-52-53zm1083-508h-152v508c0 30-23 53-52 53a52.7 52.7 0 0 1-53-53v-508h-150c-30 0-52-25-52-54s22-52 52-52h407c28 0 52 23 52 52s-24 54-52 54zm783-54v562c0 29-25 53-54 53s-52-24-52-53v-401l-137 191c-11 14-26 22-43 22h-1-1c-17 0-33-8-44-22l-136-191v401a53.4 53.4 0 0 1-53 53 53.4 53.4 0 0 1-53-53v-562c0-28 24-52 53-52h2c16 0 33 8 42 22l190 263 189-263c11-14 26-22 43-22h1c29 1 54 24 54 52zm230 562v-562c0-28 23-52 52-52 30 0 54 24 54 52v509h258c28 0 52 24 52 53s-24 53-52 53h-309-2-1c-29 0-52-24-52-53z" class="F B"/><path d="M9156 7493H6336V6226h2820z" class="B G"/><path d="M7175 6916h-117v206c0 29-24 53-54 53-28 0-52-24-52-53v-561c0-30 24-53 52-53h1 170c113 0 205 91 205 205 0 111-92 203-205 203zm-117-106h0 117c55 0 98-44 99-97-1-55-44-99-99-99h-117v196zm449 312v-561c0-30 23-53 53-53a52.7 52.7 0 0 1 53 53v228h246v-228c0-30 23-53 53-53a52.7 52.7 0 0 1 53 53v561a52.7 52.7 0 0 1-53 53c-30 0-53-23-53-53v-228h-246v228a52.7 52.7 0 0 1-53 53c-30 0-53-23-53-53zm898-206h-117v206a53.4 53.4 0 0 1-53 53c-29 0-52-24-52-53v-561c0-30 23-53 52-53h1 169a204 204 0 0 1 205 205c0 111-91 203-205 203zm-117-106h0 117c56 0 98-44 99-97-1-55-43-99-99-99h-117v196z" class="F B"/><g class="E B"><path d="M27311 11775l214 517-214 88-215-520-353 274v-1455l1019 1029zm-568-1255c-10-25-13-49-13-73 0-25 3-49 13-74 10 25 12 49 13 74-1 24-3 48-13 73zm-126 52c-25-10-44-26-61-43s-33-36-43-60c25 10 44 25 61 42 17 18 33 37 43 61zm-53 126c-24 10-48 13-73 13-24 0-48-3-73-13 25-10 49-13 73-13 25 1 49 3 73 13zm53 126c-10 25-26 43-43 61-17 17-36 33-61 43 10-25 26-44 43-61s36-33 61-43zm304-126c24-10 49-12 73-13 25 0 49 3 73 13-24 10-48 13-73 13-24 0-49-3-73-13zm-52-126c10-24 25-43 42-61 18-17 37-32 61-42-10 24-25 43-42 60-18 17-37 33-61 43zm-7282-1890c-671 575-484 1414-764 1868-172 279-730 572-841 893-182 527 265 716 165 1002-142 406-685 374-782 1038-98 663 632 1369 2364 1560 1733 191 2685-443 2747-1006s-514-750-553-1171c-26-268 330-455 348-950 18-494-463-655-532-1075-70-422 153-1440-464-1961s-1357-482-1688-198z"/><path d="M19665 8697c-191 134-337 307-446 514-112 214-187 447-247 681-36 138-68 280-135 408-57 110-140 203-232 287-188 169-412 298-580 488-159 181-283 422-220 668 35 134 123 243 178 368 52 118 73 265-29 363-86 84-212 122-310 191-97 68-183 151-253 245-143 194-205 429-160 667 102 539 608 845 1075 1038l196 79c10 4 18-10 8-15-468-209-1012-456-1192-979-81-236-55-486 81-696 65-101 151-189 247-260 94-70 203-113 299-179 97-67 153-165 147-284-6-127-67-237-129-345-64-114-119-229-110-363 8-126 67-244 138-346 146-207 362-342 556-498 195-158 350-339 421-584 36-123 59-250 90-375 28-116 62-231 103-343 81-221 197-436 366-603 45-44 92-84 143-118 6-4 0-13-5-9zm2888 4927c-21-91-62-178-120-252-60-76-133-141-200-211-63-67-123-142-141-234-22-111 24-217 76-312 54-100 115-195 155-302 39-104 60-213 66-323 13-231-55-449-174-645-59-96-126-188-186-285-66-106-118-217-153-336-78-261-95-536-159-801-65-271-163-533-281-785-3-7-13-1-10 5 108 227 188 465 247 710 55 232 76 468 117 702 20 115 45 229 88 338 39 102 93 197 150 290 117 191 238 379 270 605 32 224-6 449-111 649-91 172-219 362-139 564 67 170 230 273 338 414 119 156 154 357 117 548-93 485-579 726-1035 750-14 0-13 22 1 22 396-5 826-179 1012-549 86-172 116-374 72-562z"/></g><g class="J B"><path d="M20187 13058c438 1743 872 3076 1369 3403 401 263 964 448 1542 578 680 150 1383 227 1876 268l471 34c284 18 748-1856 547-2085-46-52-233-92-495-126-884-110-2623-136-2727-235-107-104-994-1345-1754-2321-525-674-1073-482-829 484z"/><path d="M24876 17152c35 16 536 234 844 311 229 57 894 205 983-42 60-167-321-300-588-400-141-53-317-192-280-282 66-159 429-16 669 112 463 247 1086 700 1355 459 101-91-27-245-210-394 295 171 609 308 726 211 67-55 67-127 26-207 90 25 169 17 222-43 90-102 39-246-69-391 32-4 61-22 83-59 187-310-840-1144-1187-1213-1022-204-2096-76-2096-76-387 333-479 2013-478 2014z"/></g><path d="M26330 16153c240 28 481 105 685 235 243 153 439 368 664 544 6 4-2 14-8 9-106-91-222-172-332-259-107-85-213-173-325-251-207-141-436-237-685-274-2-1-1-5 1-4zm173-437c269 63 544 126 796 243 276 128 496 345 712 553 129 126 256 254 380 385 5 5-2 14-7 9-220-216-445-425-678-627-218-190-459-332-733-425-155-52-313-93-471-133-3-1-2-6 1-5zm271-386c260 43 488 80 722 210 310 173 614 471 721 577 117 117 231 237 343 360 5 5-4 13-8 8-256-267-530-520-818-752-138-111-287-207-452-271-164-63-337-96-509-131-1 0-1-2 1-1z" class="E B"/><path d="M20508 14815l1566-924s-668-1080-1239-1589c-572-510-802-110-715 631 86 740 388 1882 388 1882z" class="B D"/><g class="E B"><path d="M21828 13657c-251 128-921 496-1324 796-2 2 4 12 6 11 374-196 1088-641 1327-792 4-3-5-18-9-15z"/><path d="M21946 13968l-1438 847s-301-1141-388-1882c-56-479 20-815 235-856l1591 1891z"/></g><path d="M22021 17929h-5178s1125-4344 2166-5566c23-29 47-55 71-80 5-6 9-10 14-15 90-94 184-164 278-215 19-10 37-19 56-27 401-185 824-32 1130 230 97 83 1194 1511 1291 2055 84 481-240 997-240 997l412 2621z" class="B D"/><path d="M20832 15122c-220 25-441 57-655 113-106 29-210 62-315 97-52 18-104 34-156 49-54 16-112 31-169 33-5 1-5 8 0 8 55 1 108 2 163-4 52-6 104-18 154-31 109-27 216-60 324-89 217-58 435-116 656-158 11-2 8-19-2-18zm547 191c-181-17-366-26-548-22-91 2-182 9-273 19-43 4-87 10-130 16-48 6-94 19-142 25-5 0-5 8 0 8 45-4 91-1 137-3l136-4 273-9 547-15c10 0 9-14 0-15z" class="E B"/><g class="J B"><path d="M18713 12615c-975 1371-2239 3750-1589 4188 1070 719 4012 913 4684 930 291 7 687-1923 473-2147-215-225-3295-105-3335-291-22-105 355-1077 546-2244 221-1345-504-823-779-436z"/><path d="M21764 15479s878-90 1456-122c322-18 877 0 1119 96 363 142 1790 969 1597 1319-175 317-1310-549-1310-549s1223 773 942 1116c-280 343-1433-806-1433-806s1239 822 894 1130c-261 232-1364-749-1364-749s1060 713 802 964c-286 278-1361-565-1361-565-763 528-1342 467-1749 374-98-22 407-2208 407-2208z"/></g><g class="E B"><path d="M24220 15929c147 85 296 171 435 269 139 99 274 202 403 313 317 271 473 491 462 478-263-296-754-655-893-754-139-98-273-203-411-301-4-3 0-7 4-5zm-364 495c183 117 369 227 546 352s419 309 587 445c13 11 4 34-10 24-173-130-429-306-603-434-174-127-345-262-523-383-3-2 0-6 3-4zm-389 368c288 165 547 384 794 604 13 10-1 14-14 3-260-205-463-368-786-597-5-3 0-13 6-10z"/><path d="M21637 15463c401-41 1579-156 1982-163 356-7 656 42 972 210 677 361 1135 817 1251 955 71 83 174 217 101 324-88 130-469 47-893-269-15-11-7-20 8-9 590 391 804 319 853 238 33-53-11-134-50-196-57-90-141-169-219-240-268-245-585-463-897-647-360-212-730-316-1148-311-413 6-1547 124-1960 124-8 0-8-15 0-16z"/><path d="M25617 17156c-33-107-122-199-193-284-87-104-182-206-289-291-5-3-12 3-7 7 90 91 179 181 258 282 43 55 83 111 119 171 35 57 75 123 67 192-16 133-182 146-283 120-66-17-130-43-191-71-64-30-184-106-240-148-7-5-22-1-15 4 159 126 463 388 679 261 86-51 125-146 95-243z"/></g><path d="M17498 14044l1710 616s405-1204 433-1969-427-687-942-148c-515 540-1201 1501-1201 1501z" class="B D"/><path d="M19232 14320c-259-111-971-392-1458-511-3 0-7 11-5 12 389 163 1188 429 1456 516 5 2 11-15 7-17zm330-648c1-2-3-4-4-1-31 59-58 118-84 180 30-134 56-268 80-403 1-5-6-6-8-1-114 394-239 787-345 1183-44-2-88-5-131-10-8-2-10 9-3 11 48 11 94 26 140 42 11 4 25 2 30-10 84-224 152-456 208-690 18-35 36-71 51-108 27-63 49-126 66-193z" class="E B"/><path d="M19873 11866c-388 72-392 500-281 813 112 313 356 687 559 696 204 10 292-495 292-495s257 345 419 250-84-706-282-908c-287-292-501-394-707-356z" class="B F"/><path d="M19642 12086c8 93 353 735 765 775 134 13 236-717 236-717l20-52 276-731-804-695-118-94-138 461c-3 11-7 23-10 36-5 14-10 28-13 41-12 38-24 77-35 116-8 30-17 59-24 90l-25 94c-78 311-133 637-130 676z" class="B J"/><path d="M19879 11033c131 631 575 945 784 1059l276-731-804-695-118-94-138 461z" class="B E"/><path d="M22140 10303c-71 1369-899 1481-1194 1465-268-14-1179-96-1250-1465s588-1769 1202-1769c615 0 1312 400 1242 1769z" class="B J"/><g class="E B"><path d="M21959 10056c-32-6-60-17-91-26-35-10-64-15-88-44-13-16-10-46 5-60 32-32 78-30 120-19 47 12 79 33 107 71 27 37-11 86-53 78zm-876-58c32-1 62-8 94-13 36-5 65-5 93-31 15-13 16-43 4-59-27-37-73-42-116-37-48 5-83 21-116 54s-2 88 41 86zm139 339c0-4-7 4-7 8-2 93-20 200-106 226-2 1-2 6 1 6 103-10 125-152 112-240z"/><path d="M21144 10235c-150-19-176 281-38 299 136 17 163-283 38-299z"/><path d="M21083 10246c-27 14-56 42-88 42-36 1-61-33-82-65-3-4-6-2-6 2-6 58 11 119 72 133 55 13 100-34 120-91 4-10-4-27-16-21zm649 117c1-4 7 5 6 8-12 93-10 201 71 240 3 1 2 6-1 5-101-24-102-168-76-253z"/><path d="M21824 10274c151 3 133 304-6 301-137-3-120-304 6-301z"/><path d="M21886 10297c23 17 44 48 73 51 33 4 59-27 82-57 2-3 4 0 4 4-2 57-24 116-80 124-51 7-85-44-95-103-2-10 7-26 16-19zm-733 756c19 25 37 58 70 65 32 7 72-2 103-10 3-1 6 3 3 5-29 33-82 48-124 35-41-13-57-52-62-92 0-5 7-6 10-3zm397-261s8 140 3 206c-1 6-243 37-335-133-4-7 5-13 10-8 82 70 176 94 278 104 6-18-22-241-12-240 36-1 105 29 147 45-9-293-65-583-70-875 0-10 15-12 18-2 80 299 97 636 114 938 3 38-128-22-153-35zm-1755-433c335 32 567-980 594-1104-13 79-80 499-50 520 7 6 45 3 107-6h1c6-47 17-98 32-149 5-23 2 52 3 145a2381.4 2381.4 0 0 1 63-9c10-91 30-203 75-317 15-38 1 143 19 304 238-31 581-69 893-38 84 8 155 18 218 29 17-124 21-259 26-229 17 85 22 169 21 239 35 6 66 13 94 19 32-175-15-467 8-420 86 181 108 361 113 456 117 39 147 67 154 36 13-55 10-557-326-968-365-448-1183-656-1732-114 0 0-419 201-534 599-114 397 27 988 221 1007z"/></g><path d="M19918 10318s-237-465-444-386c-207 78-70 724 144 839 214 116 325-80 325-80l-25-373z" class="B J"/><path d="M19518 10115c-4 0-5 5-2 6 149 87 212 245 249 405-39-65-98-106-185-61-4 3-1 10 4 9 66-5 112 13 148 71 26 41 41 91 57 136 6 15 32 11 29-6 0-1 0-2-1-4 32-201-85-505-299-556z" class="B E"/><g class="K B"><path d="M12012 12480c-347 1513-1050 3427-1593 3813-438 312-2736 861-2865 875-317 32-943-2209-614-2300 414-115 2383-176 2495-291 117-121 833-1091 1645-2216 560-777 1147-819 932 119z"/><path d="M7809 17045c-38 19-574 289-906 385-248 72-966 259-1072-6-72-180 337-340 624-460 151-63 337-221 293-318-78-170-467 1-723 149-495 288-1154 805-1456 554-115-95 18-267 212-437-315 198-651 360-782 259-75-57-78-135-36-225-98 32-184 25-244-38-102-107-52-265 60-427-36-4-68-22-93-61-217-331 868-1280 1244-1369 1103-262 2278-167 2278-167 434 347 602 2160 601 2161z"/></g><path d="M6186 16028c-260 41-516 138-737 284-280 184-465 401-700 618-6 6 2 16 9 10 112-103 575-493 695-581 220-162 465-276 734-326 3-1 2-5-1-5zm-206-468c-290 79-588 159-857 297-295 150-525 395-752 630-136 142-269 286-399 434-5 6 3 16 9 9 230-243 467-480 712-709 230-215 486-380 781-492 166-63 337-114 507-164 3-1 2-6-1-5zm-310-410c-282 58-528 107-777 259-331 200-650 537-762 656-124 132-243 268-360 406-5 5 5 14 10 8 268-301 556-587 860-852 145-126 303-236 481-312 175-76 363-119 548-163 2 0 1-2 0-2z" class="E B"/><path d="M9452 14356l2118-90s385-1049 527-1981c141-932-653-597-1439 406-786 1004-1206 1665-1206 1665z" class="B D"/><path d="M11643 13806c-458-11-918 9-1376 38-129 9-259 20-388 34-4 1-4 6 0 6 229 1 458-7 687-14l688-30 388-25c6 0 6-8 1-9z" class="B E"/><path d="M10973 12439c-11 9-22 14-34 17-23 4-46-3-62-20-1-1-3-2-4-3-8 9-16 18-23 27l2 2c24 24 65 34 96 20 16-6 29-19 37-31s17-24 24-37c-12 8-24 17-36 25zm467 1653h0c-3-15-5-29-9-44-4 15-6 29-9 44-2 15-5 26-11 36-12 20-34 33-56 33-34 0-70 22-82 54-7 15-7 34-5 48 1 5 2 11 3 16l12-1c1-5 1-10 2-15 2-14 6-25 13-36 13-19 34-31 58-31 36 0 69-24 81-56 6-16 5-35 3-48zm-572-852h0c-3-14-5-29-9-43-3 14-5 29-8 43-2 15-5 26-11 36-13 21-34 33-56 33-35 0-70 22-82 54a81.4 81.4 0 0 0-5 48c3 15 5 29 9 43 4-14 5-28 8-43 2-14 6-25 12-35 14-20 35-32 58-31 36 0 70-25 81-57 7-16 6-34 3-48zm-380 858h0c-12 10-21 16-33 19-23 5-48-1-63-17-24-25-65-34-96-20-16 6-30 19-38 31s-17 23-24 36c13-7 24-16 36-24 12-9 22-14 34-16 24-5 47 2 63 19 26 24 67 31 98 16 15-6 28-20 35-31 9-13 18-24 25-37-13 8-25 16-37 24zm1143-644h0a97.2 97.2 0 0 1-34 19c-22 5-47-1-62-17-25-25-66-34-97-20-16 6-29 19-37 31s-17 23-24 36c13-7 24-16 36-24 12-9 22-14 34-17 23-4 47 3 63 20 25 24 66 32 97 16 16-6 29-20 36-31 8-12 18-24 25-37-14 8-25 16-37 24zm118-688h0c-15-2-26-5-36-12-20-13-32-35-31-58 0-36-24-70-57-81-16-6-34-6-48-3s-29 5-43 9c14 4 29 5 43 8 15 2 26 5 37 12 20 12 32 33 32 56 0 34 22 69 54 82 16 7 34 7 49 5 14-3 28-5 42-9-14-5-28-6-42-9zm-1712 934h0c-15-2-25-6-35-12-21-13-32-34-31-58 0-7-1-15-4-21-10 14-19 27-30 41v1c6 27 26 52 52 62 15 7 34 7 48 4 15-3 29-4 43-8-14-4-28-6-43-9zm1622-1912h0l3 20c3 13 4 32-3 48-11 32-45 56-81 57-23-1-44 11-58 31-7 10-10 21-12 35-3 15-5 29-9 43-4-14-5-28-8-43-3-14-2-32 4-48 12-32 48-55 83-54 22 0 44-12 56-33 6-10 9-21 11-36 1-5 2-10 2-15l12-5z" class="B I"/><path d="M9988 17934h5406c60-109-826-4844-2649-6178-405-296-1123-105-1322 182-1003 1446-1435 5996-1435 5996z" class="B D"/><path d="M12281 13916c14-4 29-6 43-9 14-2 33-3 48 4 33 11 57 45 57 80-1 24 11 45 31 58 10 7 21 11 35 12 15 3 29 5 44 9-15 4-29 6-44 9a81.4 81.4 0 0 1-48-5c-32-12-54-48-54-82 0-22-12-44-33-56-10-7-21-9-36-11-14-3-29-5-43-9zm840 2859h0c15 1 26 4 36 11 20 12 33 34 33 56-1 34 22 70 54 82 15 7 34 7 48 5 15-3 29-5 43-9-14-4-28-6-43-9-14-1-25-5-36-12-19-13-31-34-30-58-1-35-25-69-57-80-16-7-35-6-48-4-15 3-29 5-43 9 14 4 28 6 43 9zm992-2696h0c15 2 25 5 36 11 20 12 33 34 33 56-1 34 21 70 54 82 15 7 34 8 48 5s29-5 43-9c-14-4-29-6-43-9-15-1-26-5-36-12-20-13-31-34-31-58 0-35-24-69-57-80-15-7-34-6-47-3-15 2-29 4-44 8 15 4 29 6 44 9zm-2536-1450h0c16 2 26 5 37 11 20 13 33 34 32 57 0 34 22 70 54 82 16 7 34 7 48 4 15-2 29-4 44-8-15-4-29-6-44-9-14-2-25-5-35-12-20-13-32-34-31-58 0-36-24-69-57-81-15-6-34-6-48-3s-29 5-43 9c14 4 29 6 43 8zm1561-32h0c15 1 26 4 36 11 20 12 33 34 33 56-1 34 22 70 54 82 15 7 34 7 48 5 14-3 29-5 43-9-14-4-29-6-43-9-15-1-25-5-36-12-19-13-31-34-30-58-1-35-25-69-57-80-16-7-35-6-48-4-15 3-29 5-43 9 14 4 28 6 43 9zm-1944 2520h0c15 2 26 5 36 11 21 13 33 34 33 56 0 35 22 71 54 83 16 7 34 7 48 4 15-3 29-4 44-8-15-4-29-6-44-9-14-2-25-6-35-12-20-14-32-35-31-58 0-36-24-70-57-81-15-6-34-6-48-3s-29 5-43 9c14 4 29 5 43 8zm1702 2611h0c15 2 26 5 36 11 20 13 33 34 33 57 0 34 22 70 54 82 15 7 34 7 48 5 15-3 29-5 43-9-14-4-28-6-43-9-14-2-25-5-35-12-20-13-32-34-31-58-1-36-25-69-57-81-16-6-35-6-48-3-14 3-29 5-43 9 14 4 29 6 43 8zm-838-1403h0c15 2 26 5 36 11 21 13 33 34 33 57 0 34 22 70 54 82 16 7 34 7 48 4 15-3 29-4 43-8-14-4-28-6-43-9-14-2-25-5-35-12-20-13-32-35-31-58 0-36-25-70-57-81-15-6-35-6-48-3-14 3-29 5-43 9 14 4 29 5 43 8zm-1919 1439h0c-14-2-25-6-35-12-20-14-32-35-31-59 0-33-21-65-51-77-2 11-3 22-4 33 12 12 20 28 19 45 0 35 22 70 54 82a81.4 81.4 0 0 0 48 5c15-3 29-5 44-9-15-4-29-6-44-8zm369-1184h0c15 2 26 5 36 11 21 13 33 34 33 57 0 34 22 70 54 82 15 7 34 7 48 4 15-3 29-4 43-8-14-4-28-6-43-9-14-2-25-5-35-12-20-13-32-35-31-58-1-36-25-70-57-81-16-6-35-6-48-3-15 3-29 5-43 9 14 4 28 5 43 8zm2264-1428h0c15 1 25 4 36 11 20 12 33 34 33 56-1 34 22 70 54 82 15 7 34 7 48 5 14-3 29-5 43-9-14-4-29-6-43-9-15-1-25-5-36-12-20-13-31-34-31-58 0-36-24-69-56-81-16-6-35-5-48-3-15 3-29 5-44 9 15 4 29 6 44 9zm1982 1921h0c15 1 26 4 36 11 21 12 33 34 33 56 0 34 22 70 54 82 15 7 34 7 48 5 15-3 29-5 43-9-14-4-28-6-43-9-14-1-25-5-35-12-20-13-32-34-31-58-1-35-25-69-57-81-16-6-35-5-48-3-14 3-29 5-43 9 14 4 29 6 43 9zm-787-1173h0c15 2 26 5 36 11 21 12 33 34 33 56 0 35 22 70 54 82a81.4 81.4 0 0 0 48 5c15-3 29-5 43-9-14-4-28-5-43-8-14-2-25-6-35-12-20-14-32-35-31-58-1-36-24-70-57-81-16-7-35-6-48-3-14 3-29 4-43 8 14 4 29 6 43 9zm-2336-2445h0c-12 9-22 14-34 18-23 5-47-1-62-17-24-25-65-34-97-20-16 6-29 19-37 31s-17 23-24 37c13-8 24-17 36-25 12-9 22-14 34-17 23-4 47 3 63 20 25 25 66 32 97 17 16-7 29-21 36-32 8-12 17-24 25-37-13 8-25 17-37 25zm2329 1676h0c-12 9-21 15-33 18-23 5-48-1-63-17-24-25-65-34-96-20-16 6-30 19-38 31s-17 24-24 37c13-8 24-17 37-25 11-9 21-14 33-16 24-5 47 2 63 19 26 25 66 32 97 17 16-7 29-21 37-32 8-12 17-24 24-37-13 8-25 17-37 25zm-1453-3121h0c-12 10-22 15-34 18-23 6-47-1-63-16-24-25-65-35-96-20-16 6-29 18-37 30-9 12-17 24-25 37 13-7 25-16 37-24 12-9 22-15 34-17 23-5 46 2 62 19 26 25 67 32 98 17 15-6 28-20 36-32s17-23 24-36c-13 7-24 16-36 24zm-29 924h0c-2 16-5 26-11 37-12 20-34 33-56 32-35 0-70 22-82 55-7 15-8 34-5 48s5 28 9 43c4-15 6-29 9-43 1-15 5-26 11-36 14-20 35-31 58-31 36 0 70-24 81-57 7-15 6-34 3-48s-4-28-8-43c-4 15-6 29-9 43zm-343 2533h0c-2 15-5 26-11 36-12 20-34 33-56 33-35 0-70 22-83 54-6 15-7 34-4 48 3 15 5 29 9 43 4-14 5-28 8-43 2-14 6-25 12-35 14-20 35-32 58-31 36-1 70-25 81-57 7-16 6-35 3-48-3-15-4-29-8-43-4 14-6 28-9 43zm1797-2206h0-7c-35 0-70 22-83 54-6 16-7 34-4 48 3 15 4 29 9 44 4-15 5-29 9-44a76.1 76.1 0 0 1 11-35c14-20 35-32 58-31 9 0 16-2 24-4l-17-32zm-12 4090h0c-2 16-5 26-11 37-13 20-34 33-57 32-34 0-69 22-82 54-7 16-7 34-4 48 3 15 4 29 8 44 5-15 6-29 9-44 2-14 6-25 12-35 14-20 35-32 58-31 36 0 70-24 81-57 6-15 6-34 3-48s-5-28-9-43c-4 15-5 29-8 43zm773-2296h0c-1 2-1 3-2 4-12 20-34 33-56 33-34 0-70 22-82 54-7 15-8 34-5 48 3 15 5 29 9 43 4-14 6-28 8-43 2-14 6-25 13-35 13-20 34-32 58-31 27 0 53-15 69-36l-12-37zm-3954 503h0c-2 15-5 25-11 36-12 20-34 33-56 33-35-1-70 21-83 54-6 15-7 34-4 48s4 29 9 43c4-14 5-29 8-43 2-15 6-26 12-36 14-20 35-31 58-31 36 0 70-24 81-57 7-15 6-34 3-47-3-15-4-29-8-44-4 15-6 29-9 44zm95-2270h0l-23 75c8-8 15-19 19-30 6-14 6-32 4-45zm811-1480h0c-2 15-5 26-11 36-13 20-34 33-56 33-35-1-70 22-83 54-6 15-7 34-4 48 3 15 4 29 8 43 5-14 6-28 9-43 2-14 6-25 12-35 14-20 35-32 58-31 36-1 70-25 81-57 7-16 6-35 3-48-3-14-4-29-8-43-4 14-6 29-9 43zm-223 2284h0c-1 15-4 25-11 36-12 20-34 33-56 33-34-1-70 22-82 54-7 15-7 34-5 48 3 14 5 29 9 43 4-14 6-29 9-43 1-15 5-25 12-36 13-19 34-31 58-31 35 0 69-24 80-56 7-16 6-35 4-48-3-15-5-29-9-43-4 14-6 28-9 43zm1999 307h0c-2 15-5 25-11 36-13 20-34 33-57 33-34-1-70 22-82 54-7 15-7 34-5 48 3 14 5 29 9 43 4-14 6-29 9-43 2-15 5-25 12-36 13-19 34-31 58-31 36 0 69-24 81-56 6-16 6-35 3-48-3-15-5-29-9-44-4 15-6 29-8 44zm-1847 2564h0c-2 16-5 26-11 37-13 20-34 33-57 32-34 0-70 22-82 54-7 16-7 34-4 48 3 15 4 29 8 44 4-15 6-29 9-44 2-14 5-25 12-35 13-20 35-32 58-31 36 0 70-24 81-57 6-15 6-34 3-48s-5-29-9-43c-4 14-5 29-8 43zm1549-3357h0c12-9 22-15 34-18 23-5 47 1 63 17 24 25 65 34 96 20 16-6 29-19 37-31 9-12 18-24 25-37-13 8-25 17-37 25-11 9-22 14-34 16-23 5-46-2-62-19-26-25-67-32-98-17-15 7-28 21-36 32-8 12-17 24-24 37 13-8 24-17 36-25zm-1165 1056h0c12-10 21-15 33-18 23-6 48 1 63 17 24 24 65 34 96 20 16-6 30-19 38-31s17-24 24-37c-13 7-24 16-37 25-11 9-21 14-33 16-24 5-47-2-63-19-26-25-66-32-97-17-16 6-29 20-37 32s-17 23-24 36c13-7 25-16 37-24zm-790 1555h0c12-9 22-14 34-18 23-5 47 1 63 17 23 25 64 34 96 20 16-6 29-19 37-31s17-23 25-36c-14 7-25 16-37 24-12 9-22 14-34 17-23 4-46-3-63-20-25-25-66-32-97-17-16 7-29 21-36 32-8 12-17 24-25 37 14-8 25-16 37-25zm341 1617h0c12-10 22-15 34-18 23-6 47 0 63 16 24 25 65 34 96 20 16-6 29-19 37-31 9-12 18-23 25-36-13 7-25 16-37 24-11 9-22 14-33 17-24 4-47-2-63-19-26-25-67-32-98-17-15 6-28 20-36 31-8 13-17 24-24 37 13-7 24-16 36-24zm1529-1776h0c12-10 21-15 33-18 23-6 47 0 63 16 24 25 65 34 96 20 16-6 30-19 38-31s17-23 24-36c-13 7-24 16-37 24-11 9-22 14-33 17-24 4-47-2-63-20-26-24-67-31-98-16-15 6-28 20-36 31-8 12-17 24-24 37 13-7 24-16 37-24zm1051 643h0c12-9 22-15 34-18 23-5 47 1 63 17 24 25 65 34 96 20 16-6 29-19 37-31s17-24 25-37c-13 8-25 17-37 25-11 9-22 14-34 16-23 5-46-2-63-19-25-25-66-32-97-17-15 7-28 21-36 32-8 12-17 24-24 37 13-8 24-17 36-25zm-1769 489h0c12-10 22-15 34-18 23-6 47 1 63 16 23 25 64 35 96 21 16-6 29-19 37-31 8-13 17-24 24-37-12 7-24 16-36 24-12 9-22 14-34 17-23 5-46-2-63-19-25-25-66-32-97-17-16 6-29 20-36 32-8 12-17 23-25 36 13-7 25-16 37-24zm2282 644h0c12-10 21-15 33-18 23-6 48 0 63 16 24 25 65 34 97 20 15-6 29-19 37-31s17-23 24-36c-13 7-24 16-36 24-12 9-22 14-34 17-24 4-47-2-63-19-25-25-66-32-97-17-16 6-29 20-36 31-9 13-17 24-25 37 13-7 25-16 37-24zm407-1750h0c-11-3-20-9-28-17-26-25-67-32-98-17-15 7-28 21-36 32-8 12-17 23-24 36 13-7 24-16 37-24 12-9 21-15 33-18 23-5 48 1 63 17 16 16 39 26 62 26-3-11-6-23-9-35zm-4317 1328h0c12-9 21-14 33-17 23-6 48 0 64 16 23 25 64 34 96 20 16-6 29-19 37-31s17-23 24-36c-13 7-24 16-36 24-12 9-22 14-34 17-23 4-47-3-63-19-25-26-66-32-97-17-16 6-29 20-36 31-8 12-17 24-25 37 13-7 25-16 37-25zm-130-2713h0c12-10 21-15 33-18 23-6 48 0 63 16 24 25 65 34 96 20 16-6 30-19 38-30 8-13 17-24 24-37-13 7-24 16-37 24-11 9-21 14-33 17-24 4-47-2-63-19-26-25-66-32-97-17-16 6-29 20-37 31-8 13-17 24-24 37 13-7 24-16 37-24z" class="B I"/><path d="M10847 13198l-144 540c6-79 14-157 24-236 1-4-6-6-7-1-20 97-30 196-32 295l-157 655c-92 420-175 844-243 1269l-109 720c-1 5 6 6 7 2 38-212 88-423 134-634l134-628 266-1265 144-713c2-11-14-15-17-4z" class="B E"/><g class="K B"><path d="M13436 12224c873 935 2950 4443 2277 5090-678 652-4410-224-5459-724-313-148 874-2095 1241-2140 305-38 1867 676 1912 587 51-102-304-754-679-2111-434-1564 323-1115 708-702zm-3492 1598c-759-106-970-17-1563-446-389-282-736-154-514 293 363 733 1313 1075 1677 1098l400-945z"/><path d="M11959 14552s-853-473-1650-666c-551-133-1783-289-2962 926-280 289-474 898 154 593 446-217 663-489 945-568 0 0-154 804 146 1073 133 120 507 440 833 647 0 0 64-59 135-145 0 0 304 224 875 170l1524-2030z"/><path d="M9763 13843c-264 137-818 438-1186 842-408 448-1073 1422-739 1720 245 218 531-131 531-131s-190 460 75 609c240 136 446-148 446-148s-67 299 190 385c309 104 400-540 804-706 91-37-121-2571-121-2571z"/></g><g class="E B"><path d="M9123 15037c-227 170-643 688-758 1225-2 12 5 21 10 10 252-564 595-1038 752-1231a2.83 2.83 0 0 0-4-4zm441 425c-181 167-586 720-684 1268-2 12 6 20 11 10 239-601 531-1072 677-1274 2-3-2-6-4-4zm-1118-630c-247 73-408 194-617 339-103 72-207 142-318 202-101 54-249 137-357 51-59-47-58-133-45-202 15-76 44-150 89-213 3-3-3-7-5-4-42 56-78 116-103 182-22 60-39 130-22 193 36 137 197 155 311 117 68-22 133-58 195-94 60-34 118-72 175-110 118-80 231-166 347-247 128-88 217-132 354-206 5-2 1-9-4-8z"/><path d="M7929 15702c63-141 410-728 522-864 3-3-1-8-5-5-193 183-502 668-574 824-72 153-154 350-154 521 0 258 171 307 235 320 75 15 152-1 220-36 75-39 148-120 199-187 3-4-2-9-5-5-90 101-239 202-379 184-61-9-123-36-160-87-43-59-47-137-41-208 13-160 76-312 142-457z"/><path d="M8880 16730c-36 31-110 138-228 161-86 17-176 8-242-54-65-62-89-148-93-235-2-49 37-261 54-325 2-5-5-8-6-3-38 114-78 238-78 350 0 93 29 193 99 257 72 68 178 91 271 57 45-18 191-111 233-203 1-2-8-6-10-5zm980-362c-41 24-76 59-110 92a2674.7 2674.7 0 0 0-105 108c-69 74-128 159-179 245-52 88-100 185-186 246-83 60-197 69-282 7-45-32-74-78-89-131-14-54-24-120-16-176 1-5-7-6-7-1-4 55-19 105-13 160 6 49 22 97 51 136 60 81 166 117 264 99 108-20 187-101 245-189 66-97 119-202 189-297 37-50 73-100 113-147 42-49 92-93 131-145 3-4-2-10-6-7z"/><path d="M10162 16588c-81-7-269-38-416-86-5-2-11 11-7 13 55 30 171 60 205 67 70 15 146 21 217 14 4-1 6-8 1-8zm4658-869c-218-149-450-277-687-393-234-114-480-203-729-282-142-45-285-83-429-122-5-1-6 5-2 7 251 75 496 173 736 276l712 322c133 64 263 133 394 201 6 3 10-5 5-9z"/></g><path d="M15224 14429l-2119-70s-394-1046-544-1977c-150-930 612-646 1407 350 796 996 1256 1697 1256 1697z" class="B D"/><path d="M13341 13582c-12 9-21 14-34 16-23 5-46-2-62-19-26-25-67-32-97-17-16 7-29 21-37 32-8 12-17 23-24 36 13-7 24-16 37-24 11-9 21-15 33-18 23-5 47 1 63 17 24 25 65 34 96 20 16-6 29-19 37-31 9-12 17-23 25-37-13 8-25 17-37 25zm669-390h0c-4-14-5-29-9-43-4 14-6 29-9 43-2 15-4 26-11 36-12 21-34 34-56 33-35 0-70 22-83 54-6 16-7 34-4 48 3 15 4 29 9 44 4-15 5-29 9-44a76.1 76.1 0 0 1 11-35c14-20 35-32 58-31 36-1 70-25 81-57 7-15 6-35 4-48zm-745-1165h0c0 5 1 10 1 15 4 14 5 29 9 43 4-14 6-29 9-43v-1c-6-5-13-9-19-14zm1511 1762h0c-16 0-31-7-42-18-24-25-65-34-97-20-15 6-29 19-37 31s-17 24-24 37c13-8 24-16 37-25 11-9 21-14 33-16 23-5 47 2 63 19 23 22 58 30 87 21l-20-29zm-1467-1056h0c-15-2-25-5-36-11-20-14-31-35-30-59-1-36-25-69-57-81-16-6-35-5-48-3-15 3-29 5-44 9 15 4 29 6 44 9 15 2 25 4 36 11 20 12 33 34 33 56 0 34 22 70 54 82 15 7 34 8 48 5s29-5 43-9c-14-4-29-6-43-9zm975 1483h0c-15-2-25-6-36-13-19-13-31-34-31-58 0-35-24-69-57-80-15-7-34-6-47-3-15 3-29 4-43 8 14 4 28 6 43 9 15 1 25 5 36 11 20 12 33 34 33 56-1 34 21 70 54 82 15 7 33 8 48 5 14-3 29-5 43-9-14-4-29-6-43-8z" class="B I"/><path d="M13192 14352c-11 0-85-13-86-13-5-28-126-465-158-560-65-194-141-385-214-576-2-6-12-3-10 3l142 493c-15-23-29-46-43-70-29-49-54-99-81-149-2-4-9-1-8 4 21 69 56 134 93 195 17 26 36 51 56 75a2165.1 2165.1 0 0 1 12 41c30 95 185 569 193 569 2 0 79 2 102 2 6 0 8-14 2-14zm1689-333c-457-34-917-37-1376-30-129 2-259 7-389 15-3 0-4 6 0 6 228 12 457 15 686 19l689 5 389-7c6 0 7-8 1-8z" class="E B"/><path d="M11460 11796c-140 118-282 558-204 849 77 291 231 478 496 455 265-24 773-226 1104-819 332-594-703-1064-1396-485z" class="B I"/><path d="M11651 12774c313 92 883-363 1119-744 16-26-38-1108-26-1324 2-44-1370 256-1370 256s109 459 86 834c-2 32-111 889 191 978z" class="B K"/><path d="M12768 11755c-721 106-1112-110-1318-317-24-258-76-476-76-476s1372-300 1370-256c-8 148 15 706 24 1049z" class="B E"/><path d="M11039 8969c-200 461-106 1867 198 2213 440 502 1240 637 1687 89 432-531 277-2362-70-2684-511-475-1520-297-1815 382z" class="B K"/><g class="E B"><path d="M12311 9960c-1-3-7 5-6 9 8 95 3 204-81 241-3 1-2 6 1 5 104-21 110-167 86-255z"/><path d="M12221 9866c-154-2-147 305-5 307 140 2 133-305 5-307zm615 97c1-4 7 4 7 8 0 95 15 204 101 233 3 1 3 6 0 6-106-13-124-158-108-247z"/><path d="M12918 9861c153-15 172 291 31 305-139 14-158-292-31-305zm-822-132c42-11 78-29 118-44 45-18 83-27 112-69 15-22 8-61-13-78-47-40-107-32-162-13-60 21-100 52-134 105-32 52 25 114 79 99zm937-25c-42-5-81-18-122-28-47-12-85-16-119-54-19-20-16-59 2-79 41-45 102-45 159-34 62 13 106 39 146 87 39 48-9 116-66 108zm-815 1139c24 21 47 51 81 53s72-13 102-26c3-1 6 2 4 5-24 37-75 61-119 54-43-6-65-43-77-82-1-5 6-8 9-4zm94-287c55 81 134 125 219 139 38 7 77 7 116 3 8-1 15-2 22-3s13-2 21-4c11-2 17-11 18-22h0c0-4 0-7-1-10v-1-8c0-73-9-184-9-184 27 13 164 71 161 33-26-316-55-667-147-976-3-10-19-7-18 3 13 304 80 604 98 910-44-16-116-44-154-43-10 3 23 214 20 247 0 0 0 2-1 4-122 18-216-17-337-97-7-5-14 2-8 9z"/><path d="M12603 10662s-63 88-151 122c-32 13-67 18-104 9-77-18-80-88-67-148 10-49 31-91 31-91s113 101 291 108z"/></g><path fill="#ff99ba" d="M12452 10784c-32 13-67 18-104 9-77-18-80-88-67-148 81 7 163 60 171 139z" class="B"/><g class="E B"><path d="M10994 10060c359 16 459-631 459-631s619-72 731-531c0 0 566 401 1032 256 467-145 395-669 350-782-46-114-310 81-310 81s-15-295-92-329c-78-34-171 140-171 140s-582-226-1119-236-829 518-829 518-289 48-392 244c-102 197 113 1260 341 1270z"/><path d="M12180 8809c-7 96-29 189-69 272-41 83-102 154-179 203-78 48-167 74-259 91-46 7-94 9-141 13-47 1-95-1-143 1 47 9 95 15 143 22 48 1 96 2 145 0 97-9 194-36 280-88 84-54 151-135 187-227s48-191 36-287zm-1141-190c43-149 120-288 230-393 108-106 251-173 401-192 37-3 75-14 113-12l114 4c76 6 152 23 227 35 74 22 150 39 223 65l219 80c-70-35-141-67-211-101-72-31-148-52-222-78-152-37-311-65-470-39-157 24-311 95-420 213-110 115-180 265-204 418z"/></g><g class="D B"><path d="M12101 10404c-180-19-333-158-360-345-33-222 121-429 342-462 222-32 429 121 462 343h0c32 222-121 429-343 462-34 5-68 5-101 2zm78-755h0c-29-3-58-2-88 2-192 28-325 208-297 400 29 192 208 325 400 297 192-29 325-208 297-400-24-162-156-283-312-299zm855 737c-155-16-279-189-282-401-2-107 27-209 82-285 56-80 132-125 215-126 82-1 160 41 218 119 56 76 88 176 90 283 3 224-130 408-297 411-9 0-18 0-26-1zm36-757h0c-7 0-14-1-21-1-64 1-125 38-171 103-48 67-73 157-72 253 3 194 116 351 253 349s246-162 243-356c-1-96-29-185-79-251-42-57-96-91-153-97z"/><path d="M12532 9987l-36-41c61-52 203-124 303-19l-39 37c-90-94-223 19-228 23zm-1809 131l-49-25c11-22 114-222 235-243 113-20 842 38 873 41l-4 54c-209-17-772-57-859-42-80 14-169 160-196 215z"/></g><path d="M11205 10126s-270-476-484-384c-213 92-39 762 191 873 229 111 336-100 336-100l-43-389z" class="B K"/><path d="M10776 9933c-4-1-5 4-2 6 161 83 234 246 280 412-44-66-108-106-196-55-5 3-1 10 3 9 70-8 118 9 159 68 29 41 47 93 66 140 7 15 34 10 30-8 0-1 0-3-1-4 24-212-113-525-339-568zM656 17934l3888-11 3888-5 7777-8 7776 8 3888 5 3888 11-3888 12-3888 5-7776 8-7777-8-3888-5z" class="E B"/><path d="M22757 17812v243h5418v-243z" class="B G"/><path d="M22757 17812v243h2727v-243z" class="B E"/><path d="M25421 18055h5280l746-3586h-5280z" class="B H"/><path d="M28025 16342c-21 194 120 352 314 352 195 0 369-158 389-352 21-195-120-352-315-352-194 0-368 157-388 352z" class="B F"/><path d="M8797 17895h300v-196h-300zm-388-13h299v-195h-299zm-388-13h299v-195h-299zm-388-13h299v-195h-299zm-388-13h299v-195h-299zm-388-13h299v-195h-299zm-388-13h299v-195h-299zm-389-13h300v-195h-300zm-388-13h300v-195h-300z" class="G B"/><path d="M5619 18007h3551v-238l-3551-99z" class="B H"/><path d="M2154 17070h5861l-932-4364H1221z" class="B G"/><path d="M1937 17070h5861l-932-4364H1005z" class="B H"/><path d="M3895 14635c32 200 220 362 420 362s336-162 305-362c-32-200-220-363-420-363s-337 163-305 363z" class="B E"/><g class="G B"><path d="M3595 18209h2882v-224l-2882-93z"/><path d="M2811 18209h1548l932-2445H3743z"/></g><path d="M2556 18209h1548l932-2445H3488z" class="B E"/><path d="M9279 18269h2973c253 0-114-722-1039-1000-926-277-2226 729-1934 1000z" class="B H"/><g class="E B"><path d="M10446 18269c-20-80-46-156-75-231-30-74-64-146-105-214-40-69-90-131-144-190l-41-43-46-39c-29-28-65-47-97-74 75 32 150 71 211 129 62 55 116 120 158 192 85 143 136 306 139 470z"/><path d="M10094 17581a7895.9 7895.9 0 0 0-240 137c-78 47-156 95-229 148-74 52-145 109-207 173-61 66-117 139-139 230 3-94 51-183 110-255 60-73 132-134 207-188 153-107 321-190 498-245z"/></g><path d="M14797 16485l-214 2691h-1480l-214-2691z" class="B D"/><path d="M14924 16634h-2175v-392h2175z" class="B G"/><path d="M14775 16242h-1877l109-441h1659z" class="B H"/><path d="M14357 17854c0 349-230 633-514 633s-514-284-514-633 230-633 514-633 514 284 514 633zm-252-8182c-94-142-146-302-146-471 0-597 655-1081 1463-1081 809 0 1464 484 1464 1081s-655 1081-1464 1081c-391 0-747-114-1009-299l-504 128 196-439z" class="F B"/><path d="M14105 9672c-89-131-145-286-151-446-5-159 34-320 115-458 80-140 194-257 322-351 129-96 274-167 426-218 151-51 309-81 468-94 160-12 321-2 478 23 158 27 313 74 458 143s281 159 395 273c114 113 206 252 255 408 49 155 52 326 5 481-46 157-136 297-249 412-113 116-248 208-392 278-289 140-615 191-933 172-318-20-635-117-896-303l10 1-506 123-11 3 5-10 201-437zm-192 441h0l-6-7 503-134 5-1 4 3c260 178 572 270 885 286 157 10 314-3 468-31 153-29 305-75 445-145 139-69 270-158 378-270 108-111 193-245 235-393 45-148 40-308-5-455-46-147-133-280-242-389-109-110-241-198-381-266-141-68-292-114-446-140-154-27-311-36-468-26-156 10-311 38-460 87-150 47-293 116-420 207s-239 205-321 339-124 291-123 448c3 158 55 313 141 446l-192 441zm2036-912c0 83 68 151 152 151 83 0 151-68 151-151 0-84-68-152-151-152-84 0-152 68-152 152zm-678 0a150.9 150.9 0 0 0 151 151c84 0 152-68 152-151 0-84-68-152-152-152s-151 68-151 152zm-679 0c0 83 68 151 152 151s152-68 152-151c0-84-68-152-152-152s-152 68-152 152z" class="E B"/><defs ><path id="B" d="M25008 8335c0 84-69 152-153 152s-152-68-152-152c0-85 68-153 152-153s153 68 153 153z"/></defs></svg>