<svg xmlns="http://www.w3.org/2000/svg" width="67" height="111" shape-rendering="geometricPrecision" image-rendering="optimizeQuality" fill-rule="evenodd" viewBox="0 0 202 332" xmlns:v="https://vecta.io/nano"><path d="M105 79c-8 0-15 13-15 29 0 17 7 30 15 30 7 0 14-13 14-30 0-16-7-29-14-29zM56 39c29 0 42 2 42 24h14c0-39-32-39-56-39-29 0-41-2-41-24H0c0 39 32 39 56 39zm76 24c1 4 2 9 2 14v63c0 18-11 32-24 36v51c0 3-2 6-6 6-3 0-5-3-5-6v-51c-13-4-23-18-23-36V77c0-5 0-10 2-14-40 11-71 47-71 91v84c0 52 43 94 94 94h7c52 0 94-42 94-94v-84c0-44-30-80-70-91z"/></svg>