<svg xmlns="http://www.w3.org/2000/svg" xmlns:xlink="http://www.w3.org/1999/xlink" width="325" height="339" shape-rendering="geometricPrecision" image-rendering="optimizeQuality" fill-rule="evenodd" viewBox="0 0 35047 36579" xmlns:v="https://vecta.io/nano"><style><![CDATA[.B{fill-opacity:.6}.C{fill:#ebebeb}.D{fill:#263138}.E{fill:#0060fa}.F{fill:#fff}.G{fill:#445964}.H{fill:#36464f}.I{fill:#ffdab9}.J{fill:#a5a5a5}.K{fill-rule:nonzero}.L{fill:#dbdbdb}.M{stroke-width:449.34}]]></style><g class="C K"><path d="M2649 14260c0-69 9-253 9-331 0-337-120-489-433-498-148-9-235-97-235-221s87-212 235-221c313-14 433-161 433-502 0-78-9-262-9-332 0-446 188-732 902-888 143-33 253 55 253 188 0 111-73 171-128 189-447 138-512 281-512 594 0 92 10 244 10 341 0 359-175 534-479 631 308 101 479 272 479 631 0 97-10 249-10 341 0 313 65 456 512 594 55 18 128 78 128 189 0 133-110 221-253 189-714-157-902-443-902-894zm2698-2105c0 70-9 254-9 332 0 341 124 488 438 502 142 9 230 97 230 221s-88 212-230 221c-314 9-438 161-438 498 0 78 9 262 9 331 0 451-189 737-902 894-143 32-254-56-254-189 0-111 74-171 134-189 442-138 506-281 506-594 0-92-9-244-9-341 0-359 175-534 479-631-308-101-479-272-479-631 0-97 9-249 9-341 0-313-64-456-506-594-60-18-134-78-134-189 0-133 111-221 254-188 713 156 902 442 902 888zm8870-3892c107 112 107 279 0 386-56 51-120 77-189 77-72 0-141-26-197-77l-1204-1222c-13-4-17-13-22-26-4-4-13-8-13-8-8-13-8-21-12-34-9-5-13-13-13-18-5-8-5-21-9-25 0-13-8-17-8-22v-30c0-8-5-12-5-25 0-5 5-18 5-22v-30c0-8 8-13 8-17 4-13 4-21 9-34 0-5 4-5 4-9 9-13 13-30 21-38 0 0 0-9 9-9 4-9 13-21 26-30l1204-1222c107-103 283-103 386 0a272.2 272.2 0 0 1 0 386l-1016 1025 1016 1024zm1093 137l1050-2499c52-120 189-176 313-124 116 47 172 189 120 304l-1050 2504c-39 90-129 141-219 141-25 0-59-4-85-17-124-47-180-189-129-309zm3558-1007s0 4-4 4c-9 9-18 22-30 30l-1205 1222c-51 51-124 77-193 77-73 0-137-26-193-77-107-107-107-274 0-386l1016-1024-1016-1025a272.2 272.2 0 0 1 0-386c103-103 279-103 386 0l1205 1222c12 9 21 21 30 30 4 0 4 9 4 9 9 17 17 25 21 38 0 4 5 4 5 9 4 13 4 21 13 38 0 5 4 5 4 13v30c0 4 4 17 4 22 0 4-4 17-4 21v34c0 5-4 5-4 9-9 17-9 30-13 38 0 5-5 5-5 13-4 9-12 22-21 39zm12036 16944l1104-23 544-9 540-5-36 37-5-924 41 41-1094-5-1094-14 23-22-11 457-12 467zm-11-457h0l-11-467v-23h22l1094-13 1094-6h42v42l-5 924v37h-37l-553-4-550-10-1085-23-11-457zm1232 1623l1103-23 544-9 541-5-37 37-4-925 41 42-1094-5-1094-14 23-23-11 458-12 467zm-12-457h0l-11-468v-22h23l1094-14 1094-5h41v41l-4 925-1 37h-36l-553-5-551-9-1084-23-12-457z"/><use xlink:href="#B"/><use xlink:href="#B" x="-28198"/><path d="M1486 4746l1104-23 543-9 541-5-37 37-4-925 41 41-1094-5c-365 0-729-9-1094-13l23-23-11 458-12 467zm-12-458h0l-10-467-1-22h23l1094-14 1094-5h41v41l-4 925v37h-37l-553-5-551-9-1084-23-12-458zM266 5912l1103-23 544-10 540-4-36 37-5-925 41 41-1094-5c-364 0-729-9-1093-13l22-23-11 457-11 468zm-12-458h0l-11-467v-22l23-1 1093-13 1094-5h42v41l-5 925v37l-37-1c-184-1-369 0-553-4l-550-9-1084-23-12-458zm31871-707l1103-23 544-9 541-5-37 37-4-925 41 41-1094-5c-365 0-729-9-1094-13l23-23-11 458-12 467zm-12-458h0l-11-467v-22h23l1094-14 1094-5h41v41l-4 925-1 37h-36l-553-5-551-9-1084-23-12-458zm-11832 6659l-1103 23-544 9-541 5 37-37 5 924-42-41 1094 5 1094 14-22 22 11-457 11-467zm12 457h0l11 467v23h-23l-1094 14-1094 5h-41v-42l5-924v-37h36l554 5 550 9 1084 23 12 457zm-1232-1623l-1104 23-543 9-541 5 37-37 4 925-41-42 1094 6 1094 13-23 23 11-458 12-467zm12 458h0l10 467v22h-22l-1094 14-1094 5h-42l1-41 4-925v-37h37l553 5 550 9 1085 23 12 458z"/></g><path fill="none" stroke="#c6c6c6" d="M31626 12329V0" class="M"/><g class="K"><path d="M28205 15626l275 605h6292l274-605-2678-1854h-1484z" class="C"/><path d="M30698 11986l186 1786h1484l186-1786zm-2492 3641l275 604h6291l275-604z" class="L"/></g><path fill="none" stroke="#c6c6c6" d="M23726 7899V0" class="M"/><g class="K"><path d="M20306 11197l275 604h6291l275-604-2679-1854h-1484z" class="C"/><path d="M22798 7556l186 1787h1484l186-1787zm-2492 3641l275 605h6292l274-605z" class="L"/></g><g fill="none" stroke="#ebebeb" class="M"><path d="M3590 33632V23250l-2209-3014v-5646m197-193c0 108-88 196-197 196-108 0-196-88-196-196s88-196 196-196c109 0 197 88 197 196m1443 19235V23614L812 20600v-3945"/><path d="M1009 16462c0 109-88 196-197 196a195.7 195.7 0 0 1-196-196c0-108 88-196 196-196 109 0 197 88 197 196m3129 17170V19883m196-196c0 108-88 196-196 196a196 196 0 1 1 0-392c108 0 196 88 196 196m331 13945v-6987l1500-2828v-5070"/><path d="M6361 18550c0 109-88 197-196 197-109 0-197-88-197-197 0-108 88-196 197-196 108 0 196 88 196 196M5190 33632v-6685l1768-3127v-3339"/><path d="M7154 20285c0 108-88 196-196 196-109 0-197-88-197-196s88-196 197-196c108 0 196 88 196 196m23835 13347v-5425l2208-3014v-3167"/><path d="M33001 21833c0 108 88 196 196 196a195.7 195.7 0 0 0 196-196 195 195 0 0 0-196-196 195.7 195.7 0 0 0-196 196m-1444 11799v-5061l2209-3014v-1466"/><path d="M33570 23898a196 196 0 1 0 392 0c0-108-88-196-196-196s-196 88-196 196m-3129 9734v-8791m-197-197c0 109 88 197 197 197 108 0 196-88 196-197 0-108-88-196-196-196-109 0-197 88-197 196m-331 8988v-4509l-1499-2828v-5070m-197-196c0 108 88 196 197 196 108 0 196-88 196-196s-88-196-196-196c-109 0-197 88-197 196m1172 12603v-4207l-1768-3126v-3339"/><path d="M27425 22764c0 108 88 196 196 196s196-88 196-196c0-109-88-197-196-197s-196 88-196 197"/></g><g class="K"><path d="M33941 35251c0 734-7455 1328-16652 1328-9196 0-16651-594-16651-1328 0-733 7455-1327 16651-1327 9197 0 16652 594 16652 1327z" class="C"/><path d="M1133 33646h10007L9144 22039H1661z" class="L"/><path d="M1133 33646h877l492-11607h-841z" class="J"/><path d="M0 33646l4322-20 4323-8 8644-13 8645 13 4322 8 4322 20-4322 20-4322 7-8645 14-8644-14-4323-7z" class="D"/><path d="M18696 33930h-593v-388h593zm770-26h-594v-388h594zm769-26h-593v-387h593zm770-25h-594v-388h594zm769-26h-593v-387h593zm770-26h-594v-387h594zm770-25h-594v-388h594zm769-26h-593v-387h593zm770-25h-594v-388h594z" class="G"/><path d="M24998 34152h-7041v-471l7041-196z" class="H"/><path d="M31870 32293H20247l1848-8653h11624z" class="G"/><path d="M32300 32293H20677l1848-8653h11624z" class="H"/><path d="M28340 28147c-63 397-436 719-833 719s-668-322-605-719c63-396 436-718 833-718s667 322 605 718zm-1459-2858l-280 1313h-254l280-1313zm541 0l-280 1313h-255l280-1313zm540 0l-280 1313h-254l281-1313zm541 0l-280 1313h-254l280-1313zm541 0l-280 1313h-254l280-1313zm541 0l-280 1313h-255l280-1313z" class="D"/><g class="G"><path d="M28848 34553h-5717v-444l5717-185z"/><path d="M30402 34552h-3070l-1848-4848h3069z"/></g><path d="M30907 34552h-3069l-1849-4848h3069z" class="D"/><path d="M19254 34671h-5894c-503 0 225-1432 2061-1982 1835-549 4412 1445 3833 1982z" class="H"/><g class="D"><path d="M16941 34671c4-162 34-324 82-480 47-157 115-307 199-449 83-141 190-269 312-379 119-115 266-194 413-259-64 51-136 87-193 144l-92 76-83 85c-108 115-208 239-287 376-82 135-150 279-208 427-57 149-107 301-143 459z"/><path d="M17640 33308c175 55 343 128 507 209a3442.5 3442.5 0 0 1 474 282c150 107 293 227 411 372 58 72 111 149 152 233 39 85 68 175 70 267a803 803 0 0 0-105-248c-47-76-103-146-165-210-124-129-263-243-411-347-146-106-300-200-456-293-78-47-157-91-237-134-79-46-160-87-240-131zM9019 16632c-281-544-1288-1674-2486-1069-1710 863-1012 4425-1614 5760-1091 2419-608 4384 816 4327 1596-63 2613-2073 1600-5540-634-2168-285-3302 167-3357 452-54 840 429 840 429l677-550z"/><path d="M8898 16432c-162-244-355-467-573-667-220-198-475-365-764-459-287-98-610-105-903-13-290 91-561 248-777 465-216 218-370 487-473 768-102 282-163 575-198 868-63 588-36 1177 32 1758-4-585 13-1169 96-1740 49-284 111-566 216-830 102-264 246-512 444-708 194-199 442-344 707-432 262-91 549-89 819-13s523 220 749 398c116 86 223 184 328 285 102 103 201 209 297 320zm-1883 2475c77 350 192 691 293 1034l306 1027c93 344 179 690 238 1039 60 349 99 702 90 1052-6 350-60 700-193 1019-136 315-339 614-578 866-242 251-538 452-870 568-166 59-339 98-516 112-88 8-177 9-266 4-88-6-178-14-262-45 165 72 351 86 530 85 181-2 363-30 538-79 176-51 344-126 502-219 158-94 303-208 435-335s251-268 355-418l77-114 71-117c47-79 91-162 128-247 148-341 205-712 215-1076 9-733-159-1446-370-2131-107-344-229-681-354-1017-127-335-257-668-369-1008z"/></g><path d="M9125 16614c-24-167-181-359-294-370-112-10-846 471-879 686-32 216 353 334 353 334l820-650z" class="E"/><g class="I"><path d="M9197 24303c2436 1471 5857 2987 7059 2764 969-180 4601-2821 4783-2973 447-377-1685-3750-2225-3432-680 399-3273 2918-3567 2919-307-1-2501-294-5018-658-1739-253-2544 467-1032 1380z"/><path d="M19424 19519c582-297 1226-685 1906-762 680-78 1363 743 1397 999 34 257-9 1890-687 1981-679 90-433-1193-477-1331-45-137-94-314-220-283-127 30-2225 1391-2225 1391l306-1995z"/><path d="M19480 19607c39-5 1761-964 2441-1042s1363 743 1397 1000c34 256-9 1890-687 1980-679 91-433-1193-477-1330-44-138-94-314-220-284-127 30-2225 1391-2225 1391l-229-1715z"/></g><path d="M22389 21490c-98-96-134-256-166-386-36-142-43-291-33-436 8-127 45-257 32-384-11-118-72-252-142-347-65-88-160-42-242 0-120 61-235 140-347 215-121 82-240 166-360 250-123 86-254 168-365 269-8 7 0 23 11 17 113-57 217-132 323-200l365-230c114-70 225-146 340-215 41-24 121-82 172-77 53 5 96 129 113 168 53 126 44 239 25 370-18 126-27 254-21 381 7 118 27 242 76 350 46 104 131 182 200 270 10 13 30-4 19-15z" class="D"/><path d="M17565 21674l1998-2356c695-788 3822-2579 4276-2689s747 813-1367 2093c-1114 675-1235 1380-1162 1753 73 372 524 1024 1154 923 629-101 916-1077 1482-1257 567-180 325 935-2 1604-328 669-1004 1275-1523 1552-519 278-2112 1231-2112 1231l-2744-2854z" class="I"/><path d="M23188 20850c-213 216-451 490-762 543-322 56-560-126-746-370-187-246-315-537-282-851 30-283 161-547 339-766 219-271 493-487 779-683 13-9-2-27-15-19-273 168-1128 659-1202 1481-31 336 106 614 294 867 173 232 410 448 719 432 377-20 658-366 896-628 10-12-9-18-20-6z" class="D"/><path d="M14935 23322l-2821 2678s-1874-832-3283-1834 45-1622 2371-1379c2325 244 3733 535 3733 535z" class="E"/><path d="M11441 25680l-37-18c0-6-1-11-1-17-18-225-46-454-133-661-44-103-108-199-200-259-45-30-98-48-152-59-53-8-110-4-166-5-227 6-449 60-663 133-59 20-117 43-175 67-11-7-22-13-33-19 66-28 131-53 197-77 217-75 442-129 673-137 57 0 114-3 173 6 58 11 115 30 165 63 100 65 167 168 213 273 90 215 119 446 137 672 1 13 2 26 2 38zm1931-2621h0l-12 34c-103 275-233 551-458 745-114 91-251 156-397 172-145 17-293-19-425-81-267-128-486-336-694-545-202-206-394-422-594-630h-1c-5-1-10-2-15-2l599 643c208 211 426 420 697 553 134 63 286 100 436 83 150-16 291-83 409-176 230-198 360-478 466-753 5-14 10-26 14-39-8-2-17-4-25-4zm-1489 2834h0l231 106 4-3c-78-36-157-70-235-103z" class="F"/><path d="M11416 25508c569-619 1182-1198 1805-1765 176-160 356-316 540-468 5-4 12 2 7 7-290 303-593 594-894 887l-918 870-528 480c-8 7-19-3-12-11z" class="D"/><path fill-opacity=".1" d="M13286 24886l-1172 1113s-1874-831-3283-1833c-573-408-672-753-432-1001l4887 1721z"/><path d="M13097 33660H3667s2048-7910 3944-10137c42-51 86-100 130-145 9-10 17-18 26-27 163-171 334-299 506-392 34-18 67-34 102-50 730-335 1501-57 2057 419 177 151 2176 2752 2353 3743 152 876-439 1816-439 1816l751 4773z" class="E"/><path d="M10931 28548c-400 45-802 104-1191 207-194 51-384 112-574 176-95 32-190 61-286 89-98 29-204 57-306 61-10 0-9 14 0 14 100 2 196 4 296-8 95-11 189-32 281-55 198-51 392-110 589-163 396-105 793-211 1196-288 19-3 14-35-5-33zm996 348c-330-31-666-47-997-40-167 4-331 17-497 34l-237 29c-87 12-172 36-259 46-9 1-9 15 1 15 82-8 166-2 248-5l249-8 498-17 995-27c18 0 16-26-1-27z" class="D"/><path fill-opacity=".1" d="M10027 27593c63 44 87 117 55 167-18 25-43 39-73 41-32 3-66-5-98-25l-707-483c-6-1-9-5-13-10-3-2-7-3-7-3-6-6-7-9-11-15-4-1-7-5-8-7-3-3-5-9-7-11-2-5-6-7-7-8-2-6-3-10-4-13-1-4-4-6-6-12 0-1 0-7-1-9-1-4-3-9-4-13s2-6 1-8c0-6-1-9-1-15 0-2 2-2 1-4 2-6 1-13 4-18 0 0-1-3 3-3 0-4 2-10 7-15l360-577c33-49 111-56 171-15 63 42 87 116 55 167l-305 485 595 404zm504 16l111-1125c5-54 58-84 121-66 58 15 102 75 96 127l-110 1127c-5 41-37 67-77 70-12 1-27 1-41-4-61-15-106-74-100-129zm1433-577s0 2-1 2c-3 4-5 10-9 14l-361 578c-15 24-44 38-74 41-33 3-65-6-97-26-62-42-86-115-54-167l304-485-595-404c-62-43-87-117-54-168 31-48 108-55 170-15l707 483c7 3 13 8 18 12 1-1 3 3 3 3 6 7 11 11 15 16 0 2 2 2 3 3 4 6 5 10 11 17 1 2 2 1 4 5 1 4 3 9 4 13 1 2 4 7 5 9 0 2 0 8 1 10 2 5 3 9 5 15 1 2-1 2-1 4-1 7 1 13 0 17 1 2-1 2 0 6-1 3-3 9-4 17z"/><path d="M12548 30167c-14 8-27 14-41 21l-78 36c-27 12-55 19-82 29-54 22-113 28-169 41-115 10-233 14-346-23-57-18-107-49-154-85-45-38-85-81-117-131-66-97-107-206-140-316-61-222-85-452-98-680-2-39-3-79-4-119-1-15-2-29-2-44-11-403 9-804 30-1205l68-1365c4-200 5-400-7-600 0-9-1-18-1-27l-4-54c-18-225-46-454-133-661-44-103-108-199-200-259-45-30-98-48-152-59-53-8-110-4-166-5-227 6-449 60-663 133-145 51-286 111-425 177l-32 15c-260 126-512 271-760 419-392 233-777 478-1182 689-138 71-277 139-420 198-6 3-11 5-17 8-62 25-125 49-188 72-216 76-441 129-671 136-126 3-253-14-373-49 2-6 4-11 6-16 119 33 243 49 367 45 226-9 450-61 663-138 62-22 124-46 185-71 6-2 12-5 18-7 143-61 282-128 420-199 402-212 786-457 1178-692 242-144 487-287 742-411 10-5 20-11 31-16 146-70 294-134 447-189 217-75 442-129 673-137 57 0 114-3 173 6 58 11 115 30 165 63 100 65 167 168 213 273 90 215 119 446 137 672 2 24 3 48 4 72 2 9 2 17 2 26 11 196 11 392 8 587-9 457-41 911-65 1367-21 383-41 766-33 1149v45l6 170c13 226 35 453 95 671 32 108 71 214 134 306 31 47 69 88 110 124 44 33 90 63 143 79 104 35 221 33 330 23 55-13 111-18 164-39 26-10 53-18 79-28l76-35c17-8 33-16 50-26l6 34zm229-3130h0c-184 182-355 377-518 577-320 395-612 812-904 1229-13 17-25 35-38 53l-110 155c-203 287-408 574-627 850-5 8-11 16-18 23-144 181-292 357-451 525-202 216-421 417-665 584-60 43-121 84-186 119-63 40-130 71-195 105-130 68-278 95-420 65-142-33-269-111-378-210-109-96-205-210-292-329-172-239-316-499-449-764-265-530-491-1079-724-1625-235-544-470-1092-765-1609-29-51-59-100-89-150l-18 43 75 126c292 515 525 1062 759 1607 235 544 461 1094 728 1625 135 265 279 526 454 768 89 120 185 236 298 335 111 100 244 183 394 216 150 32 309 2 441-68 67-34 135-66 198-106 65-37 127-78 188-120 245-171 465-374 669-590 157-168 306-344 448-524 7-8 12-16 18-23 220-279 426-568 630-857l89-127 36-52c300-427 595-855 923-1260 159-195 325-386 505-565-2-8-3-17-6-26zm-4527 5968h0c-369-465-731-937-1130-1377-399-437-841-854-1382-1112-136-59-278-110-424-137-73-18-147-23-221-33-75-3-149-10-223-4-82 1-163 9-244 21-2 5-3 10-5 15 83-13 166-20 249-21 74-5 148 2 222 5 73 10 147 15 218 34 145 27 285 80 420 138 535 257 976 673 1372 1110 398 439 759 912 1126 1377l520 640h38c-184-215-360-436-536-656zm4531-1355h0l-169 455c-189 521-372 1045-587 1556h41c214-507 396-1026 585-1542l143-388-13-81zm-862 829h0c-8-43-14-87-23-130l-30-129c-17-86-45-170-69-256-100-338-247-661-422-967-219-385-486-739-775-1073-7-8-14-15-20-23-166-191-338-374-513-555-493-503-1012-978-1507-1476-248-250-490-504-719-770l-170-201c-57-68-111-136-162-207-91-126-172-260-239-400-4-6-8-13-10-20-7-11-12-23-17-33-145-318-222-668-226-1019-6-350 55-701 159-1036 12-41 26-82 40-122-7 10-12 20-19 30-11 30-20 60-30 89-105 336-168 687-164 1039 3 353 78 705 224 1026 5 12 10 23 15 33a84.2 84.2 0 0 0 11 21c67 141 148 276 239 404 51 72 107 140 163 208 55 68 111 136 169 202 230 267 472 522 719 772l1504 1478c176 182 350 369 515 560 8 8 14 15 20 23 287 333 550 684 767 1065 172 305 319 625 418 961 23 86 49 169 67 254l30 128 23 130c34 172 45 346 29 520-19 229-90 450-194 656h40c100-204 169-424 187-653 17-177 5-356-30-529zm466-6358h0c-15-8-31-15-46-23-294-140-594-265-896-384l-36-15-787-306c-287-115-573-233-851-369-35-17-70-34-105-53-11-5-21-10-33-17-229-118-450-250-652-410-243-188-456-420-598-693-71-135-126-281-155-430-28-138-34-281-23-421-12 7-23 13-35 21-8 135-2 272 26 405 31 154 87 301 160 440 144 277 362 511 607 701 199 156 416 286 639 403 10 5 21 11 32 16 41 22 83 42 125 63 279 136 566 254 853 368l798 309c13 5 24 10 37 14 299 118 595 240 885 379 24 11 49 24 74 35-7-10-13-22-19-33z" class="F"/><g class="I"><path d="M7268 23726c-1635 1684-5567 8045-4356 9255 1221 1219 7977 453 9842 95 623-119-874-4224-1545-4320-559-81-3861 559-3975 415-93-118 571-1656 1308-4131 850-2854-553-2058-1274-1314zm7141 4481c1405 18 1763 238 2957-376 784-403 1377-76 851 674-861 1227-2679 1584-3345 1527l-463-1825z"/><path d="M10552 28974s1677-623 3176-752c1037-89 3315-31 5116 2499 428 601 611 1759-443 1032-749-516-1068-1070-1558-1291 0 0 59 1501-559 1906-277 181-1042 657-1691 942 0 0-100-124-204-300 0 0-613 323-1635 66l-2202-4102z"/><path d="M14732 28295c440 323 1361 1021 1916 1855 616 926 1554 2875 866 3323-505 329-928-384-928-384s218 887-303 1084c-475 180-769-391-769-391s39 561-451 646c-590 102-576-1091-1263-1504-154-92 932-4629 932-4629z"/></g><g class="D"><path d="M15561 30638c364 371 975 1425 1036 2430 1 23-15 36-21 16-302-1093-792-2048-1024-2440-3-6 5-10 9-6zm-916 649c281 353 862 1468 888 2488 1 23-17 35-21 14-268-1154-668-2091-877-2497-2-5 6-9 10-5zm2200-834c428 201 686 465 1025 786 167 158 337 314 522 454 167 126 414 317 632 192 121-70 144-227 138-354-5-143-38-285-103-412-3-7 8-13 11-6 61 114 110 233 135 360 24 114 36 245-12 356-104 237-401 225-597 125-117-59-224-143-327-224-99-79-194-163-287-249-192-176-372-364-562-542-207-197-356-300-584-472-8-6 1-18 9-14z"/><path d="M17544 32174c-78-273-544-1434-710-1711-4-8 6-14 11-8 299 385 726 1350 814 1652 87 299 182 677 135 988-72 469-396 510-515 515-141 7-275-43-388-126-127-92-237-259-310-394-4-8 6-15 11-8 134 209 376 433 636 438 112 2 232-31 313-112 96-96 124-236 132-366 20-294-50-587-129-868z"/><path d="M15533 33775c57 66 162 281 369 355 151 54 317 64 454-31 135-94 203-244 234-401 18-88 5-484-8-604-1-10 11-12 12-3 36 217 75 453 44 656-25 168-106 341-250 439-150 102-348 116-506 27-79-44-317-253-368-431-1-4 17-10 19-7zm-1676-928c67 55 121 129 174 198 56 73 109 149 161 225 103 153 187 323 256 494 71 173 131 363 268 497 135 132 340 181 511 91 89-46 156-121 197-213 41-94 77-211 78-315 0-9 14-9 13 1-7 99 5 195-21 294-24 86-66 169-130 232-131 131-333 166-505 106-190-66-312-235-394-410-91-195-160-399-260-591-52-100-104-202-164-299-62-100-141-194-196-298-5-9 4-19 12-12z"/><path d="M13248 33163c149 10 498 5 779-41 8-2 16 22 8 25-109 40-326 63-391 66-130 6-269-3-396-36-7-2-8-14 0-14zm-9394-2582c405-265 836-491 1274-695 434-202 888-357 1347-492 262-78 527-143 792-209 8-2 11 10 3 12-463 130-916 300-1360 481l-1317 566c-246 112-487 235-730 354-11 6-19-10-9-17z"/></g><path d="M3910 27707l3889-54s760-1904 1069-3605c308-1701-1100-1207-2594 591-1495 1799-2364 3068-2364 3068z" class="E"/><path d="M8493 25603c-4 12-7 24-11 37-260 158-521 313-792 454-138 71-277 139-420 198-6 3-11 5-17 8-62 25-125 49-188 72-216 76-441 129-671 136-221 5-445-50-638-159-6-4-13-7-20-11l-62-38c-162-105-302-243-421-395 2-3 4-6 6-8 111 138 238 265 384 364 30 22 60 41 92 58 3 2 5 4 9 6 196 113 424 169 650 163 226-9 450-61 663-138 62-22 124-46 185-71 6-2 12-5 18-7 143-61 282-128 420-199 276-146 545-308 813-470zm-2456 1182h0c-86-150-178-297-281-436-6-10-14-20-21-30-69-90-142-176-221-257-71-72-149-139-234-193-6 10-14 19-21 28 83 53 160 119 230 191 54 55 105 113 154 173 10 13 21 26 31 39 124 158 231 329 331 504 160 282 302 572 436 868l43-1c-137-301-282-599-447-886zm1804 315h0l-170-201c-57-68-111-136-162-207-91-126-172-260-239-400-4-6-8-13-10-20-7-11-12-23-17-33-145-318-222-668-226-1019-6-350 55-701 159-1036 78-251 180-495 299-730-4 2-7 4-10 8-118 231-219 472-298 719-105 336-168 687-164 1039 3 353 78 705 224 1026 5 12 10 23 15 33a84.2 84.2 0 0 0 11 21c67 141 148 276 239 404 51 72 107 140 163 208 55 68 111 136 169 202l125 142 9-23c-40-44-78-89-117-133zm540-3249h0c-71-135-126-281-155-430-25-124-32-250-27-376-10 4-21 7-33 12-5 123 3 248 28 369 31 154 87 301 160 440 111 211 263 398 439 559 2-11 4-22 7-34-168-156-313-337-419-540z" class="F"/><path d="M7639 27637c21 0 159-21 159-21 11-51 248-848 310-1022 125-353 272-700 413-1047 5-11 22-5 18 6l-278 899c28-42 56-84 82-127 55-88 103-180 153-270 5-8 18-2 15 7-41 125-107 244-178 354-31 48-67 92-104 135l-24 75c-59 174-360 1037-375 1037h-187c-11 0-14-26-4-26zm-3085-671c839-46 1683-34 2524-5 238 8 476 22 714 41 6 1 7 11 0 11-419 14-839 12-1260 11-421 0-843-4-1264-16l-713-26c-10 0-12-15-1-16z" class="D"/><path d="M8709 22990c29 166 751 1281 1505 1290 245 3 320-1337 320-1337l28-97 392-1368-1566-1141-227-152-180 857-14 67c-7 27-13 52-18 78l-45 215c-11 55-22 109-31 167l-31 173c-95 577-144 1177-133 1248z" class="I"/><path d="M8981 21042c331 1126 1185 1628 1581 1804l392-1368-1566-1141-227-152-180 857z" class="D"/><path d="M12694 18743c705 2395-649 3088-1166 3239-469 138-2083 546-3032-1763-948-2309-58-3394 998-3765s2495-106 3200 2289z" class="I"/><g class="D"><path d="M12235 18429c-59 9-114 7-172 10-66 3-119 12-178-24-32-19-44-72-28-104 37-76 117-100 196-107 86-7 155 9 226 58 69 47 33 156-44 167zm-1613 450c55-22 102-51 153-78 59-31 109-49 142-110 17-33 1-84-29-105-69-46-151-27-223 7-78 37-129 86-166 164-36 75 51 151 123 122zm443 498c-3-6-10 12-8 18 54 162 87 356-44 453-4 4-1 12 4 9 173-78 125-335 48-480z"/><path d="M10869 19250c-268 58-133 590 116 536 244-52 109-584-116-536z"/><path d="M10772 19305c-39 41-71 106-125 126-63 23-127-20-182-63-6-5-10 1-8 8 24 102 90 197 203 184 103-11 152-119 152-228-1-20-24-44-40-27zm1258-213c0-7 15 5 16 11 35 167 104 352 267 370 5 0 6 9 1 9-189 19-277-227-284-390z"/><path d="M12135 18883c260-85 412 442 171 522-238 77-389-450-171-522z"/><path d="M12255 18887c49 16 105 54 156 43 59-12 85-82 106-147 2-7 8-4 10 3 32 100 29 215-63 262-83 43-173-25-225-118-10-17-4-50 16-43zm-827 1883c48 31 98 76 160 69 59-7 121-47 170-79 5-3 12 1 9 7-30 73-113 132-193 134-78 2-128-55-161-120-4-9 8-16 15-11zm548-830s99 236 130 352c3 11-396 210-656-26-11-9 0-25 13-20 182 71 359 55 541 10-1-35-184-399-166-406 62-22 198-12 279-10-193-498-464-962-648-1460-6-18 19-31 28-16 319 466 553 1034 765 1543 27 64-235 40-286 33z"/><path d="M11972 20295s-52 167-170 262c-43 35-94 61-155 65-126 10-166-95-176-192-9-81 4-157 4-157s222 99 497 22z"/></g><path fill="#ff99ba" d="M11802 20557c-43 35-94 61-155 65-126 10-166-95-176-192 128-31 279 11 331 127z"/><g class="D"><path d="M8616 20521c498-353 421-927 421-927 624-410 895-1002 924-1062l-95 638c1510-570 1780-1852 1780-1852 596 415 755 720 857 868 0 0-159-960-767-1513-743-678-1539-382-1539-382s-1278-145-2037 1048c-818 1287 456 3182 456 3182z"/><path d="M11007 18700c-224 184-484 328-749 437-2 1-3-2-1-3 418-204 772-505 1023-898 106-167 191-344 253-532 64-196 120-425 101-632-1-16 23-18 24-3 21 219 37 422-14 638-48 206-135 405-254 579-107 156-237 294-383 414z"/></g><g class="E"><path d="M10935 20251c-323 50-652-122-787-436-159-371 13-803 385-962 372-160 803 13 963 384v1c159 371-14 803-385 962-58 25-116 41-176 51zm-212-1352h0c-51 8-102 22-151 44-322 138-472 512-334 834 138 321 512 471 834 333s471-512 334-834c-117-272-403-421-683-377zm1830 890c-277 44-573-201-676-569-52-186-48-376 12-535 61-165 173-278 317-318 143-41 298-2 436 107 133 106 235 266 287 452 108 389-39 772-329 853-15 4-31 8-47 10zm-285-1335h0c-12 1-24 4-36 7-112 32-202 123-252 258-51 140-55 308-8 475 94 337 363 558 602 491 238-67 354-395 260-732-46-167-136-309-253-402-101-80-210-114-313-97z"/><path d="M11495 19326l-81-56c82-119 296-310 520-173l-51 84c-201-123-381 134-388 145zm-3095 1061l-96-20c9-45 96-440 297-533 189-87 1487-322 1542-332l18 97c-373 67-1373 257-1518 324-133 61-221 356-243 464z"/></g><path d="M8942 20121s-688-656-996-395c-308 260 317 1286 755 1355 437 69 509-334 509-334l-268-626z" class="I"/><path d="M8132 20015c-6 1-6 11 0 12 309 58 513 292 673 545-106-89-233-123-354 6-6 7 3 17 11 14 112-49 200-45 298 32 69 55 124 131 180 200 18 22 62-1 46-28-1-2-2-4-4-6-66-365-452-817-850-775zm267 3150c99 127 201 251 308 370 106 120 216 237 331 347 230 218 477 428 766 550 143 60 298 96 449 74 78-10 140-33 189-91 48-54 82-125 109-197 52-147 74-306 86-465 13-159 15-320-3-479 36 157 43 319 44 481-4 161-19 324-67 483-24 79-57 158-116 225-29 33-63 63-105 82-43 20-84 29-126 36-169 27-339-10-492-74-152-65-290-155-418-254-129-100-250-209-361-327-223-234-423-488-594-761z" class="D"/><path d="M31711 5672v4935h-7737V5672z" class="F"/><path d="M31759 10655h-7834V5623h7834v5032zm-7736-97h0 7639V5720h-7639v4838z" class="C"/><path d="M31711 5672v933h-7737v-933z" class="G"/><path d="M31759 6654h-7834V5623h7834v1031zm-7736-98h0 7639v-836h-7639v836z" class="C"/><path d="M24850 6145c0 130-105 235-235 235-129 0-235-105-235-235s106-235 235-235c130 0 235 105 235 235z" class="E"/><path d="M25809 6145c0 130-105 235-235 235-129 0-234-105-234-235s105-235 234-235c130 0 235 105 235 235z" class="C"/><path d="M26768 6145c0 130-105 235-234 235-130 0-235-105-235-235s105-235 235-235c129 0 234 105 234 235z" class="F"/><path d="M25309 8450c3-515 434-933 954-936 229 0 437 76 601 203 62 52 72 143 26 208-52 65-148 75-208 29-115-94-258-143-419-143-179 0-345 73-468 187-117 119-189 276-189 452 0 177 72 338 189 452 123 115 289 188 468 188 161 0 302-50 419-143 60-45 156-34 208 28 46 65 36 159-26 208-164 128-372 203-601 203-520 0-951-418-954-936zm2028 484c46-58 132-65 190-18 114 93 311 202 496 200 130 0 247-39 325-97 78-57 112-122 112-187 0-33-8-57-24-83-15-26-39-52-78-78-75-49-202-93-356-122h-5c-122-23-237-55-335-101-99-47-185-112-242-203-39-63-60-135-60-213 0-156 88-291 208-380 122-88 281-138 450-138 249 0 434 123 566 208 60 42 78 125 37 185-39 62-122 81-185 39-132-88-260-166-418-166-117 0-221 36-291 88-71 52-99 109-99 164 0 31 5 52 18 72 13 21 36 45 70 68 68 47 185 89 325 114h5c133 26 255 60 359 110 107 52 200 119 260 215 39 63 62 141 62 221 0 167-93 310-223 403-128 94-296 148-481 148-281-2-517-143-665-260-58-46-65-132-21-189zm1707 0c47-58 133-65 190-18 115 93 312 202 497 200 130 0 247-39 325-97 78-57 111-122 111-187 0-33-7-57-23-83s-39-52-78-78c-75-49-203-93-356-122h-5c-122-23-237-55-336-101-98-47-184-112-241-203-39-63-60-135-60-213 0-156 88-291 208-380 122-88 281-138 449-138 250 0 435 123 567 208 60 42 78 125 37 185-40 62-123 81-185 39-133-88-260-166-419-166-116 0-220 36-291 88-70 52-98 109-98 164 0 31 5 52 18 72 13 21 36 45 70 68 68 47 185 89 325 114h5c133 26 255 60 359 110 106 52 200 119 260 215 39 63 62 141 62 221 0 167-93 310-223 403-128 94-297 148-481 148-281-2-518-143-666-260-57-46-65-132-21-189z" class="C"/><path d="M7162 18165H2819v-1951h4343z" class="G"/><path d="M4111 17276h-180v319c0 44-37 80-82 80-44 0-81-36-81-80v-866c0-45 37-80 81-80h1 261c175 0 316 140 316 315 0 172-141 312-316 312zm-180-162h0 180c85 0 151-68 153-150-2-85-68-153-153-153h-180v303zm692 481v-866c0-45 35-80 81-80 45 0 82 35 82 80v352h380v-352c0-45 35-80 81-80 45 0 82 35 82 80v866c0 45-37 80-82 80-46 0-81-35-81-80v-352h-380v352c0 45-37 80-82 80-46 0-81-35-81-80zm1384-319h-181v319c0 44-37 80-82 80-44 0-81-36-81-80v-866c0-45 37-80 81-80h1 262c174 0 315 140 315 315 0 172-141 312-315 312zm-181-162h0 181c84 0 151-68 152-150-1-85-68-153-152-153h-181v303zm10513-6925v4935H8602v-4935z" class="F"/><path d="M16388 15173H8553v-5033h7835v5033zm-7737-98h0 7639v-4837H8651v4837z" class="C"/><path d="M16339 10189v933H8602v-933z" class="G"/><path d="M16388 11171H8553v-1031h7835v1031zm-7737-98h0 7639v-835H8651v835z" class="C"/><use xlink:href="#C" class="E"/><use xlink:href="#C" x="959" class="C"/><path d="M11397 10662c0 130-105 235-235 235s-235-105-235-235c0-129 105-235 235-235s235 106 235 235z" class="F"/><path d="M10047 12968c2-515 434-934 954-936 229 0 437 75 600 203 63 52 73 142 26 208-52 65-148 75-208 28-114-94-257-143-418-143-180 0-346 73-468 187-117 120-190 276-190 453 0 176 73 337 190 452 122 114 288 187 468 187 161 0 301-49 418-143 60-44 156-34 208 29 47 65 37 158-26 208-163 127-371 202-600 202-520 0-952-418-954-935zm2492 163h-369c-78 0-143-62-143-143 0-78 65-143 143-143h369v-361c0-83 66-148 149-148 80 0 148 65 148 148v361h369c78 0 143 65 143 143 0 81-65 143-143 143h-369v362c0 83-68 148-148 148-83 0-149-65-149-148v-362zm1612 0h-369c-78 0-143-62-143-143 0-78 65-143 143-143h369v-361c0-83 65-148 148-148 81 0 148 65 148 148v361h370c77 0 142 65 142 143 0 81-65 143-142 143h-370v362c0 83-67 148-148 148-83 0-148-65-148-148v-362z" class="C"/><path d="M30683 11301v9040H17780v-9040z" class="B F"/><path d="M30732 20389H17731v-9136h13001v9136zm-12903-97h0 12805v-8942H17829v8942z" class="B C"/><path d="M30683 11301v934H17780v-934z" class="B G"/><path d="M30732 12284H17731v-1031h13001v1031zm-12903-98h0 12805v-836H17829v836z" class="B C"/><path d="M18656 11775c0 130-105 235-235 235-129 0-234-105-234-235s105-235 234-235c130 0 235 105 235 235z" class="B E"/><path d="M19615 11775c0 130-105 235-234 235-130 0-235-105-235-235s105-235 235-235c129 0 234 105 234 235z" class="B C"/><path d="M20575 11775c0 130-106 235-235 235-130 0-235-105-235-235s105-235 235-235c129 0 235 105 235 235z" class="B F"/><path d="M19281 14274h-499v-183h499zm6087 0h-5724v-183h5724z" class="C B"/><path d="M26622 14274h-947v-183h947z" class="B E"/><path d="M28467 14274h-1639v-183h1639z" class="B J"/><path d="M19779 14761h-498v-182h498z" class="B C"/><path d="M23887 14761h-3756v-182h3756zm-655 1464h-3588v-182h3588z" class="J B"/><path d="M22648 15249h-2517v-182h2517z" class="B E"/><path d="M27268 15737h-960v-182h960zm-322-488h-4019v-182h4019z" class="J B"/><path d="M24442 16713h-4798v-183h4798zm4881-1952h-2600v-182h2600z" class="E B"/><path d="M26517 14761h-2394v-182h2394zm2234 488h-1616v-182h1616zm-8972 0h-498v-182h498z" class="C B"/><path d="M19281 15737h-499v-182h499z" class="B J"/><path d="M22593 15737h-2949v-182h2949zm4029 488h-3187v-182h3187z" class="C B"/><path d="M28856 16225h-2028v-182h2028zm-2780-488h-3183v-182h3183z" class="E B"/><path d="M19281 16225h-499v-182h499zm0 488h-499v-183h499z" class="C B"/><g class="E"><path d="M19090 13611c17 18 17 45 0 62-9 8-19 12-30 12-12 0-23-4-32-12l-192-195a7.8 7.8 0 0 1-4-4c0-1-2-2-2-2-1-2-1-3-2-5-1-1-2-2-2-3-1-1-1-3-1-4 0-2-2-3-2-3v-5-4-4-5c0-1 2-2 2-2 0-2 0-4 1-6 0 0 1 0 1-1 1-2 2-5 3-6 0 0 0-2 2-2 0-1 2-3 4-4l192-196c17-16 45-16 62 0a44.1 44.1 0 0 1 0 62l-163 164 163 163zm174 22l168-399c8-19 30-28 50-20 18 8 27 30 19 49l-168 400c-6 14-20 22-35 22-4 0-9 0-13-2-20-8-29-30-21-50zm569-161s0 1-1 1c-2 1-3 3-5 5l-193 195c-8 8-19 12-30 12-12 0-22-4-31-12-17-17-17-44 0-62l162-163-162-164a44.1 44.1 0 0 1 0-62c16-16 44-16 61 0l193 196c2 1 3 3 5 4 1 0 1 2 1 2l3 6c0 1 1 1 1 1 0 2 0 4 2 6v2 5c0 1 1 3 1 4 0 0-1 2-1 3v6 1c-2 3-2 5-2 6s-1 1-1 2c-1 1-2 4-3 6z" class="B"/><path d="M9986 10321H4716V8370h5270z"/></g><path d="M5476 9750v-865c0-46 35-81 81-81 45 0 82 35 82 81v352h380v-352c0-46 35-81 81-81 45 0 82 35 82 81v865c0 46-37 81-82 81-46 0-81-35-81-81v-352h-380v352c0 46-37 81-82 81-46 0-81-35-81-81zm1668-783h-233v783c0 46-36 81-81 81-44 0-81-35-81-81v-783h-231c-46 0-81-38-81-82 0-46 35-81 81-81h626c44 0 81 35 81 81 0 44-37 82-81 82zm1206-82v865c0 44-38 81-82 81-46 0-81-37-81-81v-617l-211 293c-16 22-40 34-66 34h-2-1c-27 0-52-12-68-34l-210-293v617c0 44-36 81-82 81-44 0-80-37-80-81v-865c0-44 36-81 80-81h5c23 0 50 12 64 34l292 405 292-405c16-22 40-34 66-34h2c44 2 82 37 82 81zm355 865v-865c0-44 35-81 80-81 46 0 83 37 83 81v783h397c43 0 81 37 81 82 0 44-38 81-81 81h-475-3-2c-45 0-80-37-80-81z" class="F"/><path d="M18403 20829h-2942v-1952h2942z" class="E"/><path d="M16260 20042c25 78 99 135 186 135 108 0 196-88 196-195v-564c0-44 35-78 79-78 43 0 78 34 78 78v564c0 195-159 353-353 353-157 0-290-103-336-245-14-42 10-86 50-98 43-14 87 9 100 50zm737 46c26-32 73-36 104-10 62 51 170 110 271 109 71 0 135-21 178-53 43-31 61-66 61-102 0-18-4-31-13-45-8-15-21-29-42-43-42-27-111-51-195-67h-3c-67-13-129-30-183-55-54-26-101-61-132-111-22-34-33-74-33-116 0-86 48-160 114-208 67-48 153-75 246-75 136 0 237 67 309 113 33 23 43 69 20 101-21 34-67 44-101 22-72-49-142-91-228-91-64 0-121 20-160 48-38 28-54 60-54 90 0 17 3 28 10 39 8 12 20 25 39 37 37 26 101 49 177 63h3c73 14 139 32 196 59 58 29 110 66 142 118 22 34 34 77 34 121 0 91-51 169-122 220-69 52-162 81-263 81-153-1-282-78-363-142-32-25-36-72-12-103z" class="F"/><g class="L B"><path d="M5462 32734s1806-832 1806-1948-2343-1834-2343-2706 1022-1385 1022-1385-1614 551-1614 1654 1545 1851 1693 2552c205 975-564 1833-564 1833z"/><path d="M5551 32734s-1806-655-1806-1532 2343-1442 2343-2127c0-686-1022-1089-1022-1089s1614 433 1614 1301c0 867-1774 1463-1901 2167-124 691 772 1280 772 1280z"/></g><path d="M6340 35539v268H4622v-268z" class="H"/><path d="M6340 35539v177H4622v-177z" class="D"/><path d="M2582 34818c203 286 563 490 968 414 57-11 115-27 174-50 80-31 161-73 243-128l-219-324c-44 31-87 55-129 74-409 185-668-138-719-211-235-331-320-1087-81-1378 16-22 85-56 362 3 51 12 109 24 174 42 73 21 116 33 157 34l7-194 19-194c-18-3-46-11-82-21-104-28-245-67-391-81-203-22-417 3-548 164-387 475-230 1435 65 1850z" class="H"/><path d="M3748 34730c-44 31-87 55-129 74l105 378c80-31 161-73 243-128l-219-324zm-683-1926l116 414c51 12 109 24 174 42 73 21 116 33 157 34l7-194 19-194c-18-3-46-11-82-21-104-28-245-67-391-81z" class="D"/><path d="M7767 32297s-206 1751-562 2489c-357 736-854 819-1162 819h-561-563c-309 0-805-83-1162-819-356-738-562-2489-562-2489h4572z" class="H"/><path d="M7523 33751c-36 162-75 321-118 471H3557c-43-150-82-309-118-471h4084zm-171 650c-26 83-53 163-82 235H3692c-29-72-56-152-82-235h3742zm259-1092l-45 235H3397c-17-80-32-159-46-235h4260z" class="G"/></g><defs ><path id="B" d="M29684 25503l1104-23 543-9 541-5-37 37-4-925 41 42-1094-5-1094-14 23-23-11 458-12 467zm-12-457h0l-10-468-1-22h23l1094-14 1094-5h41v41l-4 925v37h-37l-553-5-551-9-1084-23-12-457z"/><path id="C" d="M9479 10662c0 130-106 235-235 235-130 0-235-105-235-235 0-129 105-235 235-235 129 0 235 106 235 235z"/></defs></svg>