<svg xmlns="http://www.w3.org/2000/svg" xmlns:xlink="http://www.w3.org/1999/xlink" width="325" height="204" shape-rendering="geometricPrecision" image-rendering="optimizeQuality" fill-rule="evenodd" viewBox="0 0 32500 20409" xmlns:v="https://vecta.io/nano"><style><![CDATA[.B{fill-rule:nonzero}.C{fill:#263138}.D{fill:#ebebeb}.E{fill:#0060fa}.F{fill:#fff}.G{fill-opacity:.1}.H{fill:#445964}.I{fill:#d37569}.J{fill:#f6a8a0}.K{fill:#36464f}.L{stroke-dasharray:1259.058169 1259.058169}.M{stroke-dasharray:1326.144945 1326.144945}.N{fill:#ac6259}.O{fill:#c6c6c6}.P{fill:#ff9abc}.Q{fill-opacity:.3}.R{fill:#050300}]]></style><g class="B D"><path d="M32175 3977l309-499-153-94c-45-28-69-79-65-131a652.7 652.7 0 0 0 3-88c-1-53 26-102 73-127l158-84-277-517-158 84c-47 25-103 21-146-9-24-17-49-32-75-46-46-25-75-74-73-127l6-179-586-18-6 180c-1 53-34 99-82 121-13 6-25 13-38 20-13 6-25 14-38 21-45 27-100 29-145 1l-154-95-309 498 153 95c45 28 69 79 64 131-2 29-3 58-2 88 1 52-27 101-73 126l-158 85 277 517 158-85c46-25 102-21 146 9a702.9 702.9 0 0 0 74 46c46 25 75 74 74 127l-6 179 586 19 6-180c1-53 34-99 81-121 13-6 26-13 39-20l38-21c45-28 101-29 146-1l153 95zm-497-370h0c-233 125-524 37-650-197-125-234-37-525 196-650 234-125 526-38 651 196s37 525-197 651zM1772 9375l309-498-153-95c-44-28-69-78-64-131 2-29 3-58 2-88-1-52 27-101 73-126l158-85-277-517-158 85c-46 25-102 21-146-9-24-17-49-33-74-47-47-25-75-73-74-126l6-180-586-18-6 180c-1 53-33 99-81 122-13 6-26 12-39 19s-25 14-37 22c-45 27-101 28-146 1l-154-96-309 499 153 95c45 27 69 78 65 131a632.6 632.6 0 0 0-3 87c1 53-26 102-73 126L0 8811l277 517 158-85a142 142 0 0 1 146 10c24 16 49 32 74 46 47 25 76 73 74 126l-6 180 586 18 6-180c2-52 34-98 81-121 14-6 26-12 39-19s26-14 38-22c45-27 101-29 146-1l153 95zm-496-370h0c-234 125-525 38-650-196-126-234-38-525 196-651 233-125 525-37 650 197 126 234 37 525-196 650zm29673-3652l-206-356-109 63c-32 19-71 17-102-3-17-12-35-22-53-31-33-17-54-50-54-87v-126h-411v126c0 37-21 70-54 87a349.8 349.8 0 0 0-53 31c-31 20-71 22-103 3l-109-63-205 356 109 63c33 18 50 54 48 91v30 30c2 37-15 72-47 90l-110 64 205 355 110-63c32-18 71-16 102 4 17 11 35 21 53 31 33 16 54 50 54 86v126h411v-126c0-36 21-70 54-86 18-10 36-20 53-31 31-20 70-22 102-4l109 63 206-355-110-63c-32-19-49-54-47-91v-30-30c-2-37 15-73 47-91l110-63zm-393 184h0c0 186-151 336-336 336-186 0-337-150-337-336s151-337 337-337c185 0 336 151 336 337zm-356 11709h-75v-50h25v-25h50zm-175 0h-100v-50h100v50zm-200 0h0-100v-50h100v50zm-200 0h0-100v-50h100v50zm-200 0h0-100v-50h100v50zm-200 0h0-100v-50h100v50zm-200 0h0-100v-50h100v50zm-200 0h0-100v-50h100v50zm-200 0h0-100v-50h100v50zm-201 0h0-100v-50h100v50zm-200 0h0-100v-50h100v50zm-200 0h0-100v-50h100v50zm-200 0h0-100v-50h100v50zm-200 0h0-100v-50h100v50zm-200 0h0-100v-50h100v50zm-200 0h0-100v-50h100v50zm-200 0h0-100v-50h100v50zm-200 0h0-100v-50h100v50zm-200 0h-75v-75h50v25h25z"/><use xlink:href="#B"/><path d="M26599 13670h-50v-75h75v50h-25zm3426-25h-100v-50h100v50zm-200 0h0-100v-50h100v50zm-200 0h0-100v-50h100v50zm-200 0h0-100v-50h100v50zm-200 0h0-100v-50h100v50zm-200 0h0-100v-50h100v50zm-200 0h0-100v-50h100v50zm-200 0h0-100v-50h100v50zm-201 0h0-100v-50h100v50zm-199 0h0-101v-50h101v50zm-201 0h0-100v-50h100v50zm-200 0h0-100v-50h100v50zm-200 0h0-100v-50h100v50zm-200 0h0-100v-50h100v50zm-200 0h0-100v-50h100v50zm-200 0h0-100v-50h100v50zm-200 0h0-100v-50h100v50zm3376 25h-50v-25h-25v-50h75z"/><use xlink:href="#B" x="3601"/></g><path d="M26798 17446h-448v-449h448z" class="B F"/><path d="M26823 17471h-499v-499h499v499zm-448-51h0 398v-398h-398v398z" class="B D"/><path d="M26800 15645h-449v-449h449z" class="B F"/><path d="M26823 15670h-499v-499h499v499zm-448-50h0 398v-399h-398v399z" class="B D"/><path d="M26800 13844h-449v-448h449z" class="B F"/><path d="M26823 13869h-499v-498h499v498zm-448-50h0 398v-398h-398v398z" class="B D"/><path d="M30401 17446h-448v-449h448z" class="B F"/><path d="M30424 17471h-498v-499h498v499zm-448-51h0 398v-398h-398v398z" class="B D"/><path d="M30401 15645h-448v-449h448z" class="B F"/><path d="M30424 15670h-498v-499h498v499zm-448-50h0 398v-399h-398v399z" class="B D"/><path d="M30401 13844h-448v-448h448z" class="B F"/><path d="M30424 13869h-498v-498h498v498zm-448-50h0 398v-398h-398v398z" class="B D"/><path d="M28601 13844h-449v-448h449z" class="B F"/><path d="M28624 13869h-499v-498h499v498zm-449-50h0 399v-398h-399v398z" class="B D"/><path d="M28599 17446h-449v-449h449z" class="B F"/><g class="D B"><path d="M28624 17471h-499v-499h499v499zm-449-51h0 399v-398h-399v398zM5494 4354h-75v-50h25v-25h50z"/><use xlink:href="#C"/><path d="M1918 4354h-75v-75h50v25h25z"/><use xlink:href="#D"/><path d="M1893 778h-50v-75h75v50h-25z"/><use xlink:href="#C" y="-3601"/><path d="M5494 778h-50v-25h-25v-50h75z"/><use xlink:href="#D" x="3601"/></g><path d="M2093 4554h-449v-449h449z" class="B F"/><use xlink:href="#E" class="B D"/><path d="M2094 2753h-448v-448h448z" class="B F"/><path d="M2118 2778h-499v-498h499v498zm-449-50h0 399v-399h-399v399z" class="B D"/><path d="M2094 953h-448V504h448z" class="B F"/><use xlink:href="#F" class="B D"/><path d="M5696 4554h-449v-449h449z" class="B F"/><use xlink:href="#E" x="3601" class="B D"/><path d="M5696 2753h-449v-448h449z" class="B F"/><path d="M5719 2778h-499v-498h499v498zm-449-50h0 399v-399h-399v399z" class="B D"/><path d="M5696 953h-449V504h449z" class="B F"/><use xlink:href="#F" x="3601" class="B D"/><path d="M3895 953h-449V504h449z" class="B F"/><use xlink:href="#F" x="1800" class="B D"/><path d="M3893 4554h-449v-449h449z" class="B F"/><use xlink:href="#E" x="1800" class="B D"/><path d="M76 20358l4043-12 4044-4 8087-9 8087 8 4044 5 4043 12-4043 12-4044 5-8087 8-8087-8-4044-5zm27472-3997H4952V2054h22596z" class="C B"/><path d="M27548 2605H4952v-551h22596z" class="B E"/><path d="M5470 2329c0 58-46 105-104 105-57 0-104-47-104-105 0-57 47-104 104-104 58 0 104 47 104 104z" class="B O"/><path d="M5896 2329c0 58-47 105-104 105a105 105 0 0 1-105-105c0-57 47-104 105-104 57 0 104 47 104 104z" class="B F"/><path d="M6321 2329c0 58-47 105-104 105-58 0-104-47-104-105 0-57 46-104 104-104 57 0 104 47 104 104z" class="B H"/><g fill="none" stroke="#ffc626" stroke-width="208.35"><path d="M26082 6425v75h-75"/><path d="M25856 6500H6568" class="L"/><path d="M6493 6500h-75v-75"/><path d="M6418 6266V5071" class="M"/><path d="M6418 4992v-76h75"/><path d="M6644 4916h19288" class="L"/><path d="M26007 4916h75v76"/><path d="M26082 5151v1195" class="M"/><path d="M26082 11964v75h-75"/><path d="M25856 12039H6568" class="L"/><path d="M6493 12039h-75v-75"/><path d="M6418 11805v-1195" class="M"/><path d="M6418 10531v-75h75"/><path d="M6644 10456h19288" class="L"/><path d="M26007 10456h75v75"/><path d="M26082 10690v1195" class="M"/><path d="M26082 14505v75h-75"/><path d="M25856 14580H6568" class="L"/><path d="M6493 14580h-75v-75"/><path d="M6418 14346v-1195" class="M"/><path d="M6418 13071v-75h75"/><path d="M6644 12996h19288" class="L"/><path d="M26007 12996h75v75"/><path d="M26082 13231v1194" class="M"/></g><g class="B"><path d="M21824 7791h-2809v-107h2809z" class="D"/><path d="M18817 7791h-1248v-107h1248zm-7965-508H7701v-107h3151zm11574-508h-4187v-107h4187zm-5012 2494h-4187v-108h4187zm-130-1478H7701v-107h9583zM7184 6775h-438v-107h438z" class="E"/><path d="M10291 6775H7701v-107h2590zm427 1525H8128v-108h2590z" class="D"/><path d="M21258 8808h-3615v-108h3615z" class="E"/><path d="M17417 8808h-6947v-108h6947z" class="D"/><path d="M10075 8808H8128v-108h1947z" class="E"/><path d="M18515 7283h-7485v-107h7485z" class="D"/><path d="M23162 7283h-4466v-107h4466zm-5126-508h-7482v-107h7482z" class="E"/><path d="M7184 7283h-438v-107h438zm0 508h-438v-107h438z" class="D"/><path d="M7184 8300h-438v-108h438z" class="E"/><path d="M7184 8808h-438v-108h438zm0 461h-438v-108h438zm5655 0H7701v-108h5138zm-5655 508h-438v-107h438z" class="D"/><path d="M11427 9777H8128v-107h3299zm-575 1524H7701v-107h3151zm-513-1016H8128v-107h2211zm5061 2033h-2210v-108h2210zm3400-2033h-8216v-107h8216zm-1516 1524H7701v-107h9583z" class="E"/><path d="M18422 9777h-6788v-107h6788zm1438 1016h-1419v-107h1419zm-12676-508h-438v-107h438z" class="D"/><path d="M7184 10793h-438v-107h438z" class="E"/><path d="M10291 10793H7701v-107h2590zm8224 508h-7485v-107h7485z" class="D"/><path d="M18036 10793h-7482v-107h7482z" class="E"/><path d="M7184 11301h-438v-107h438zm0 1017h-438v-108h438zm5655 0H7701v-108h5138zm-5655 508h-438v-108h438z" class="D"/><path d="M11427 12826H8128v-108h3299zM7017 4162a38 38 0 0 1 0 54c-8 7-17 11-27 11s-19-4-27-11l-169-171c-2-1-3-2-3-4-1-1-2-1-2-1-1-2-1-3-2-5l-2-2c0-2 0-3-1-4 0-2-1-2-1-3v-4c0-2-1-2-1-4 0 0 1-2 1-3v-4c0-1 1-2 1-2 1-2 1-4 1-5s1-1 1-1c1-2 2-5 3-6 0 0 0-1 1-1 1-1 2-3 4-4l169-172a40 40 0 0 1 54 0 38 38 0 0 1 0 54l-143 144 143 144zm153 19l147-351c8-16 27-24 44-17 16 7 24 27 17 43l-147 351c-6 13-18 20-31 20-4 0-8-1-12-3-17-6-25-26-18-43zm499-141h-1c-1 2-2 3-4 5l-169 171c-7 7-17 11-27 11s-19-4-27-11a38 38 0 0 1 0-54l143-144-143-144a38 38 0 0 1 0-54c14-14 39-14 54 0l169 172c2 1 3 3 4 4 1 0 1 1 1 1l3 6s1 0 1 1 0 3 1 5c0 1 1 1 1 2v4c0 1 1 3 1 3 0 1-1 2-1 3v5c0 1-1 1-1 1-1 3-1 4-1 6 0 0-1 0-1 1-1 2-2 3-3 6zm1449 13619s742-168 1149-543 634-1046 634-1046-437 80-832 218c-67 71-193 218-252 356 0 0-13-146-2-254-106 49-198 103-264 160-338 296-433 1109-433 1109z" class="E"/><path d="M10438 16396l305-208c6-4 0-14-7-10-191 114-379 236-562 364-64 45-126 91-188 139 5-8 9-15 13-22 23-38 46-74 70-111 47-73 98-146 157-210a2.83 2.83 0 0 0-4-4c-57 67-115 133-168 204-25 33-48 68-70 104-12 18-23 37-34 56-3 6-7 12-11 19-96 75-189 154-278 237-55 51-109 104-160 159 29-90 54-180 87-269 1-3-4-4-5-1-32 93-67 186-92 281-57 62-112 125-163 191l3-12c8-35 17-69 26-104 18-67 38-134 61-200 46-135 107-267 199-376 2-3-1-6-3-4-145 172-230 377-285 594-8 31-15 63-22 95-4 17-9 34-11 51-23 30-45 61-66 92-129 192-229 402-314 616-95 242-170 491-238 742-1 5 6 6 8 2 145-435 293-875 542-1263 52-82 109-161 169-237 122-7 245-34 361-72 128-43 249-102 362-175 65-42 125-91 185-140 3-2 0-6-3-4-100 85-221 151-340 206-120 54-246 97-375 125-54 12-110 21-166 29 69-85 142-166 219-243 25-25 51-49 77-73 85-62 180-111 274-157 122-59 242-121 362-182l204-104c3-1 0-5-3-4-122 59-246 114-369 170-116 54-233 107-344 169-5 3-9 6-14 9 100-88 204-171 311-252 98-74 198-147 300-217zm-43 383c-60 26-121 50-181 78-62 28-120 62-178 96-3 2 0 6 2 4l178-84c60-30 119-62 181-89 3-2 1-7-2-5z" class="C"/><path d="M6707 13919s208 238 222 616c2 67-8 160-16 269 277 147 484 414 484 414-157-95-373-133-489-118 4 72 12 147 28 222 52-3 151 4 315 62 0 0-161-4-284 57 132 421 526 853 1612 1037 0 0 209-737-193-1528-325-640-1679-1031-1679-1031z" class="E"/><g class="C"><path d="M8955 18279c-19-180-43-359-71-538-55-357-127-713-219-1063-43-165-95-327-157-484 4-29 4-59 4-87 1-35 1-70 1-105-1-69-4-139-10-208-12-137-33-274-67-407-20-77-43-154-65-230-1-3-6-2-5 1 38 133 60 270 80 407 19 135 32 271 36 407 2 38 2 75 3 112 0 16-1 32-2 48-53-129-113-255-183-379-109-194-235-379-371-556 1-20-5-41-9-60-5-25-11-49-16-73-11-50-24-99-37-148-27-98-63-194-94-291-1-3-5-1-4 2 28 96 47 196 69 294l33 145 15 73c0 1 1 3 1 5l-134-164c-208-243-435-467-664-690-28-27-57-54-86-81-2-2-5 1-3 4 219 228 434 459 638 700l143 175c-25-17-50-33-74-49-63-42-127-82-193-119s-132-73-200-107c-70-34-144-62-211-101-3-2-6 3-3 4 69 29 134 72 198 110 66 39 132 79 197 120l192 121c53 35 105 72 159 104 126 162 243 330 348 506 66 111 126 225 180 341-13-5-26-11-39-17-33-14-66-29-99-44l-192-84c-122-53-246-101-365-159-67-33-133-67-195-109-3-1-5 3-3 5 223 153 472 261 719 370l107 48c29 13 59 27 89 39 73 162 134 330 183 503 99 345 175 697 237 1050 62 355 104 712 137 1071l13 134c2 18 28 18 28-1-2-182-21-364-39-545zm-661-2999c-20-110-50-218-79-326-1-4-6-2-5 1 27 106 47 214 67 322 20 110 38 220 54 330 0 2 3 2 3 0-7-110-21-219-40-327zm-468 299c-74-52-156-91-236-133l-120-59c-41-20-84-37-125-57-3-2-6 3-3 4 40 20 78 44 117 65l120 66c80 43 158 90 241 125 7 3 12-6 6-11z"/><path d="M9131 16374s687-165 1003-625c301-440 398-1190 406-1256-13 60-154 716-622 1021-358 234-704 426-787 860z" class="G"/><path d="M9765 15187c-121 116-211 253-253 417 0 1 2 2 2 1 52-153 137-303 255-414a2.8 2.8 0 0 0-4-4z"/></g><path d="M9131 16374s687-165 1003-625c301-440 398-1190 406-1256 0-3 1-5 1-5s-330 468-676 588c-346 119-833 532-734 1298z" class="E"/><path d="M10419 14746c-64 125-131 249-212 363-80 112-176 206-283 291-93 74-192 141-286 214 0-1 1-2 2-3 18-27 36-52 56-77 39-51 82-98 126-145 85-92 172-183 249-283 42-56 79-115 110-178 1-3-4-4-5-2-111 233-334 381-493 577-22 28-44 57-63 87-14 21-31 45-40 70-86 71-166 148-234 237 6-46 16-91 27-134 18-61 40-119 73-174 2-2-2-5-4-2-32 54-61 112-80 172-15 49-22 98-25 149-35 46-65 95-93 144 3-14 5-29 8-44 14-68 29-136 47-204 36-137 85-269 165-387 2-2-2-5-4-3-80 116-140 246-183 379-22 67-40 136-55 205l-21 102c-3 17-7 35-10 54-70 148-119 307-158 465-70 285-114 577-147 868-34 306-52 615-47 923l5 115c1 10 15 12 16 1l20-457c9-152 22-304 38-456 32-298 78-596 143-888 56-251 128-504 265-724 69-110 152-208 248-295 97-86 202-162 303-242s198-166 278-267c87-109 155-232 219-355l49-93c2-3-3-5-4-3zm-119 101c-44 93-97 181-153 268-1 2 2 4 3 2 60-85 110-175 155-268 2-3-3-5-5-2z" class="C"/><path d="M6611 16070s-11 976 573 1258c583 282 896 47 1293 141 0 0-1 0-1-1-15-23-298-430-748-542-463-115-976-450-1117-856z" class="E"/><path d="M6611 16070s-11 976 573 1258c583 282 896 47 1293 141 0 0-1 0-1-1-16-8-306-152-663-195-368-45-1071-284-1202-1203z" class="G"/><path d="M8515 17486c-69-62-147-116-232-157-12-6-25-11-38-16-6-8-13-15-20-22-17-19-35-36-54-53-37-31-76-60-118-84-97-57-203-97-301-150-3-1-6 3-3 5 49 25 96 53 144 81 46 27 93 52 138 81 41 27 80 55 116 87 10 9 20 19 30 29-64-22-131-39-197-53l-322-59c-52-11-104-25-155-42-48-39-96-78-142-120-56-51-107-107-151-167-2-3-6 0-4 2 72 93 149 187 239 264-25-9-50-19-75-31-198-90-375-233-497-413-2-3-6 0-4 2 106 155 242 287 402 387 80 49 165 90 254 120 103 34 210 55 316 74 104 20 209 40 309 74 93 32 181 78 260 137 150 112 266 266 349 433 111 222 164 469 193 714 1 10 17 10 17-1-28-410-138-837-454-1122zm-677-318c-29-46-73-81-120-109-55-31-104-66-143-118-2-2-6 0-4 3 35 45 78 82 126 113 51 32 102 63 137 113 2 3 5 0 4-2z" class="C"/><path d="M8148 18207l26 536 82 1640h1224l81-1640 27-536z" class="K"/><path d="M8148 18207l26 536h1387l27-536z" class="C"/><path d="M8062 18495h1612v-512H8062z" class="K"/><path d="M16188 33v3292h-5160V33z" class="F"/><path d="M16221 3357h-5226V0h5226v3357zm-5161-65h0 5095V65h-5095v3227z" class="D"/><path d="M16188 33v622h-5160V33z" class="E"/><path d="M16221 688h-5226V0h5226v688zm-5161-65h0 5095V65h-5095v558zm858 1263c2-343 290-622 637-624 152 0 291 50 400 135 42 35 49 96 17 139-34 43-98 50-138 19-77-62-172-95-279-95-120 0-231 48-313 124-78 80-126 184-126 302s48 226 126 302c82 76 193 125 313 125 107 0 201-33 279-96 40-29 104-22 138 19 32 44 25 106-17 139-109 85-248 135-400 135-347 0-635-279-637-624zm1353 323c31-38 88-44 126-12 76 62 208 135 331 133 87 0 165-26 217-64s75-82 75-125c0-23-6-38-16-55-10-18-26-35-52-52-50-33-135-63-238-82h-3c-82-16-158-36-224-68-66-31-123-74-161-135-26-41-40-90-40-142 0-104 59-194 139-253 81-59 187-92 300-92 166 0 289 82 378 139 40 27 52 83 24 123-26 41-81 53-123 26-88-59-173-111-279-111-78 0-148 24-194 59-47 34-66 73-66 109 0 21 3 35 12 49 9 13 24 29 47 45 45 31 123 59 216 76h4c88 17 170 40 239 73 71 34 134 79 173 144 27 41 42 93 42 147 0 111-62 206-149 269-85 62-198 99-321 99-187-2-345-96-444-174-38-31-43-88-13-126zm1139 0c31-38 88-44 126-12 77 62 208 135 331 133 87 0 165-26 217-64s75-82 75-125c0-23-5-38-16-55-10-18-26-35-52-52-50-33-135-63-237-82h-4c-81-16-158-36-224-68-65-31-123-74-161-135-26-41-40-90-40-142 0-104 59-194 139-253 81-59 187-92 300-92 166 0 290 82 378 139 40 27 52 83 24 123-26 41-81 53-123 26-88-59-173-111-279-111-78 0-147 24-194 59-47 34-66 73-66 109 0 21 3 35 12 49 9 13 24 29 47 45 45 31 123 59 217 76h3c88 17 170 40 239 73 71 34 134 79 174 144 26 41 41 93 41 147 0 111-62 206-149 269-85 62-197 99-321 99-187-2-345-96-443-174-39-31-44-88-14-126z" class="D"/><path d="M11507 348c0 58-47 105-104 105-58 0-104-47-104-105 0-57 46-104 104-104 57 0 104 47 104 104z" class="O"/><path d="M11932 348c0 58-46 105-104 105-57 0-104-47-104-105 0-57 47-104 104-104 58 0 104 47 104 104z" class="F"/><path d="M12358 348a105 105 0 0 1-105 105c-57 0-104-47-104-105 0-57 47-104 104-104 58 0 105 47 105 104z" class="H"/><path d="M31676 11618v3292h-5161v-3292z" class="F"/><path d="M31709 14942h-5226v-3357h5226v3357zm-5161-65h0 5095v-3227h-5095v3227z" class="D"/><path d="M31676 11618v622h-5161v-622z" class="E"/><path d="M31709 12273h-5226v-688h5226v688zm-5161-65h0 5095v-558h-5095v558zm931 1263c2-343 289-622 636-624 153 0 292 50 401 135 41 35 48 96 17 139-35 43-99 50-139 19-76-62-171-95-279-95-119 0-230 48-312 125-78 79-126 183-126 301s48 226 126 302c82 76 193 125 312 125 108 0 201-33 279-96 40-29 104-22 139 20 31 43 24 105-17 138-109 85-248 135-401 135-347 0-634-279-636-624zm1663 109h-247c-52 0-95-41-95-95 0-52 43-95 95-95h247v-241c0-56 43-99 99-99 53 0 98 43 98 99v241h247c51 0 95 43 95 95 0 54-44 95-95 95h-247v242c0 55-45 98-98 98-56 0-99-43-99-98v-242zm1075 0h-247c-52 0-95-41-95-95 0-52 43-95 95-95h247v-241c0-56 43-99 98-99 54 0 99 43 99 99v241h246c52 0 96 43 96 95 0 54-44 95-96 95h-246v242c0 55-45 98-99 98-55 0-98-43-98-98v-242z" class="D"/><path d="M26995 11934c0 57-47 104-104 104-58 0-105-47-105-104a105 105 0 0 1 105-105c57 0 104 47 104 105z" class="O"/><path d="M27420 11934c0 57-46 104-104 104s-104-47-104-104c0-58 46-105 104-105s104 47 104 105z" class="F"/><path d="M27846 11934c0 57-47 104-105 104-57 0-104-47-104-104 0-58 47-105 104-105a105 105 0 0 1 105 105zm-12480 5235h-3516v-1302h3516z" class="H"/><path d="M12357 16788v-577c0-30 24-54 54-54s55 24 55 54v235h253v-235c0-30 24-54 54-54s55 24 55 54v577c0 30-25 54-55 54s-54-24-54-54v-235h-253v235c0 30-25 54-55 54s-54-24-54-54zm1113-522h-156v522c0 30-23 54-54 54-29 0-53-24-53-54v-522h-155c-30 0-54-26-54-55 0-30 24-54 54-54h418c29 0 54 24 54 54 0 29-25 55-54 55zm804-55v577c0 30-25 54-55 54s-54-24-54-54v-412l-140 196c-11 15-27 22-44 22h-1-2c-17 0-34-7-44-22l-140-196v412c0 30-25 54-55 54s-54-24-54-54v-577c0-29 24-54 54-54h3c15 0 33 8 43 23l195 270 194-270c11-15 27-23 44-23h1c30 1 55 25 55 54zm237 577v-577c0-29 23-54 54-54 30 0 54 25 54 54v522h266c28 0 53 25 53 55s-25 54-53 54h-317-2-1c-31 0-54-24-54-54z" class="F"/><path d="M3689 6409H791V5107h2898z" class="H"/><path d="M1653 5816h-120v212c0 29-24 54-55 54-29 0-54-25-54-54v-577c0-31 25-54 54-54h1 174c117 0 211 94 211 210 0 115-94 209-211 209zm-120-109h0 120c57 0 101-45 102-100-1-57-45-102-102-102h-120v202zm462 321v-577c0-31 23-54 54-54 30 0 55 23 55 54v234h253v-234c0-31 24-54 54-54s55 23 55 54v577c0 30-25 54-55 54s-54-24-54-54v-235h-253v235c0 30-25 54-55 54-31 0-54-24-54-54zm923-212h-121v212c0 29-24 54-55 54-29 0-53-25-53-54v-577c0-31 24-54 53-54h1 175c116 0 210 94 210 210 0 115-94 209-210 209zm-121-109h0 121c56 0 100-45 101-100-1-57-45-102-101-102h-121v202z" class="F"/><path d="M30117 16518l901 1809c75 373 133 702 148 875v2c5 66 5 108-5 121 0 1 0 2-1 3-96 97-3062 780-3174 769-111-10-89-329 5-448 95-118 1113-887 1113-887l-882-1810 1895-434z" class="I"/><path d="M28031 20097c112 11 3033-672 3129-769 1-1 1-2 1-3 10-13 10-56 5-120v-3c-15-173-74-502-148-875 0-1-116-232-216-433l-1871 513 173 355s-973 769-1068 887c-94 119-117 438-5 448z" class="D"/><path d="M27991 20050c113 8 3086-749 3180-850 37-38-48-478-166-1006-2-5-3-11-4-16l-1924 467 9 33s-1008 799-1101 921c-91 121-107 443 6 451z" class="C"/><path d="M27995 19926c498-140 2520-658 3023-759 4 0 5 2 1 4-491 149-2517 651-3022 763-10 3-12-5-2-8zm932-1201c187-88 436-119 623-17 7 4 1 14-6 14-210-12-402-5-610 27-15 2-21-18-7-24zm-121 122c188-88 437-119 623-17 8 4 2 15-5 14-210-12-402-5-611 27-14 2-20-18-7-24zm-120 122c187-87 436-119 623-17 7 4 1 15-6 14-210-12-401-5-610 27-15 3-21-18-7-24z" class="F"/><path d="M27918 19955c-48 34 9 210 51 214 42 5 3280-836 3332-862 52-27-18-219-85-213s-3298 861-3298 861z" class="E"/><path d="M30595 18636c188-163 441 129 253 292s-442-129-253-292z" class="F"/><path d="M30796 17749l-2169 547s-2022-3648-1977-4576c63-1280 1565-5213 1565-5213h1798s-1194 4253-1209 4968c-8 374 1992 4274 1992 4274z" class="K"/><path d="M28534 17856c116-46 1148-344 1918-507 6-1 7 7 2 8-242 86-1773 488-1917 508-4 1-8-6-3-9zm120-5294c143-600 294-1199 457-1794l522-1785 71-216c4-11 21-6 17 5l-499 1765c-160 590-313 1182-457 1776l-106 442c-36 152-74 304-92 460-17 149-8 297 30 443 38 143 98 278 160 412l778 1689c258 565 301 694 549 1263l91 213c2 5-5 9-7 4-284-558-328-693-591-1260l-792-1716c-119-258-258-521-276-810-18-300 76-602 145-891z" class="C"/><path d="M28556 17233l-70 1991c-11 380-28 714-53 885 1 1 1 2 0 3-9 65-20 106-32 117 0 1-1 2-2 2-115 73-3159 72-3265 36-107-35-12-341 106-435 119-94 1284-615 1284-615l88-1988 1944 4z" class="I"/><path d="M28501 18815l-15 409c-11 380-28 714-53 885 1 1 1 2 0 3-13 64-24 106-32 117 0 1-1 2-2 2-115 73-3159 72-3265 36-107-35-12-341 106-435 119-94 1284-615 1284-615l9-415 1968 13z" class="D"/><path d="M25133 20263c107 35 3175-13 3290-89 45-28 64-476 72-1017v-17l-1980 9 1 33s-1166 544-1284 641c-117 96-207 406-99 440z" class="C"/><path d="M25165 20144c517-21 2604-56 3117-37 4 0 4 3 0 3-512 32-2599 50-3117 42-10 0-11-8 0-8zm1185-953c203-41 453-14 610 129 6 5-2 14-8 12-202-60-390-98-600-115-15-2-16-23-2-26zm-145 91c203-41 452-14 610 129 6 5-2 14-9 12-201-60-390-98-600-116-15-1-16-22-1-25zm-146 91c203-42 453-14 610 128 6 6-2 15-8 13-202-61-390-98-601-116-14-1-15-23-1-25z" class="F"/><path d="M25084 20154c-55 22-40 206 0 220s3384-52 3441-66c57-13 33-217-34-226-66-10-3407 72-3407 72z" class="E"/><path d="M27993 19492c221-115 400 228 179 343-221 114-400-229-179-343z" class="F"/><path d="M28237 8506v2c8 36 457 1809 513 1842 63 37-1629 2315-1830 3432-129 715-421 4883-421 4883h2155l282-4706c28-452 1725-2544 1887-3939 50-439-265-1514-265-1514h-2321z" class="K"/><g class="C"><path d="M28709 16978l92-1760c24-331 71-652 104-983 2-18 16-22 15-4-15 589-63 1171-95 1760l-95 1312-61 995c0 5-8 5-8 0-1-589 22-732 48-1320zm-1792-3171c21-154 47-308 90-458 43-147 105-286 175-421 147-282 314-555 475-829l500-827 288-460c98-155 202-306 303-459 4-6 14 0 10 6l-493 831-491 833-473 824c-74 133-143 268-195 411-52 147-84 300-109 454-57 358-104 719-176 1075-1 4-8 3-8-1 22-327 61-654 104-979zm-230 4485c124-16 1064-49 1850-15 6 0 5 7 0 8-256 23-1704 33-1849 16-4-1-6-8-1-9z"/><path d="M28467 10225c221 76 434 184 637 297 8 4 3 17-6 13-214-92-433-180-642-284-16-8-5-32 11-26zm-64-1469c1-7 14-8 14-1-2 255 14 479 35 717 10 110 99 721 291 676 32-7 48-39 53-87 6-58-16-130-25-187-21-128-38-256-49-385-21-241-22-482 7-722 1-8 13-8 13 0-1 334 8 667 58 997 24 159 104 398-62 422-169 25-279-375-299-485-58-305-60-635-36-945z"/><path d="M28738 10165c17 41 31 83 43 126 9 34 22 70 18 104-1 7-10 8-14 3-22-28-31-67-44-101-15-39-30-78-43-118-9-26 29-40 40-14zm-90 4360c20-301 19-619 147-899 63-138 151-264 234-391l259-403c341-541 666-1092 964-1658 143-272 275-553 347-854 76-314 79-643 39-963-9-80-20-159-34-239-1-6 8-8 9-2 65 306 99 620 71 932-27 301-123 586-249 859-131 284-287 558-441 830l-491 834c-167 274-344 542-518 811-85 130-164 264-207 415-43 153-55 312-65 470l-272 3545-23 252c-1 8-12 8-12 0 26-665 198-2875 242-3539zm1035-5437c1-4 8-3 8 2 6 185 1 376 72 551 66 160 197 272 344 357 85 49 174 89 263 129 7 3 4 13-3 11-171-54-344-113-486-227-151-122-218-298-225-489-5-112 9-223 27-334z"/></g><path d="M29196 5628c-91 364-608 1475-1176 1647-509 153-2168-1163-2576-1737-143-201 808-638 1026-588 187 43 1334 1167 1404 1136 119-51 390-311 832-718 416-382 554 3 490 260z" class="I"/><path d="M27027 5377l-1260 593s1528 1538 2269 1352c171-43 905-661 1175-1589 84-288 42-875-577-326s-749 635-774 633c-25-1-833-663-833-663z" class="E"/><path d="M27003 6142c57-14 95-64 85-123-17-108-146-169-241-199-97-31-214-43-295 30-52 46-31 114 25 143 64 34 139 47 205 78 71 33 138 93 221 71zm414 180c14-71-50-137-99-177-27-22-60-37-94-40-46-5-101 23-104 75-2 33 11 58 31 83 9 13 20 23 32 34 2 2 3 3 4 3a13.8 13.8 0 0 1 3 4c31 35 59 78 105 96 60 24 112-22 122-78zm103-356c-52-109-151-190-255-246-84-46-226-116-313-48-21 16-22 43-14 65 27 78 149 122 213 165 80 56 150 126 232 180 76 51 177-31 137-116zm-4 770c18-4 34-12 49-23 23-18 33-46 38-73 4-28-7-60-17-85-10-27-31-45-52-64-7-4-15-8-23-12-8-1-17-3-25-5-22-2-44 4-62 16-33 21-51 61-44 100 5 30 9 59 19 87 5 7 10 15 15 23 9 11 20 19 33 25 20 10 45 16 69 11zm186-276c34-18 55-56 48-95s-27-71-52-101c-21-25-52-56-84-65-49-13-101 22-91 77 5 28 21 53 33 79 6 11 10 23 14 34 7 18 18 33 28 48 20 31 73 39 104 23z" class="G"/><path d="M26038 6149c92-60 194-107 291-157l289-147c195-98 389-200 590-285 5-2 8 4 4 7-186 117-385 216-581 315-98 50-198 98-297 145-96 46-192 95-293 130-4 1-6-6-3-8z" class="C"/><path d="M29212 5733c-271 927-1005 1546-1176 1588-343 86-856-198-1308-528l1047-813c48 37 80 60 85 60 25 2 155-84 774-633 618-549 661 38 578 326z" class="G"/><path d="M30853 9151c0-1-3044 20-3044 20 1 60 154-2385 935-3828 53-98 531-207 743-14 930 846 1367 3860 1366 3822z" class="E"/><path d="M28711 8453c-79-66-194-49-228 57-39 120 39 237 143 294 112 60 241 66 356 14 106-48 77-215-29-244-48-13-106-15-150-37-38-19-60-57-92-84zm-133-398c-63 181 203 376 363 296 57-29 65-110 23-154-38-40-74-50-108-87-17-17-13-14-30-41-21-33-40-59-72-83-66-48-153 2-176 69zm-460-48c-68 69-38 191 4 267 43 75 113 130 202 131 66 2 107-86 58-134-31-30-53-68-64-105-19-61-27-138-88-171-35-19-82-18-112 12zm1145 344c-49 0-89 41-90 89-1 52 39 93 88 103 37 8 67 3 102-11 16-7 28-25 35-40 7-16 10-36 5-54-10-32-39-61-74-62l-12-9c-17-10-35-15-54-16zm-929-773c-71 93-15 279 84 332 57 31 131-4 132-73 0-23-3-36-6-58-3-20-7-34-7-46-3-41 3-87-11-126-32-89-135-103-192-29zm-261 972c-97 146 115 352 261 339 48-4 102-60 65-110-29-40-66-74-92-116-33-52-47-114-104-145-47-25-101-13-130 32zm2240-277c-9 55-5 104-41 151-35 47-80 79-105 134-20 47 26 108 78 96 165-37 291-216 256-385-22-106-170-104-188 4zm-222-451c-20 70-6 144-21 215-13 65-29 132-50 194-15 46 34 110 84 81 84-50 143-109 176-204 28-80 54-213 9-290-42-71-170-96-198 4zm-199 694c-38 53-79 109-137 142-55 30-82 92-47 149 36 59 101 61 154 28 96-58 165-149 183-260 14-85-106-126-153-59z" class="G"/><use xlink:href="#G" class="G"/><path d="M29455 6628c33-64-8-146-44-199-19-28-46-53-78-66-43-17-104-7-121 42-12 31-7 58 4 89 6 15 14 27 22 42 1 2 2 3 2 4 1 1 1 2 2 4 19 43 34 92 72 123 51 40 114 11 141-39zm202-311c-18-119-89-225-172-310-67-68-182-176-286-137-25 9-33 34-32 58 2 83 107 160 155 220 61 77 108 164 169 240 59 71 179 23 166-71zm-230 735c19 2 37-1 55-8 26-10 45-34 57-58 12-26 11-59 9-87s-16-52-31-75c-6-6-12-12-19-18-7-5-15-9-23-13-20-8-42-9-63-3-38 11-67 44-72 83-3 30-8 59-6 89 2 8 5 17 7 26 5 13 13 24 24 33 16 17 39 30 62 31zm259-209c39-8 70-37 74-77 5-40-5-76-20-112-13-30-33-69-62-87-43-26-103-8-109 47-4 28 5 58 9 86l3 37c1 18 7 36 12 54 11 35 59 58 93 52z" class="G"/><path d="M28819 5754c145 33 446-140 548-348 7-14-21-160-46-338-15-109-30-230-35-341 0-23-691 201-691 201s79 230 87 425c0 16-1 31-3 46 0 2-1 4-1 7-10 88-14 312 141 348z" class="I"/><path d="M28679 5399v7c22 2 45 2 71 1 411-28 497-548 512-679-124 23-667 200-667 200s79 231 87 425c0 16-1 31-3 46z" class="C"/><path d="M29377 3853c79 247-42 966-217 1128-252 235-671 262-872-42-194-296-19-1229 176-1377 287-218 796-74 913 291z" class="I"/><g class="C"><path d="M28684 4291c0-1 3 3 3 5-10 49-12 105 29 129 1 0 0 3-1 2-52-16-48-91-31-136z"/><path d="M28735 4248c79 7 60 164-13 158-72-7-53-164 13-158zm-334 16c0-2-4 2-4 4-5 49-18 104-64 115-2 0-2 3 0 3 54-1 72-75 68-122z"/><path d="M28364 4208c-78-16-103 141-32 155 71 15 97-142 32-155zm442-24c-20-8-38-19-58-29-22-12-41-18-54-41-6-12-1-32 11-40 26-18 57-10 84 2 29 14 49 32 63 61s-18 57-46 47zm-493-63c22 0 42-5 64-8 25-4 45-4 64-21 11-10 12-30 4-41-19-25-51-29-81-26-32 4-56 14-79 37s-2 61 28 59zm360 628c-13 10-27 24-45 23-17 0-36-10-51-18-1-1-3 0-2 2 10 20 35 35 58 34s36-19 44-38c1-3-2-4-4-3zm-33-152c-33 39-76 57-120 60-20 1-41 0-60-5-4 0-8-1-12-3-3 0-6-1-10-3-6-1-8-6-8-12h0c0-2 0-3 1-5v-5c4-37 15-94 15-94-15 5-88 28-85 9 30-161 63-340 127-494 2-5 10-3 9 2-23 156-73 307-98 463 23-6 62-17 81-14 5 2-23 109-23 126v2c62 16 112 3 179-32 3-2 7 1 4 5z"/><path d="M28484 4636s28 49 71 71a97.1 97.1 0 0 0 54 10c40-6 45-41 42-73-3-25-12-48-12-48s-63 46-155 40z"/></g><path d="M28555 4707a97.1 97.1 0 0 0 54 10c40-6 45-41 42-73-42 0-87 23-96 63z" class="P"/><g class="C"><path fill-opacity=".2" d="M29222 3611c-14 105-50 429-13 503 36 72 114 246 163 280 33-215 39-423 4-539-29-96-84-178-154-244z"/><path d="M28545 3790c48 76 131 123 222 122 88-1 182-47 225-126 1-2 5 0 4 2-47 84-130 147-229 146-93-2-184-58-227-141-2-3 3-6 5-3zm361-594c149 25 273 128 312 238 24 67 20 130 0 192-1 3-6 1-5-1 23-100-9-222-107-309-93-83-228-125-354-97-66 14-122 46-155 90-4 5-15 0-11-5 54-87 186-131 320-108zm-913 192c35-69 95-124 166-155 100-43 202-19 303 7 3 1 2 5-1 4-86-21-174-38-261-10-70 24-133 72-173 135-81 132-50 315 72 410 69 55 162 78 248 64 4-1 5 5 2 5-159 31-327-65-373-222-23-77-19-165 17-238z"/><path d="M29409 4014s180-245 85-417c-55-97-279-118-279-118s-53-138-231-207c-180-70-417 6-417 6s-162-127-341-56c-250 98-273 454-57 601 152 103 394-9 394-9 21 6 220 169 414-1 0 0 116 138 249 72 0 0 43 130 183 129z"/></g><path d="M29189 4429s164-230 268-172c105 59-19 394-143 439-123 45-167-69-167-69l42-198z" class="I"/><path d="M29420 4352c2 0 2 3 0 4-87 34-133 114-165 197 26-32 61-49 104-18 2 2 0 5-3 5-35-8-61-2-85 26-17 20-29 45-41 68-4 8-18 4-15-5v-2c-1-110 86-264 205-275z" class="C"/><path d="M26561 6191H6897V4607h19664z" class="H"/><path d="M7663 4941h-438v-107h438zm10230 0H8180v-107h9713z" class="D"/><path d="M18994 4941h-832v-107h832zm4305 0h-4124v-107h4124z" class="E"/><path d="M7663 5449h-438v-107h438z" class="D"/><path d="M11906 5449H8608v-107h3298zm-1088 508H8608v-107h2210zm8461 0h-8216v-107h8216z" class="E"/><path d="M18901 5449h-6788v-107h6788zm2150 508h-1421v-107h1421zm-13388 0h-438v-107h438z" class="D"/><g class="I"><path d="M26246 4550c-168-124-356-391-504-439-134-43-204 61-204 61s-46-165-187-187c-73-10-154 96-154 96s-43-131-170-142c-101-9-168 99-168 99s-99-107-205-83c-215 49-382 905-92 1098 135 91 164-120 164-120s31 313 207 352c175 39 197-237 197-237s33 303 219 325c193 23 167-257 167-257s92 215 239 199c241-26 25-442 106-621l331-44 54-100z"/><path d="M26010 4326c169 104 440-79 616-3 239 103-60 336-434 327l-290-57 108-267z"/></g><path d="M24842 4051c1-3-3-5-4-2-123 268-177 600-119 892 2 9 18 10 18-1-2-311 21-588 105-889zm354 26c1-3-5-5-6-2-126 277-176 653-70 981 4 11 18 18 15 5-54-224-17-713 61-984zm336 1060c-90-318-68-633 1-953 0-5-6-5-7-2-77 147-99 356-103 520-3 157 25 300 98 438 2 6 13 4 11-3z" class="C"/><g class="I"><path d="M29385 6097c-189 407-1061 1954-1651 2016-714 76-1623-84-2020-277-222-108 355-1195 567-1123 334 114 984 170 1113 180 130 9 1032-675 1535-1051 453-338 568 15 456 255z"/><path d="M25572 6693c79-3 78-44-36-126-114-84-632-312-537-486 95-175 823 159 1001 311 179 151 414 459 414 459-154-37-538-90-842-158z"/><path d="M26043 7951c-444-110-997-239-1349-602-69-71-73-146-73-146-161-160-133-284-133-284-104-194-59-317-59-317s-187-190-91-321c107-148 348 147 580 228 531 187 1338 303 1496 342l-371 1100z"/></g><path d="M25337 7096c-155-58-309-111-455-190-161-86-301-196-447-305-5-3-10 3-6 7 233 238 582 422 906 495 8 1 10-4 2-7zm-66 336c-148-64-407-180-780-517-1-1-3 1-2 2 213 251 470 417 779 523 10 3 13-3 3-8zm-39 181c-247-120-387-227-609-410-2-1-4 1-3 2 231 235 341 294 610 417 9 4 12-4 2-9z" class="C"/><path d="M26553 6718l-487 1346s1270 267 1779 76 1182-1191 1500-1776c319-585 151-1076-668-425-820 652-1215 903-1273 914-57 12-851-135-851-135z" class="E"/><path d="M27733 7828c-52 23-90 53-149 49s-110-23-169-13c-51 8-76 81-38 118 122 116 341 123 463 1 76-77-8-200-107-155zm253-434c-69 22-123 74-191 102-61 24-126 48-189 65-47 13-73 89-21 114 88 43 170 60 267 35 82-21 207-73 246-153 37-73-13-194-112-163zm-689 217c-64-2-134-6-193-36-56-29-122-18-151 43-29 62 5 117 62 144 101 48 215 55 318 9 79-35 47-158-36-160z" class="G"/><use xlink:href="#G" class="G"/><path d="M29342 6369l-99 176c0-1-1-1-1-1-1-2-1-3-1-4-1-2-2-3-3-4-8-15-16-28-22-42-11-31-16-57-4-89 18-49 78-59 121-42 3 2 6 3 9 6zm141-364c-16 78-44 163-84 252-25-37-50-74-77-108-48-61-152-138-155-221-1-24 8-49 32-58 103-39 216 67 284 135z" class="G"/><path d="M27931 8101c42-59 310-134 1026-1089 146-195 261-390 405-574 2-2 5 0 4 2-70 134-148 262-231 388 7-5 13-11 19-16 54-47 110-92 160-143 3-4 9 2 5 6-51 49-96 104-145 154-24 25-48 49-74 72-9 9-20 18-31 27-767 1070-1096 1134-1132 1178-4 5-10 0-6-5zm-1576-36c25-107 65-211 101-314l108-306c73-205 142-414 229-614 2-4 9-2 8 3-54 213-130 422-203 629-36 104-74 207-114 310-37 99-73 201-122 295-2 5-8 1-7-3zm194-1361c126 13 628 112 754 124 59 6 111-4 162-33 55-31 963-662 1064-738 4-3 9 4 5 7-106 75-811 609-919 685-49 33-97 71-151 97-51 25-102 29-159 18l-748-142c-3-1-26 60-29 59-5-1-3-1-7-1-2-1 22-76 28-76z" class="C"/><path d="M26381 20231c-12-108-1256-2790-1368-2862-42-28-444 131-923 336-5 3-10 5-15 7-99 42-1923 532-1923 532l808 1755 1898-548 29-14s936 813 1068 879c131 66 439 24 426-85z" class="J"/><path d="M23728 17814l832 1723 298-86 29-14s936 813 1068 879c131 66 439 24 426-84-11-109-1256-2791-1368-2862-42-29-444 130-923 335-5 2-10 5-15 7-25 11-159 49-347 102z" class="D"/><path d="M26392 20245c-12-109-1259-2822-1372-2895-43-28-448 130-933 336l799 1751s942 825 1074 892c133 67 444 25 432-84z" class="E"/><g class="C"><path d="M26266 20256c-221-450-1067-2284-1250-2745-2-3 1-5 3-1 228 441 1059 2282 1254 2743 4 9-3 12-7 3zm-483-57c-54-105-52-234-14-323 35-84 100-173 196-213 2-1 5 4 2 6-166 107-248 341-179 528 2 4-3 6-5 2zm-771-606c-86-181-119-422-22-603 4-7 14-2 14 5-10 203-1 389 32 590 2 15-17 21-24 8zm120 115c-87-181-119-421-23-603 4-7 14-2 14 5-9 204-1 389 33 591 2 14-18 20-24 7zm119 115c-86-181-119-421-22-603 4-7 14-1 13 5-9 204 0 389 33 591 2 14-18 20-24 7zm119 115c-86-180-119-421-22-602 4-7 14-2 14 5-9 203-1 389 32 590 3 15-17 20-24 7zm-733-2112c-93-205 225-350 318-145 93 204-224 350-318 145z"/><path d="M24877 19875c82-156 93-342 123-513 3-18-15-28-30-26-1-3-4-5-8-3-152 82-303 228-389 379-53 93-75 243 44 301 112 53 213-46 260-138zm-147 78h0c-206 73-136-176-94-243 27-43 59-84 92-123 68-81 147-152 223-226-20 83-33 167-50 250-20 100-57 302-171 342z"/><path d="M24549 18740c-112 69-76 216-13 303 101 142 266 271 426 338 4 1 7-1 8-4 15 0 31-12 26-29-47-167-77-351-174-499-57-86-167-175-273-109zm324 369h0c25 82 46 164 75 245-83-66-169-129-245-203-36-35-73-72-104-113-49-62-144-302 69-251 117 28 175 225 205 322z"/></g><path d="M20011 12519s34 1051 191 1569c0 0 172 90 224 122 0 0-1306 3128-1232 4331 24 394 444 893 895 1174 799 497 4470 210 4470 210l-566-2343s-2210 137-2273 4c-79-169 412-1485 804-2553 39-108 434-507 388-1227-45-702-339-1287-339-1287h-2562z" class="H"/><g class="C"><path d="M23544 17842c-538-10-976 36-1514 36-135 0-17 1-152 1h-203c-47 0-94-2-140-13-42-10-84-28-109-64-35-53-16-121-4-179 27-126 58-252 91-377 135-508 312-1004 479-1502l257-770c21-62 42-125 68-185 24-56 54-109 84-161 59-102 112-204 146-317 146-478 6-973-164-1424l-71-181c-2-4-8-2-7 3 155 476 340 971 236 1479-25 120-66 234-125 342-29 54-62 107-91 162-29 56-53 114-75 173-91 253-172 509-257 764-170 505-349 1010-490 1525-35 128-68 257-97 386-21 96-69 226 14 305 61 58 157 65 237 66l402-1c545-2 1418-47 1485-49 12 0 12-18 0-19zm601 1974l-164-821c-61-273-126-544-197-815l-61-229-30-108c-11-37-18-75-33-110-2-4-7-1-7 2 4 70 23 142 37 211l40 198 86 407c60 271 127 540 196 809l119 459c2 8 16 6 14-3z"/><path d="M19642 16350l2766-1002 116-315c40-108 433-507 388-1227-45-702-339-1287-339-1287h-2562s34 1051 191 1569c0 0 172 90 224 123 0 0-431 1032-784 2139z"/></g><path d="M15436 20357c104 32 3059-66 3169-141 42-28 53-459 51-981v-16c0-108-47-1910-47-1910l-2068 62 208 1889 2 33s-1114 543-1227 639c-111 95-193 394-88 425z" class="J"/><path d="M15436 20358c104 31 3059-67 3169-142 42-28 53-459 51-981v-17c0-29 1-175-8-396l-1939 74 40 364 2 33s-1115 543-1227 639c-111 95-193 394-88 426z" class="D"/><path d="M15413 20370c106 32 3089-68 3201-143 42-29 53-464 51-991l-1924 59s-1125 549-1238 645-195 399-90 430z" class="E"/><g class="C"><path d="M15452 20250c500-29 2518-99 3014-90 4 1 5 3 1 4-495 39-2514 92-3015 94-10 0-10-8 0-8zm239-424c119-9 236 44 303 112 65 66 121 160 121 264 0 3-5 3-6 0-35-195-219-361-418-370-4 0-4-5 0-6zm858-475c200-9 435 53 564 213 5 6-3 13-9 10-185-87-359-151-558-198-14-4-11-24 3-25zm-153 65c201-9 435 54 565 213 5 7-4 14-10 11-184-87-358-151-557-199-14-3-12-24 2-25zm-152 66c200-10 435 53 564 213 5 6-3 13-9 10-185-87-359-151-558-198-14-4-11-25 3-25zm-153 65c200-9 435 54 565 213 5 6-4 13-10 11-184-88-359-151-557-199-14-3-12-24 2-25zm2232 143c225-7 236 342 11 349-225 6-236-343-11-349z"/><path d="M16341 19117c112 136 280 218 426 312 15 10 31-3 35-18 3 1 7-1 6-6-17-172-93-367-199-505-65-86-196-163-294-76-93 83-40 214 26 293zm-15-166h0c12-218 215-57 260 7 30 42 54 88 78 133 49 95 83 194 123 293-69-51-142-95-212-143-85-57-256-169-249-290z"/><path d="M17515 19254c-20-130-170-153-275-130-170 39-353 141-476 263-3 3-2 6 1 8-7 14-2 34 16 36 172 21 354 65 527 32 101-19 226-86 207-209zm-467 155h0c-84-8-168-20-254-25 93-51 184-106 282-147 47-20 95-39 144-53 77-20 335-15 205 161-71 97-275 74-377 64z"/></g><path d="M16580 19116h2314s-412-3150-274-3355c60-91 3063 210 3942-741 804-871-14-2501-14-2501h-2465s-51 699-184 978c-56 120-2811-51-3242 736-576 1052-77 4883-77 4883z" class="H"/><g class="C"><path d="M18650 18676l-784-17c-262 0-524 5-786 15l-327 16c-36 3-72 2-107 9-4 1-3 7 0 7 57 10 649 17 779 17 261 1 521-7 781-16l444-17c8 0 9-14 0-14zm1533-5403l29-222c20-169 37-339 43-509 0-13-19-12-21 0l-42 395c-15 130-26 263-51 391-7 39-24 104-73 105-67 1-80-89-86-138-14-122-13-245-6-368 7-140 25-279 40-418 1-5-8-6-9-1-57 270-112 554-65 830 10 54 34 112 90 130 1 1 2 1 3 1-1 2-2 3-2 5-1 7 0 15 0 23-1 7-1 13 0 20 0 14-1 27-1 41 1 13 18 13 20 2 4-1 7-3 8-7 5-26 2-54-2-80 33 1 62-16 82-44 32-45 36-103 43-156z"/><path d="M19938 13474c190 125 365 279 530 436 7 6-1 17-9 11-180-140-366-277-538-426-14-12 2-31 17-21zm2026 134c-53-2-106-3-159-12-46-9-93-22-138-36-85-25-190-55-252-122-63-69-105-162-143-246-41-93-73-193-84-294 0-5-7-5-7 0 9 105 22 209 53 311 15 50 35 100 58 147 22 46 47 94 82 132 69 74 182 110 279 130 100 20 213 20 313 2 7-2 5-12-2-12zm-3594 2004c15-59 53-97 113-108 65-11 135-4 200-4l463 4c607 1 1219-16 1816-136 290-58 579-139 850-256 232-101 463-238 608-451 166-246 179-567 173-854-6-309-56-618-148-913-24-75-51-149-80-222-2-5 5-9 7-4 121 282 204 576 241 881 17 150 24 300 20 451-4 146-16 296-57 437-157 537-759 759-1246 895-586 165-1197 210-1803 219-305 5-609 1-914-4-58-1-154-17-188 44-19 32-22 75-28 111-6 42-11 86-14 129-12 162-3 324 6 486l68 986 87 990c6 81 14 161 22 242 1 9-15 11-17 2-84-653-145-1308-188-1965-10-162-22-325-26-487-5-156-4-321 35-473zm1482 120c230-2 420-20 614-44 192-24 384-51 574-83 332-57 671-119 984-245 169-68 336-157 474-275 4-4 9 2 6 6-237 229-538 364-854 451-360 98-734 155-1104 193-221 23-473 25-695 21-15-1-14-24 1-24z"/></g><path d="M19928 9585l49 528c13 107 32 211 55 316 40 29 87 57 142 81l-18-79c-28-125-44-250-60-376 0-5 6-5 7 0 20 129 50 258 81 386 7 27 15 55 23 83 44 17 92 31 145 43l-24-90c-18-70-34-140-49-212-29-140-49-281-62-423 0-6 8-6 9 0 22 145 49 290 81 433 15 68 32 136 49 203l28 96c80 16 170 26 273 29 263 8 526-76 762-186 203-95 390-233 531-418-89-89-163-201-221-310-2-3 3-6 5-3 49 69 101 135 156 199 26 31 52 59 79 88 3-3 4-5 6-8 14-19 28-39 41-60-53-59-101-126-147-191-66-93-126-189-175-293-3-7 5-12 9-6l189 275c45 63 95 124 142 186 38-65 64-139 43-218-18-65-62-117-101-169-43-58-82-119-120-182-76-129-426-1173-790-1077-2-3-663-367-956-31-464 531-327 1797-285 1934 24 82 71 178 166 262-19-88-31-178-42-265-21-182-26-363-29-545a4 4 0 0 1 8 0z" class="H"/><g class="J"><path d="M20637 10623c-432 949-1116 1891-1343 1973-311 113-1748-719-2116-892-149-70 637-1178 782-1077 358 249 1117 639 1134 651 36 26 914-748 1162-990 552-539 596-137 381 335z"/><path d="M18227 10870s-212-304-334-418c-122-113-734-367-796-238-81 166 243 383 416 468 0 0-187 385 12 590 199 206 702-402 702-402z"/><path d="M17292 11761c-130-59-700-379-839-503-139-125-512-512-427-628 84-116 203-11 203-11s-132-188-37-297c96-109 275 59 275 59s-121-203-18-305 255 98 255 98-120-181 0-229c145-58 328 300 492 426 37 29 794 526 794 526l-698 864z"/></g><path d="M16690 10157c135 263 240 355 490 503 5 3 2 11-3 8-259-122-407-218-500-505-4-14 7-18 13-6zm-233 203c164 261 276 362 527 536 4 3 0 9-4 7-260-151-406-250-535-532-6-13 4-23 12-11zm-216 267c178 242 296 357 562 495 6 4 2 13-5 10-284-114-433-257-563-498-9-17-5-22 6-7zm849-360c36 205 269 302 431 397 12 7 10 20 3 28-68 166-114 421-11 580 3 4-3 9-7 5-134-155-108-409-23-587-166-95-396-202-395-423 0-1 2-1 2 0z" class="C"/><path d="M20204 11734l-620-999s273-285 672-604 626-196 443 468c-184 664-495 1135-495 1135z" class="E"/><path d="M20204 11734l-620-999s273-285 672-604 626-196 443 468c-184 664-495 1135-495 1135z" class="G"/><path d="M19730 10645c54 68 99 146 147 219 46 69 92 139 136 210 91 148 179 297 264 449 1 2-3 5-5 3-95-143-188-287-279-432-46-72-89-146-133-219-44-76-95-149-134-228-2-2 2-5 4-2z" class="C"/><path d="M25740 12571L6108 11448l90-1581 19633 1123z" class="H"/><path d="M10577 10964l-3146-180 7-107 3145 180zm6393 875l-9568-547 6-108 9568 547z" class="E"/><path d="M19599 10971l-1416-81 6-107 1416 81z" class="D"/><path d="M6944 10248l-437-25 6-108 437 25z" class="E"/><path d="M10046 10425l-2586-148 6-107 2586 148zm8182 977l-7473-428 6-107 7473 427z" class="D"/><path d="M17778 10867l-7470-427 7-107 7469 427z" class="E"/><path d="M6915 10755l-437-25 6-107 437 24z" class="D"/><path d="M22811 13042c-84 56-2931 24-2931 24l114-1074s-235-252-242-555c-10-405 461-1148 506-1200 180-207 370-282 579-236 875 194 1974 3041 1974 3041z" class="E"/><path d="M20690 11789c-106 12-214 29-318 61-52 15-104 34-155 54-25 10-51 19-76 28-27 9-55 17-83 18-2 0-2 5 0 5 27 1 52 2 79-1 26-3 51-9 76-16 53-16 105-34 158-50 106-33 213-65 321-88 5-1 4-11-2-11zm262 124c-87-13-176-21-265-21-44 0-88 3-132 8-21 2-42 5-63 8-24 3-46 10-70 13-2 0-2 5 0 5 22-2 44 1 66 0l67-1c44 0 88 0 132-2 89-2 177-3 265-1 5 0 5-9 0-9z" class="C"/><path d="M20823 10111c-15 48-271 353-496 328-73-8-46-410-46-410l-4-30-67-421 582-319 31 852z" class="J"/><path d="M20210 9577l67 422c121-37 384-150 527-456l-12-282v-2l-73 37-509 281z" class="C"/><path d="M19749 8810c-248 707 148 935 300 988 139 48 616 195 935-483s69-1016-242-1143-746-69-993 638z" class="J"/><g class="C"><path d="M19862 8751c18 0 34-2 52-3 20-1 35 0 52-12 9-7 11-23 5-32-13-22-38-27-62-26-26 0-46 7-65 24-20 16-5 48 18 49zm495 169c-17-6-31-14-47-22-18-9-33-14-44-32-5-9-1-25 8-31 20-15 45-10 67 0 24 10 39 24 51 47s-13 46-35 38zm-148 72c1-2 3 3 2 5-16 49-26 107 13 136 2 1 1 4-1 3-52-24-37-101-14-144z"/><path d="M20268 8954c80 17 39 177-35 161-73-16-33-176 35-161z"/><path d="M20297 8970c12 13 21 32 37 38 19 7 38-6 55-19 2-1 3 1 2 3-7 31-27 59-61 55-31-3-45-36-45-69 0-6 7-13 12-8zm-356-60c0-2-5 2-5 4-11 50-32 105-80 110-2 0-2 3-1 3 57 6 84-68 86-117z"/><path d="M19909 8848c-78-26-124 132-51 156 71 23 117-135 51-156z"/><path d="M19873 8848c-15 5-31 17-46 14-18-4-26-25-32-45-1-2-3-1-3 1-10 30-9 65 18 79 25 13 52-7 68-35 3-6 1-15-5-14zm236 581c-15 9-30 22-48 20s-37-14-51-24c-2 0-4 1-3 3 9 21 34 39 58 40 23 1 38-17 48-36 1-3-2-5-4-3zm-163-240s-30 70-39 105c-1 3 7 7 18 11 1 0 1 1 2 0 58 26 126 22 176-18 4-3 0-8-4-6-54 21-107 16-162 2 0-10 56-119 50-121-18-7-59-4-83-3 58-150 139-289 195-438 2-6-6-9-9-5-95 139-166 310-230 463-8 19 70 12 86 10z"/><path d="M19948 9298s19 51 58 79c14 10 30 17 49 18 40 1 50-32 52-63 2-25-4-49-4-49s-67 35-155 15z"/></g><path d="M20006 9377c14 10 30 17 49 18 40 1 50-32 52-63-40-7-87 8-101 45z" class="P"/><path d="M20962 9284c-77-26-221-297-124-676 0 0-63 346-52 403 12 56-80-152-6-459 0 0-202 75-356 76-155 1-243-25-250-38-8-13 222-22 297-72 0 0-430 73-610 38-21-4 101-378 422-481s669 156 754 300c0 0 131 56 223 298 93 243-215 639-298 611z" class="H"/><path d="M20853 9330s216-186 305-103c88 82-115 380-247 395-132 14-148-108-148-108l90-184z" class="J"/><path d="M21097 9311c2 0 2 3 0 3-93 13-158 80-210 153 33-25 72-33 106 8 2 2-1 5-3 4-33-17-59-17-90 5-21 15-39 37-57 57-6 6-18-1-13-9 0-1 1-1 1-2 25-108 148-238 266-219z" class="C"/><path d="M21158 10987c-300 999-731 1850-945 1962-293 154-1421 252-1802 246-164-2-152-1275 23-1273 448 4 1264-88 1283-78 40 21 806-864 1019-1137 474-608 571-216 422 280z" class="J"/><path d="M20148 11394c-99 125-201 247-310 364-28 29-54 58-87 85-9 6-14 14-34 18l-30 2-60 5-238 16-477 24-478 14c159-17 317-30 476-43l477-32 238-14 60-3 29-2c0 1 11-6 17-11 29-24 58-52 86-79 113-112 221-229 331-344z" class="C"/><g class="J"><path d="M17502 12037c81-30 66-73-80-121-147-49-764-116-722-329 41-215 913-106 1149-7 237 98 585 342 585 342-174 13-592 85-932 115z"/><path d="M18411 13195c-501 32-1122 81-1610-182-95-51-125-129-125-129-220-113-233-252-233-252-173-169-166-312-166-312s-258-136-201-306c62-190 412 39 681 47 617 19 1499-127 1677-139l-23 1273z"/></g><path d="M17390 12535c-182-9-360-14-539-47-197-37-380-106-568-171-6-2-9 6-4 9 322 172 748 249 1110 217 9-1 10-8 1-8zm42 374c-176-19-485-54-986-282-2-1-4 2-2 3 306 191 630 279 987 287 12 0 13-7 1-8zm20 201c-298-43-481-108-774-226-2-1-3 2-1 3 318 169 453 194 775 234 11 1 11-9 0-11z" class="C"/><path d="M20878 12146l-748-906s232-319 584-689c353-370 595-278 502 404-92 683-338 1191-338 1191z" class="E"/><path d="M20263 11131c63 61 117 131 175 197l163 190c110 135 217 271 321 409 2 3-2 6-4 4l-335-390c-55-66-108-133-161-200-54-68-114-134-163-207-2-2 1-5 4-3zm509 886c4 3 102 119 104 121l161-446c51-155 90-315 125-474 20-92 37-183 51-276 0-2 4-1 3 1-7 81-16 161-29 240 12-39 22-78 30-118 1-4 7-3 6 1-6 58-22 115-45 169-39 229-101 455-185 673-33 85-69 181-115 260l-110-148c0-2 2-4 4-3zm-581-882c26-34 52-68 80-101 5-7 11-13 16-20 25-48 50-95 80-140 1-1 4 0 3 2-18 37-38 73-58 109 42-51 85-100 132-146 1-2 3 0 2 2-50 70-105 136-157 204l-153 194s68 89 70 95c2 7-1 4-3 2-1-2-87-101-87-101 0-1 53-70 75-100z" class="C"/><path d="M1143 17036l5 2189c12 404 31 758 57 941 0 1 0 2 1 3 9 68 20 112 33 124 1 1 2 2 3 2 122 78 3355 72 3467 34 114-37 13-362-112-462-127-100-1365-651-1365-651l-25-2186-2064 6z" class="N"/><path d="M1132 18792l16 433c12 404 31 758 57 941 0 1 0 2 1 3 13 67 25 112 33 124 1 1 2 2 3 2 122 78 3355 72 3467 34 114-37 13-362-112-462-127-100-1365-651-1365-651l-10-441-2090 17z" class="F"/><path d="M3430 19212c-216-30-476 16-633 176-6 7 3 15 10 13 208-77 403-130 624-162 15-3 15-25-1-27zm159 85c-216-29-476 16-632 177-6 6 2 15 9 12 208-77 403-129 624-162 15-2 15-25-1-27zm159 86c-216-30-476 16-632 177-6 6 3 14 9 12 208-77 404-130 624-162 15-2 15-25-1-27z" class="C"/><path d="M4709 20329c-112 39-3344 44-3468-34-47-29-75-500-93-1070v-18l2085-26-1 35s1238 551 1365 651c125 100 225 425 112 462z" class="K"/><path d="M1147 19207l1 19c18 569 46 1040 93 1069 56 35 757 54 1515 60 906 7 1892-5 1954-25 112-38 12-363-113-463-127-100-1365-651-1365-651l1-35-695 9-1391 17z" class="E"/><path d="M4673 20204c-545-12-2744-11-3283 18-5 0-5 3 0 3 539 24 2738 5 3283-12 11 0 11-9 0-9z" class="C"/><path d="M2538 19190l218 1165c906 7 1892-5 1954-25 112-38 12-363-113-463-127-100-1365-651-1365-651l1-35-695 9z" class="G"/><path d="M960 19242l2338-42-1-5229c-29-1450-231-5796-231-5796l-1748 49s-442 971-144 2042l181 3877-395 5099z" class="K"/><path d="M1122 18828c60-12 125-14 186-20l207-18c133-10 266-16 399-20l805-13 458 7c6 0 6 9 0 10l-798 41c-265 12-532 25-797 27h-229c-76-2-155 4-229-5-5 0-7-8-2-9zm1938-2155c10-630 9-1411 8-2041 0-1260-26-2520-77-3779l-107-2119c-1-8 12-8 12 0 102 1263 163 2529 199 3796 36 1260 49 2670 21 3930-15 708-38 1415-85 2121-1 6-10 7-10 0l39-1908z" class="C"/><path d="M3649 17164l76 2114c12 404 31 758 57 941v3c10 68 21 112 34 124 1 1 2 1 3 2 122 78 3355 72 3467 34 114-37 13-362-112-462-127-100-1365-651-1365-651l-96-2111-2064 6z" class="N"/><path d="M3709 18844l16 434c12 404 31 758 57 941v3c14 67 26 112 34 124 1 1 2 1 3 2 122 78 3355 72 3467 34 114-37 13-362-112-462-127-100-1365-651-1365-651l-10-441-2090 16z" class="F"/><path d="M6007 19265c-216-30-476 16-633 176-6 7 3 15 10 13 208-77 403-130 623-162 16-3 15-25 0-27zm159 85c-216-29-476 16-632 177-7 6 2 15 9 12 208-77 404-129 624-162 15-2 15-25-1-27zm159 86c-216-30-476 16-632 176-6 7 3 15 9 13 208-77 404-130 624-162 15-3 15-25-1-27z" class="C"/><path d="M7286 20382c-112 39-3344 44-3467-34-48-29-76-500-94-1070v-18l2085-26-1 35s1238 551 1365 651c125 100 225 425 112 462z" class="E"/><path d="M7250 20257c-545-12-2744-11-3283 18-5 0-5 3 0 3 539 24 2738 5 3283-12 11 0 11-9 0-9z" class="C"/><path d="M2394 10433c1 1 1042 2995 1075 3550 28 473 102 5334 102 5334l2427-52-393-5443c-96-920-1020-3430-1661-5671l-2571 71s55 1181 616 2021c0 0 247 106 405 190z" class="K"/><g class="C"><path d="M3687 18866c280-15 571-32 852-33 278 0 557-4 835 5 158 5 315 6 473 17a4.6 4.6 0 0 1 0 9c-280 24-561 28-842 33-278 6-557 10-835 5l-473-13c-17-1-27-22-10-23zm275-9290c94 286 175 577 261 866l257 875c166 564 329 1130 457 1704 129 578 214 1161 243 1753 30 601 34 1204 46 1806l31 1815v226c0 7-11 7-11 0-33-601-41-1204-56-1806l-45-1807c-21-598-83-1191-203-1778-118-577-276-1144-440-1708l-280-967-278-975c-3-11 14-15 18-4zm-966 898c-121 2-242-3-361-22-121-20-235-56-352-88-112-29-230-31-344-46-116-15-232-42-339-91-5-2-9 6-4 8 106 51 213 98 326 130 116 34 236 35 354 61 121 26 238 62 362 72 120 11 241 7 360-16 4-1 2-8-2-8z"/><path d="M3216 12874l-77-266-168-536-355-1058c-71-198-134-400-216-594-2-5-9-3-8 2 44 183 103 360 156 540l168 536 347 1060 107 294c38 99 68 203 113 299 2 6 10 3 9-3-19-92-50-183-76-274zm357-8402c64 41 148 45 213 6 64-40 99-115 93-189 71 39 158 42 221-19 65-64 63-159 12-230-1-1-2 0-2 1 40 69 41 160-20 218-52 50-115 51-175 29 60 0 120-18 162-63 45-49 60-124 31-184 70-31 133-88 150-165 13-65-10-136-65-173 62-44 96-124 79-199-16-70-74-125-143-142 88-72 71-215-34-264 27-31 31-76 13-114-20-44-63-69-107-86 5-42-9-86-43-114-45-36-108-31-150 5-42-63-97-125-174-144-62-16-135 1-174 54-91-102-250-103-342 0-49-31-110-30-161-4-51 27-77 59-88 74-45-24-102-14-139 22-36 35-45 82-43 129-6 12-14 21-27 30-57 43-90 106-88 177-80 26-121 124-82 198-70 50-86 155-34 223-51 44-82 109-81 177 0 52 23 110 73 129-28 30-17 80 10 109 11 11 23 20 35 29 15 10 37 19 47 33 12 16 9 38 12 55a228.5 228.5 0 0 0 12 37c38 90 141 144 236 122 13 68 78 107 142 122 22 4 43 6 64 6 20 1 38 3 54 16 11 7 19 17 29 24 35 25 76 23 116 16 43 181 269 188 368 49zm-847-1653h0c34-44 87-60 140-45l-3 6s-18 0-26 1c-16 1-31 5-45 11-30 13-57 35-75 62-7 12-13 26-18 39 0 2-1 4-2 5 3-28 11-55 29-79zm1226 8h0c-35-37-91-49-137-28l-3-3c45-29 93-42 139-3 33 27 41 64 36 100h-1c-5-24-16-47-34-66zm-739 1595h0 2c59 109 191 144 294 92-110 65-242 58-296-92z"/></g><path d="M3364 5445c2 51 174 413 400 446 73 11 148-388 148-388l13-28 171-395-424-404-62-54-88 249c-2 7-4 13-7 20-3 8-6 15-8 23-8 20-15 41-22 63-5 16-11 31-16 48-6 17-11 34-16 51-51 169-90 347-89 369z" class="N"/><path d="M3522 4871c55 351 291 535 403 604l171-395-424-404-62-54-88 249z" class="C"/><path d="M4772 4416c94 749-341 897-505 910-147 12-648 62-819-673s147-1016 480-1075c334-60 750 90 844 838z" class="N"/><g class="C"><path d="M4715 4259c-18-1-34-5-52-8-19-3-35-4-51-18-8-7-8-24-1-33 15-20 40-22 64-19 26 4 45 13 63 32 18 18 0 48-23 46zm-485 54c17-3 33-9 50-14 19-5 35-8 49-24 7-8 6-24-2-32-18-19-43-18-66-12-26 6-44 17-60 38-15 20 6 48 29 44zm121 179c-1-2-4 3-4 5 6 51 4 110-41 131-1 1-1 3 1 3 56-13 58-92 44-139z"/><path d="M4301 4442c-83 0-76 166 1 166 75 0 69-166-1-166z"/><path d="M4269 4452c-14 10-28 27-45 30-20 2-36-14-50-31-2-1-3 0-3 2 1 32 14 64 49 68 31 3 52-26 59-58 1-6-4-15-10-11zm357 1c0-2 4 2 4 4 0 51 9 110 56 126 1 0 1 3-1 3-57-7-67-85-59-133z"/><path d="M4670 4397c82-8 94 157 18 165-75 8-87-157-18-165z"/><path d="M4705 4406c14 8 28 23 44 23 18 0 30-19 40-37 2-2 3-1 3 1 3 32-5 66-35 74-27 7-49-18-59-49-2-6 2-15 7-12zm-339 482c12 13 24 29 43 31 18 1 39-6 55-13 2 0 3 1 2 3-13 20-41 32-65 27-23-4-35-24-40-45-1-3 3-4 5-3zm205-196s14 76 16 112c0 4-8 6-20 7h-2c-63 13-129-5-170-56-3-3 2-7 5-5 49 33 103 39 159 37 2-10-29-129-23-130 19-3 59 9 83 14-26-159-77-313-100-472-1-6 7-8 9-3 65 158 99 340 129 504 4 21-71-3-86-8z"/><path d="M4562 4783s-27 54-72 79c-17 9-36 15-56 13-43-4-51-42-48-75 1-28 10-53 10-53s69 47 166 36z"/></g><path d="M4490 4862c-17 9-36 15-56 13-43-4-51-42-48-75 44-3 93 20 104 62z" class="P"/><g class="C"><path d="M4237 3700s38 115 3 203c-73 179-285 145-352 219-63 68-32 201-89 269-79 95-195 67-205 128-11 61-39 255-114 284s-502-1227 500-1246c0 0 134-64 353 31 242 105 362 482 362 482l-36-28c-50-40-71-78-108-104-59-40-88-22-148-61-92-59-166-177-166-177z"/><path d="M4219 3645c18 49 31 100 38 152 7 51 8 105-12 151-21 44-64 76-110 96s-98 29-148 52c-25 13-49 29-64 55-16 25-21 53-25 79-8 52-15 103-47 142s-80 64-131 64c-50 3-107-7-155 18 50-22 102-6 155-5 54 1 109-23 145-65 39-42 47-100 55-151 4-25 10-50 23-70 12-19 33-34 55-45 44-22 97-31 146-53 25-11 49-26 69-44 20-17 40-39 49-66 20-52 17-108 7-160-11-52-28-102-50-150zm22 45c12 47 31 92 56 135s61 82 107 105c23 12 49 17 71 23 21 6 43 18 56 33 14 18 28 41 47 57s42 28 66 33c-22-11-42-24-57-42-17-17-27-37-41-59-16-24-40-35-64-44-25-8-47-12-67-23-41-21-74-54-101-94-28-38-51-81-73-124z"/></g><path d="M3599 4652s-202-204-298-128c-95 77 85 392 217 416 132 25 157-96 157-96l-76-192z" class="N"/><path d="M3355 4614c-2 0-2 3 0 3 93 20 153 93 199 170-31-27-70-39-107-1-2 2 1 6 3 5 34-14 61-12 90 12 20 17 36 40 53 62 5 7 18 0 14-8-1-1-1-2-1-2-17-111-130-251-251-241z" class="C"/><g class="E"><path d="M3499 4937c6 34-111-70-118-87-8-17-83-59-106-91-22-32-71-128-76-152-6-24-59-79-64-121-5-43-37-426 186-713 222-288 447-334 447-334s155-48 343-59 512 392 514 402c2 9-7 40 5 66 13 25 44 48 33 75s35 87 37 114c3 27-3 35 4 53s-140-445-732-537c0 0-599 640-473 1384z"/><path d="M4703 4085c0 1 1 3 1 5 1 1 0-1-1-5z"/><path d="M4703 4085c0 1 1 3 1 5 1 1 0-1-1-5z"/></g><path d="M4404 3564c6-3 13-5 20-5v1c16 15 33 31 48 47 1 19-10 38-29 46-25 11-54 0-65-25-10-25 1-54 26-64zm-274 25h0c32 9 62 21 91 33 6-13 6-27 1-40-11-25-40-36-65-25-14 6-24 18-27 32zm359 199h0c25 23 47 45 67 67 21-12 30-38 20-61-11-25-39-37-64-26-10 4-18 12-23 20zm-1071-127h0c13 19 39 27 61 18 25-11 36-40 25-64-3-8-9-15-15-20-23 20-47 41-71 66zm62 408h0c11 25 40 37 65 26s36-40 25-64c-11-25-39-37-64-26s-36 40-26 64zm510-647h0c11 24 40 36 64 25 25-11 37-40 26-64v-1c-32 3-64 7-93 11h0c-2 9-1 19 3 29zm-248 143h0c11 25 39 36 64 26 25-11 36-40 26-65-11-24-40-36-65-25-24 11-36 39-25 64zm-109 252h0c11 25 40 36 65 25 24-10 36-39 25-64s-39-36-64-25c-25 10-36 39-26 64zm-356 101h0c11 25 39 36 64 25s36-39 26-64c-11-25-40-36-65-26-24 11-36 40-25 65zm44 369h0c11 25 40 36 64 26 25-11 37-40 26-65-11-24-40-36-64-25-25 11-37 39-26 64zm109 542h0c10 23 35 34 59 27-4-32-6-63-7-95-8-1-18 0-27 4-24 10-36 39-25 64zm66-405h0c3 8 9 15 16 20 6-30 13-59 20-87-3 0-7 1-11 3-24 11-36 39-25 64zm-350-227h0c12 5 26 6 39 0 25-11 36-40 26-64-8-19-27-30-46-30-8 32-14 64-19 94zm149 377h0c11 25 40 36 64 26 25-11 37-40 26-65-11-24-40-36-64-25-25 11-37 39-26 64zm-77 79h0c10 22 23 47 35 69 5-12 6-27 0-40-6-16-20-26-35-29zm-85-186h0c9 2 18 1 26-3 25-11 36-40 25-65-9-21-31-32-53-28-1 43 1 76 2 96z" class="F Q"/><path d="M3381 4850c-10-33-12-68-15-102-4-35-5-70-7-104-3-69-6-139-5-208 0-17 0-35 1-52 2-16 7-32 13-48 11-33 26-65 39-97l42-95 44-94c-34 60-65 122-95 186-14 31-28 63-40 96-6 16-12 33-14 51s-2 35-2 53c0 69 3 139 8 208 2 35 5 70 10 104 2 17 4 35 7 52 4 17 7 34 14 50zm-57-713c-24 34-44 71-62 108-18 38-34 76-46 116s-23 80-26 122c-4 42-3 84 9 124-2-10-3-21-4-31-1-5-1-10-1-15v-16-15l1-15c2-10 2-21 4-31l5-30 7-30c2-10 5-20 7-30l9-29c12-40 28-78 43-116 8-19 17-38 26-56a1461 1461 0 0 1 28-56zm1297-310c-22-33-50-61-77-89-28-28-57-55-86-81-30-26-59-53-91-76-33-23-69-40-107-52 18 8 36 17 53 27s33 20 48 32c16 12 30 25 45 38l44 40 87 79c15 13 29 26 43 40 15 13 29 27 41 42zm41 114c-14-25-31-48-48-70-17-23-35-45-55-65-10-11-20-21-31-30-12-9-23-17-34-26l-34-25c-12-8-23-17-35-25 10 10 21 20 31 29l32 28c10 10 21 19 32 28s21 19 30 29c20 20 38 42 57 63l28 32c9 10 18 21 27 32zm-1295-225c101 29 332 92 381 82 12-2 29-8 49-16 95-144 175-229 175-229 74 11 141 29 202 50 56-44 115-113 136-139-70-51-141-87-199-84-188 11-343 59-343 59s-194 40-401 277z" class="R G"/><path d="M3925 3452s163-271 435-305c0 0-7 271-102 361-47 45-261 66-286 31-26-35-47-87-47-87z" class="E"/><path d="M4208 3193c4 22-8 43-29 52-17 8-36 5-49-6 24-17 50-32 78-46zm70 207h0c6 14 17 24 30 27 12-29 22-61 29-93-11-3-23-3-34 2-24 11-36 40-25 64zm-288 22h0c11 24 40 36 64 25 25-11 37-40 26-64-11-25-40-36-64-26-25 11-37 40-26 65z" class="F Q"/><path d="M3925 3452s21 52 46 87c1 1 3 3 5 4 1 1 3 2 6 4 2 0 3 1 6 2 24 9 70 10 118 4-7-36-17-83-31-116-12-30-47-55-83-74-44 50-67 89-67 89z" class="G R"/><path d="M3859 3490s-381-54-563 31c0 0 103 197 293 243 86 21 334-137 320-181-15-45-50-93-50-93z" class="E"/><path d="M3440 3589c25-11 53 1 64 26 11 24 0 53-25 64s-54-1-65-25c-10-25 1-54 26-65zm302-24h0c11 25 39 36 64 26 25-11 36-40 26-65-11-24-40-36-65-25-24 11-36 39-25 64zm-96 195h0c12-2 24-6 37-11-8-1-16 0-24 3-5 3-9 5-13 8z" class="F Q"/><path d="M3772 3481c-6 35-9 86 9 125 10 23 29 44 50 62 49-34 83-68 78-85-14-45-50-93-50-93s-34-5-87-9z" class="G R"/><path d="M3820 3577c33 61 108 84 169 51 61-32 84-108 52-169-33-61-109-84-169-51-61 32-84 108-52 169zm215 3871l-91 703-2626 68s800-2172 1647-2709c424-268 803-139 982 177 45 79 412 877 390 1273-21 349-302 488-302 488z" class="E"/><path d="M3736 5459l-698 9c23-13 45-24 67-33l576-7c19 9 37 19 55 31zm211 228h0l-15-24-1179 15-34 33 1232-16c-2-3-4-6-4-8zm99 213h0l-1515 19-26 32 1554-19c-4-11-9-21-13-32zm96 238h0l-1792 22c-7 11-15 22-22 33l1826-23-12-32zm83 237h0l-2033 26c-6 11-13 21-19 32l2062-26a392.7 392.7 0 0 0-10-32zm68 238h0l-2243 29c-7 10-13 21-18 32l2268-29c-2-11-4-21-7-32zm41 238h0l-2416 31c-5 11-11 21-17 32l2435-31c0-10-1-21-2-32zm-2538 271h0c-5 11-11 22-16 32l2525-32c4-10 7-21 10-32l-2519 32zm-116 240h0c-4 11-9 21-14 32l2485-32c10-10 21-20 31-32l-2502 32zm-108 240h0l-15 32 2458-31 4-32-2447 31zm-104 240h0c-4 11-9 22-13 32l2529-32 4-32-2520 32zm-97 240h0c-5 11-9 22-13 32l2595-33 4-32-2586 33z" class="F"/><g class="N"><path d="M3491 6014c326 372 1661 1525 2123 1428 723-151 1447-604 1851-841 128-76-638-1295-868-1122-296 223-921 570-1109 622-128 36-1051-355-1694-622-537-223-715 63-303 535z"/><path d="M6396 5646l201-167c44-34 84-80 164-193 188-268 819-800 1713-581 343 84 434 361 62 337-261-17-441-51-528-33 0 0 297 270 269 501-12 103-52 384-115 598 0 0-50-1-114-12 0 0-44 290-362 374l-329 194-961-1018z"/><path d="M6982 5059c166-41 521-121 835-86 348 39 1007 208 976 464-23 188-281 146-281 146s258 127 200 293c-52 150-250 106-250 106s143 104 65 239c-95 163-380-82-618 0-54 18-927-1162-927-1162z"/></g><path d="M7714 5333c163-12 541 54 796 243 5 4 5 11-1 8-324-148-654-224-795-247-2-1-2-3 0-4zm-29 353c142 3 528 89 780 290 5 4 4 11-1 8-333-170-640-263-780-295-2 0-1-3 1-3z" class="C"/><path d="M5122 5990l-346 1254s-872-700-1323-1199c-452-500-265-792 345-618 609 175 1324 563 1324 563z" class="E"/><path d="M4847 5956c-11 43-28 85-42 127l-40 127-75 246c-52 166-107 331-149 501-1 2 3 4 4 2 70-157 123-323 174-489l73-251c12-43 23-86 33-130 10-43 16-89 28-131 1-3-5-5-6-2z" class="C"/><path d="M3598 6198l434 400 218 199c73 66 146 131 221 195-81-56-158-117-234-180-76-64-149-130-222-196l-213-205c-70-70-138-140-204-213z"/><path d="M3640 6298c50 37 103 65 158 96-16-4-31-8-45-14-15-6-28-14-42-21-27-17-53-35-71-61z"/></g><defs ><path id="B" d="M26599 17071h-50v-100h50v100zm0-200h0-50v-100h50v100zm0-200h0-50v-100h50v100zm0-200h0-50v-100h50v100zm0-200h0-50v-100h50v100zm0-200h0-50v-100h50v100zm0-200h0-50v-100h50v100zm0-200h0-50v-100h50v100zm0-200h0-50v-100h50v100zm0-200h0-50v-101h50v101zm0-201h0-50v-100h50v100zm0-200h0-50v-100h50v100zm0-200h0-50v-100h50v100zm0-200h0-50v-100h50v100zm0-200h0-50v-100h50v100zm0-200h0-50v-100h50v100zm0-200h0-50v-100h50v100z"/><path id="C" d="M5319 4354h-100v-50h100v50zm-200 0h0-100v-50h100v50zm-200 0h0-100v-50h100v50zm-200 0h0-100v-50h100v50zm-200 0h0-100v-50h100v50zm-200 0h0-100v-50h100v50zm-200 0h0-100v-50h100v50zm-200 0h0-100v-50h100v50zm-200 0h0-100v-50h100v50zm-200 0h0-100v-50h100v50zm-200 0h0-100v-50h100v50zm-200 0h0-100v-50h100v50zm-200 0h0-100v-50h100v50zm-200 0h0-100v-50h100v50zm-201 0h0-100v-50h100v50zm-200 0h0-100v-50h100v50zm-200 0h0-100v-50h100v50z"/><path id="D" d="M1893 4179h-50v-100h50v100zm0-200h0-50v-100h50v100zm0-200h0-50v-100h50v100zm0-200h0-50v-100h50v100zm0-200h0-50v-100h50v100zm0-200h0-50v-100h50v100zm0-200h0-50v-100h50v100zm0-200h0-50v-100h50v100zm0-200h0-50v-100h50v100zm0-200h0-50v-100h50v100zm0-200h0-50v-100h50v100zm0-200h0-50v-100h50v100zm0-200h0-50v-100h50v100zm0-200h0-50v-100h50v100zm0-200h0-50v-100h50v100zm0-200h0-50v-101h50v101zm0-201h0-50V878h50v100z"/><path id="E" d="M2118 4579h-499v-499h499v499zm-449-50h0 399v-399h-399v399z"/><path id="F" d="M2118 978h-499V479h499v499zm-449-50h0 399V529h-399v399z"/><path id="G" d="M29111 6335c58 2 109-34 117-94 15-107-91-204-172-260-84-58-193-103-291-58-63 29-63 101-18 145 51 51 119 85 173 134 59 53 105 129 191 133z"/></defs></svg>