<svg xmlns="http://www.w3.org/2000/svg" width="97" height="111" shape-rendering="geometricPrecision" image-rendering="optimizeQuality" fill-rule="evenodd" viewBox="0 0 414 475" xmlns:v="https://vecta.io/nano"><path d="M21 99h372c9 0 16-6 20-15 3-10 1-20-5-26l-17-19c-4-5-9-7-15-7h-87c-9 0-16-5-19-13l-3-6c-4-8-11-13-19-13h-82c-8 0-15 5-19 13l-2 6c-4 8-11 13-19 13H38c-5 0-10 2-15 7L6 58c-6 6-8 16-4 26 3 9 10 15 19 15z"/><path fill-rule="nonzero" d="M121 236l18 132c2 15 16 26 32 26h72c17 0 30-11 32-26l18-132c1-8-2-17-8-23-6-7-14-11-24-11H153c-9 0-18 4-24 11-6 6-9 15-8 23zM63 122h289c11 0 20 4 28 12 7 8 10 17 9 28l-38 282c-3 18-18 31-37 31H101c-19 0-35-13-37-31L25 162c-1-11 2-20 10-28 7-8 16-12 28-12z"/></svg>