<svg xmlns="http://www.w3.org/2000/svg" width="111" height="111" shape-rendering="geometricPrecision" image-rendering="optimizeQuality" fill-rule="evenodd" viewBox="0 0 540 540" xmlns:v="https://vecta.io/nano"><path fill-rule="nonzero" d="M116 366l137-100c10-7 24-7 34 0l137 100c4 3 8 3 12 1s7-5 7-10V110c0-9-8-16-17-16H115c-10 0-18 7-18 16v247c0 5 3 8 7 10s8 2 12-1zm137 18L46 534c-9 7-20 8-30 3S0 523 0 512V39C0 17 18 0 40 0h460c22 0 40 17 40 39v473c0 11-6 20-16 25s-21 4-30-3L287 384a27.08 27.08 0 0 0-34 0z"/></svg>