<svg xmlns="http://www.w3.org/2000/svg" width="111" height="116" shape-rendering="geometricPrecision" image-rendering="optimizeQuality" fill-rule="evenodd" viewBox="0 0 856 893" xmlns:v="https://vecta.io/nano"><path fill-rule="nonzero" d="M377 24c3-3 5-6 8-8 13-11 28-16 43-16s30 5 43 16a30.44 30.44 0 0 1 8 8l1 2 60 75 94-26 1-1c5-1 11-2 16-2 15 0 29 5 40 14 12 8 21 21 24 36 2 5 2 11 2 16h0l4 95 92 34 1 1c4 1 8 3 12 5 13 9 22 22 27 36 4 14 4 30-2 45h0c-1 4-3 8-6 11v1l-54 80 54 81v1c3 3 5 7 6 11 6 15 6 31 2 45-5 14-14 27-27 36-4 2-8 4-12 5l-1 1-92 34-4 95h0c0 5 0 11-2 16h0c-3 15-12 28-24 36-11 9-25 14-40 14-5 0-11-1-16-2l-1-1-94-26-60 75-1 2a30.44 30.44 0 0 1-8 8c-13 11-28 16-43 16s-30-5-43-16c-3-2-5-5-8-8l-1-2-59-75-94 26-2 1c-5 1-11 2-16 2-15 0-29-5-40-14-12-8-21-21-24-36-2-5-2-11-2-16h0l-4-95-92-34-1-1c-4-1-8-3-12-5-13-9-22-22-27-36-4-14-4-30 2-45h0c2-4 3-8 6-11v-1l54-81-54-80v-1c-3-3-5-7-6-11-6-15-6-31-2-45 5-14 14-27 27-36 4-2 8-4 12-5l1-1 92-34 4-95h0c0-5 0-10 2-16h0c3-15 12-28 24-36 11-9 25-14 40-14 5 0 11 1 16 2l2 1 94 26 59-75 1-2zm103 142l-52-66-51 66h0c-9 11-20 18-32 22h0c-13 4-26 5-39 1h0l-81-23-4 85v2c-1 13-6 24-13 34s-17 18-29 23h-1l-80 30 47 70c8 11 11 24 11 36 0 13-3 26-11 37l-47 70 80 30h1c12 5 22 13 29 23s12 21 13 34v2l4 85 81-23h0c13-4 26-3 39 1h0c12 4 23 11 32 22h0l51 66 52-66h-1c9-11 20-18 32-22h0c13-4 26-5 39-1h0l82 23 3-85v-2c1-13 6-24 13-34s17-18 30-23h1l79-30-47-70h0c-8-11-11-24-11-37 0-12 3-25 11-36h0l47-70-79-30h-1c-13-5-23-13-30-23s-12-21-13-34v-2l-3-85-82 23h0c-13 4-26 3-39-1h0c-12-4-23-11-32-22h1zm292 152h0 0 0zm0 257h0 0 0zm-688 0h0 0 0zm0-257h0 0 0z"/><path d="M419 585l177-222 4-5c11-19 7-44-11-57-19-16-47-12-63 6L380 490l-54-52-4-4c-17-14-43-13-59 4-18 17-18 44 0 61l89 90 5 4c19 15 47 11 62-8z"/></svg>