<svg xmlns="http://www.w3.org/2000/svg" width="111" height="90" shape-rendering="geometricPrecision" image-rendering="optimizeQuality" fill-rule="evenodd" viewBox="0 0 1183 962" xmlns:v="https://vecta.io/nano"><path d="M1119 0H971v112c0 44-37 81-83 81-44 0-81-37-81-81V0H378v112c0 44-37 81-81 81-46 0-82-37-82-81V0H66C30 0 0 30 0 66v2 826 2c0 35 30 65 65 66h1054c35-1 64-31 64-66v-2V68v-2c0-35-29-65-64-66zM297 739h-74v-74h74v74zm0-184h-74v-74h74v74zm0-185h-74v-73h74v73zm221 369h-74v-74h74v74zm0-184h-74v-74h74v74zm0-185h-74v-73h74v73zm221 369h-74v-74h74v74zm0-184h-74v-74h74v74zm0-185h-74v-73h74v73zm222 369h-74v-74h74v74zm0-184h-74v-74h74v74zm0-185h-74v-73h74v73z"/></svg>