<svg xmlns="http://www.w3.org/2000/svg" width="112" height="98" shape-rendering="geometricPrecision" image-rendering="optimizeQuality" fill-rule="evenodd" viewBox="0 0 549 481" xmlns:v="https://vecta.io/nano"><path stroke="#332c2b" stroke-width="4.417" d="M36 2h477c18 0 34 16 34 34v409c0 18-16 34-34 34H36c-18 0-34-16-34-34V36C2 18 18 2 36 2zm393 69c-28 0-51 22-51 51 0 28 23 51 51 51s51-23 51-51c0-29-23-51-51-51zm50 322v-70L376 221c-3-3-7-5-12-5s-9 2-11 5l-44 42 130 130h40zm-409 0h321L285 287l-91-91c-4-3-8-5-12-5-5 0-9 2-13 5l-99 98v99z"/></svg>