<svg xmlns="http://www.w3.org/2000/svg" width="111" height="89" shape-rendering="geometricPrecision" image-rendering="optimizeQuality" fill-rule="evenodd" viewBox="0 0 742 596" xmlns:v="https://vecta.io/nano"><path d="M73 0h595c41 0 74 33 74 73v450c0 40-33 73-74 73H73c-40 0-73-33-73-73V73C0 33 33 0 73 0zm163 365l44-7c9-1 18 3 22 12s10 17 17 23c3 2 7 4 11 6v-71c-34-9-56-18-68-26-26-18-39-42-39-73 0-28 11-51 33-70 18-15 42-24 74-27v-6c0-15 12-27 26-27h11c15 0 27 12 27 27v6c27 3 47 10 63 20 14 10 26 23 34 40 3 5 3 12 0 18-2 5-7 9-14 10l-40 8c-9 2-17-2-21-10-4-7-9-12-15-16-2-2-4-3-7-4v61c43 10 74 22 91 37 18 15 27 36 27 63 0 29-12 55-37 76-20 17-47 27-81 30v6c0 15-12 27-27 27h-11c-14 0-26-12-26-27v-6c-27-4-50-12-68-25-18-12-32-28-41-47-3-6-3-12 0-18s8-9 15-10zm158 38c8-2 16-5 21-10 8-5 12-13 12-22 0-7-3-12-7-16s-13-8-26-11v59zm-64-209c-8 2-14 4-18 7-7 5-10 10-10 17s3 12 9 16c3 2 9 5 19 8v-48z"/></svg>