<svg xmlns="http://www.w3.org/2000/svg" width="111" height="105" shape-rendering="geometricPrecision" image-rendering="optimizeQuality" fill-rule="evenodd" viewBox="0 0 540 511" xmlns:v="https://vecta.io/nano"><path d="M32 299h476c18 0 32-11 32-24v-95c0-13-14-24-32-24H32c-17 0-32 11-32 24v95c0 13 15 24 32 24zm182-103h112c15 0 15 26 0 26H214c-15 0-15-26 0-26zM91 21l-68 79c-4 5-5 12-1 18 4 5 11 9 19 9h458c8 0 15-4 19-9 4-6 3-13-1-18l-67-79C438 8 420 0 399 0H141c-21 0-39 8-50 21zM32 511h476c18 0 32-14 32-31V359c0-17-14-31-32-31H32c-17 0-32 14-32 31v121c0 17 15 31 32 31zm182-132h112c15 0 15 34 0 34H214c-15 0-15-34 0-34z"/></svg>