<svg xmlns="http://www.w3.org/2000/svg" width="111" height="83" shape-rendering="geometricPrecision" image-rendering="optimizeQuality" fill-rule="evenodd" viewBox="0 0 598 449" xmlns:v="https://vecta.io/nano"><path fill="#4285f4" d="M136 218V41L98 12C58-18 0 11 0 61v55 292c0 23 19 41 41 41h95V218z"/><path fill="#34a853" d="M462 41v177 231h95c23 0 41-18 41-41V116 61c0-50-57-79-98-49l-38 29z"/><path fill="#c5221f" d="M136 41L98 12C58-18 0 11 0 61v55l136 102 163 122 163-122V41L299 163 136 41z"/><path fill="#ea4335" d="M136 218V41l163 122L462 41l38-29c41-30 98-1 98 49v55L462 218 299 340 136 218z"/><path fill="#fbbc04" d="M462 41v177l136-102V61c0-50-57-79-98-49l-38 29z"/></svg>