<svg xmlns="http://www.w3.org/2000/svg" width="111" height="109" shape-rendering="geometricPrecision" image-rendering="optimizeQuality" fill-rule="evenodd" viewBox="0 0 742 731" xmlns:v="https://vecta.io/nano"><path d="M196 495c-52-35-69-111-59-170 3-18 9-36 18-52 5-7 13-14 16-22 2-7-4-22-5-30-2-16 0-33 4-48 2-7 3-20 12-21 25-5 56 14 76 26 7 3 13 10 21 11 9 2 24-4 33-6a334.15 334.15 0 0 1 118 0c9 2 24 8 33 6 7-1 14-8 21-11 20-12 51-31 75-26 9 1 11 14 13 21 4 15 6 32 4 48-1 8-8 23-5 30 3 8 10 15 15 22 9 16 16 34 18 52 10 59-6 135-58 170-34 24-70 30-109 37 33 34 25 85 25 129 0 9-2 21-1 33v37c161-41 281-186 281-360C742 166 576 0 371 0S0 166 0 371c0 174 119 319 281 360v-37c0-12-1-24-1-33s-1-18-1-27c-37 2-84 9-112-23-15-16-20-39-33-57-11-14-30-20-35-36 39-19 65 28 85 52 22 24 63 30 91 14 4-2 6-5 7-9l1-2c3-15 10-29 21-41-38-7-75-13-108-37z"/></svg>