<svg xmlns="http://www.w3.org/2000/svg" width="150" height="150" shape-rendering="geometricPrecision" image-rendering="optimizeQuality" fill-rule="evenodd" viewBox="0 0 1114 1114" xmlns:v="https://vecta.io/nano"><defs><radialGradient id="A" gradientUnits="userSpaceOnUse" gradientTransform="matrix(-0.833354 -2.28644 3.6355 -1.47926 -3616 4317)" cx="523.443" cy="1258.49" r="556.855" fx="523.443" fy="1258.49"><stop offset="0" stop-color="#ffd45e"/><stop offset=".341" stop-color="#ff7708"/><stop offset=".549" stop-color="#de0969"/><stop offset=".769" stop-color="#7d14ba"/><stop offset="1" stop-color="#1a2beb"/></radialGradient></defs><path fill="url(#A)" d="M0 876V238C0 107 107 0 238 0h638c131 0 238 107 238 238v638c0 131-107 238-238 238H238C107 1114 0 1007 0 876z"/><path d="M384 148c-130 0-236 106-236 236v346c0 130 106 236 236 236h346c130 0 236-106 236-236V384c0-130-106-236-236-236H384zM223 382c0-87 70-157 157-157h354c86 0 156 70 156 157v354c0 86-70 156-156 156H380c-87 0-157-70-157-156V382zm334-37c-117 0-212 95-212 212s95 212 212 212 212-95 212-212-95-212-212-212zM419 557c0-76 62-138 138-138s137 62 137 138a136.57 136.57 0 0 1-137 137c-76 0-138-61-138-137zm308-220c0 27 22 49 49 49s50-22 50-49c0-28-23-50-50-50s-49 22-49 50z" fill="#fff"/></svg>