<svg xmlns="http://www.w3.org/2000/svg" width="111" height="143" shape-rendering="geometricPrecision" image-rendering="optimizeQuality" fill-rule="evenodd" viewBox="0 0 541 695" xmlns:v="https://vecta.io/nano"><path d="M231 518c11 11 24 16 39 16 16 0 29-5 40-16l21-21c12-12 28-18 45-16l29 2c16 1 29-3 41-13s19-22 20-38l3-30c1-17 9-31 23-41l25-17c12-9 20-21 23-36s-1-29-9-42l-18-24c-9-14-12-30-8-47l8-29c4-15 2-29-6-42-7-13-19-22-34-26l-29-8c-16-4-29-15-36-30l-12-27c-7-14-18-24-32-29-15-6-29-5-43 1l-27 13c-15 7-32 7-47 0L220 5c-28-13-62 0-75 28l-12 27c-8 15-20 26-37 30l-29 8c-14 4-26 13-34 26-7 13-9 27-5 42l8 29c4 17 1 33-9 47l-17 24c-9 13-12 27-9 42s10 27 23 36l24 17c15 10 23 24 24 41l3 30c1 16 8 28 20 38 11 10 25 14 40 13l30-2c17-2 33 4 45 16l21 21zm-24 177c-6-1-11-3-15-6l-18-10c-9-6-22-9-36-8l-25 1c-12 1-24-1-33-6-10-5-15-11-17-18l-2-15c-1-5-4-10-10-15l18-119 6 3c12 6 26 8 41 8l30-2c17-1 33 2 45 10l21 12c6 3 12 6 18 7l-23 158zm127 0c5-1 10-3 15-6l17-10c10-6 23-9 37-8l24 1c13 1 24-1 34-6s15-11 16-18l2-15c1-5 5-10 11-15l-18-119-6 3c-12 6-26 8-41 8l-30-2c-17-1-33 2-45 10l-21 12c-6 3-12 6-18 7l23 158z"/><path fill="#fff" d="M256 358c4 4 9 6 14 6 6 0 11-2 15-6l7-7c5-5 10-7 17-6l10 1c6 0 11-1 15-5 5-4 7-8 8-14l1-11c0-6 3-11 8-15l9-6c5-3 7-7 8-13 1-5 0-11-3-15l-6-9c-4-5-5-11-3-17l3-11c1-5 0-10-2-15-3-5-7-8-13-9l-10-3c-6-2-11-6-13-11l-5-10c-2-5-6-9-12-11-5-2-10-1-15 1l-10 5c-6 2-12 2-17 0l-10-5c-10-5-22 0-27 10l-5 10c-2 5-7 9-13 11l-10 3c-6 1-10 4-13 9s-3 10-2 15l3 11c2 6 1 12-3 17l-6 9c-3 4-5 10-4 15 1 6 4 10 9 13l9 6c5 4 8 9 8 15l1 11c1 6 3 10 7 14 5 4 10 5 15 5l11-1c6-1 12 1 16 6l8 7z"/></svg>