<svg xmlns="http://www.w3.org/2000/svg" width="111" height="96" shape-rendering="geometricPrecision" image-rendering="optimizeQuality" fill-rule="evenodd" viewBox="0 0 540 465" xmlns:v="https://vecta.io/nano"><path d="M285 24C332 1 449 0 506 0c19 0 34 16 34 34v370c0 10-3 18-10 24-7 7-15 10-24 10-58 0-174 2-221 24-10 5-20 5-30 0-47-22-163-24-221-24-9 0-17-3-24-10-7-6-10-14-10-24V25C0 11 11 0 24 0h20c14 0 25 11 25 24v203c0 6 3 11 9 13 5 3 12 1 16-3l1-1c6-6 15-6 21 0l1 1c5 4 11 5 16 3 6-2 9-7 9-13V40c0-10 4-19 12-25 8-7 17-10 27-9 30 4 57 10 74 18 10 4 20 4 30 0zm61 168h118c6 0 12 5 12 12h0c0 7-6 12-12 12H346c-6 0-12-5-12-12h0c0-7 6-12 12-12zm0-64h118c6 0 12 6 12 13h0c0 6-6 12-12 12H346c-6 0-12-6-12-12h0c0-7 6-13 12-13zm0 191h118c6 0 12 5 12 12h0c0 7-6 12-12 12H346c-6 0-12-5-12-12h0c0-7 6-12 12-12zm0-64h118c6 0 12 6 12 13h0c0 6-6 12-12 12H346c-6 0-12-6-12-12h0c0-7 6-13 12-13z"/></svg>