<svg xmlns="http://www.w3.org/2000/svg" width="111" height="157" shape-rendering="geometricPrecision" image-rendering="optimizeQuality" fill-rule="evenodd" viewBox="0 0 1183 1675" xmlns:v="https://vecta.io/nano"><path fill-rule="nonzero" d="M673 1104l1 84c0 27 14 50 37 64 24 13 51 12 74-3 5-3 10-6 14-10 30-24 45-56 45-96 0-35-15-65-44-89-4-4-9-7-13-10-23-16-51-17-75-4-25 13-39 37-39 64zM370 403c-6 16-9 34-9 54 0 21 3 40 10 55 14 33 47 50 81 43 35-7 59-36 59-71v-55c0-35-25-65-60-71-35-7-68 12-81 45zm141 1199v-94c0-39-31-71-70-73-134-5-238-30-312-75-86-50-129-124-129-221 0-54 18-99 53-135 36-35 81-53 136-53 51 0 94 15 129 45 34 29 51 65 51 109 0 33-9 60-27 82-18 21-44 36-78 44 28 19 59 32 94 41 23 5 48 9 74 11 21 2 40-5 55-19 16-14 24-32 24-53v-187c0-34-23-63-56-71-153-37-263-82-331-135C48 758 11 678 11 577c0-117 44-214 133-291 77-66 179-108 304-127 36-5 63-36 63-72V73c0-40 32-73 72-73h18c40 0 72 32 72 72l1 10c0 38 28 69 66 72 115 10 207 37 273 79 78 49 118 119 118 207 0 54-17 99-51 133-33 34-77 51-131 51-50 0-93-13-125-41-33-27-50-62-50-103 0-24 7-47 19-67 12-21 31-40 55-58-22-13-47-22-77-29-4-1-8-1-12-2-22-4-42 1-60 15-17 14-26 34-26 56v174c0 35 23 64 57 71 149 33 260 78 332 135 81 64 121 151 121 259 0 123-44 219-134 290-76 61-179 97-310 109-37 3-66 34-66 72v97c0 40-33 73-73 73h-17c-40 0-72-33-72-73z"/></svg>