<svg xmlns="http://www.w3.org/2000/svg" width="111" height="124" shape-rendering="geometricPrecision" image-rendering="optimizeQuality" fill-rule="evenodd" viewBox="0 0 540 604" xmlns:v="https://vecta.io/nano"><path fill="#0277bd" d="M540 0H0l48 540 222 64 222-64L540 0z"/><path fill="#039be5" d="M270 48v506l178-50 40-456z"/><path fill="#fff" d="M415 127H270v64h78l-5 63h-73v64h70l-5 71-65 22v67l126-41 11-183h0z"/><path fill="#eee" d="M270 127v64H129l-5-64h146zm-73 127l3 64h70v-64h-73zm6 95h-63l5 88 125 41v-67l-65-22-2-40z"/></svg>