<svg xmlns="http://www.w3.org/2000/svg" width="111" height="79" shape-rendering="geometricPrecision" image-rendering="optimizeQuality" fill-rule="evenodd" viewBox="0 0 540 383" fill="#0091e2" xmlns:v="https://vecta.io/nano"><path d="M535 145c-2-2-15-12-44-12-8 0-16 1-23 2-6-38-37-56-39-57l-7-4-5 7c-7 10-11 20-14 32-5 21-2 41 9 59-13 7-35 9-39 9H17c-9 0-17 7-17 17 0 30 5 61 16 90 12 32 30 55 54 69 26 16 70 26 118 26 22 0 44-2 66-6 31-6 60-16 86-31 22-13 42-29 59-48 28-31 45-66 57-97h5c31 0 50-13 61-23 7-6 12-14 16-23l2-7-5-3zM50 171h47c3 0 5-2 5-4v-42c0-3-2-5-5-5H50c-2 0-4 2-4 5v42c0 2 2 4 4 4h0zm66 0h47c2 0 4-2 4-4v-42c0-3-1-5-4-5h-47c-3 0-5 2-5 5v42c1 2 2 4 5 4h0zm66 0h48c2 0 4-2 4-4v-42c0-3-2-5-4-5h-48c-2 0-4 2-4 5v42c0 2 2 4 4 4zm66 0h48c2 0 4-2 4-4v-42c0-3-2-5-4-5h-48c-2 0-4 2-4 5v42c0 2 2 4 4 4zm-132-60h47c2 0 4-2 4-4V65c0-3-1-5-4-5h-47c-3 0-5 2-5 5v42c1 2 2 4 5 4h0zm66 0h48c2 0 4-2 4-4V65c0-3-2-5-4-5h-48c-2 0-4 2-4 5v42c0 2 2 4 4 4h0zm66 0h48c2 0 4-2 4-4V65c0-3-2-5-4-5h-48c-2 0-4 2-4 5v42c0 2 2 4 4 4h0zm0-61h48c2 0 4-1 4-4V4c0-2-2-4-4-4h-48c-2 0-4 2-4 4v42c0 2 2 4 4 4h0zm67 121h47c2 0 5-2 5-4v-42c0-3-2-5-5-5h-47c-3 0-5 2-5 5v42c1 2 2 4 5 4h0zm0 0h0 0z"/></svg>