<svg xmlns="http://www.w3.org/2000/svg" width="111" height="30" shape-rendering="geometricPrecision" image-rendering="optimizeQuality" fill-rule="evenodd" viewBox="0 0 742 202" xmlns:v="https://vecta.io/nano"><path fill-rule="nonzero" d="M15 12v55h56v13H15v56h62v12H0V0h77v12H15zm152 136l-30-47-29 47H93l37-58-37-57h17l29 45 29-45h15l-37 57 37 58h-16zm51-90c4-8 10-14 18-19 7-6 17-8 28-8 10 0 20 2 28 7 9 5 15 12 20 21s7 19 7 31-2 22-7 31-11 16-20 21c-8 5-18 8-28 8-11 0-20-3-28-8s-14-12-18-19v79h-15V33h15v25zm86 32c0-10-2-18-6-25-3-7-9-12-15-16-7-3-14-5-22-5s-15 2-22 5c-6 4-11 10-15 17s-6 15-6 24c0 10 2 18 6 25s9 12 15 16c7 4 14 6 22 6s15-2 22-6c6-4 12-9 15-16 4-7 6-16 6-25zm57-37c3-7 8-13 15-17s15-6 24-6v16h-4c-10 0-19 3-25 9-7 5-10 15-10 28v65h-15V33h15v20zm166 31v12h-96c0 9 2 16 6 22 4 7 9 11 15 14 6 4 13 5 20 5 10 0 18-2 25-7 6-4 11-11 13-19h15c-2 12-9 21-18 28s-21 11-35 11c-10 0-20-3-29-8-8-5-15-11-20-20s-7-20-7-32 2-22 7-31 12-16 20-21c9-5 18-7 29-7s21 2 29 7c9 5 15 11 19 19 5 8 7 17 7 27zm-15 0c0-9-2-16-5-22-4-6-9-11-15-14s-13-4-20-4c-11 0-21 3-28 10-8 7-12 17-13 30h81zm82 66c-13 0-24-3-33-10-8-6-13-14-14-25h16c0 7 3 12 9 16 5 4 12 6 22 6 8 0 14-2 18-6 5-3 7-8 7-14 0-4-1-7-3-9-3-3-6-5-10-6-4-2-9-4-16-5-8-2-15-5-21-7-5-2-10-6-13-10-4-4-6-10-6-18 0-6 2-11 5-16 3-4 8-8 14-11 7-3 14-4 22-4 12 0 22 3 30 9 7 7 11 15 12 26h-15c0-7-3-12-8-16s-11-6-20-6c-7 0-13 1-18 5-5 3-7 8-7 13 0 4 1 8 4 11s6 5 10 7c4 1 10 3 17 5 8 2 15 5 20 7s9 5 12 9c4 4 6 10 6 16s-2 12-5 17c-4 5-8 9-14 11-6 3-13 5-21 5zm108 0c-14 0-25-3-33-10-8-6-13-14-14-25h15c1 7 4 12 9 16 6 4 13 6 22 6 8 0 15-2 19-6 5-3 7-8 7-14 0-4-1-7-4-9-2-3-5-5-9-6-4-2-9-4-16-5-9-2-16-5-21-7s-10-6-14-10c-3-4-5-10-5-18 0-6 1-11 5-16 3-4 8-8 14-11s13-4 21-4c13 0 23 3 30 9 8 7 12 15 13 26h-15c-1-7-3-12-8-16s-12-6-20-6-14 1-18 5c-5 3-7 8-7 13 0 4 1 8 4 11s6 5 10 7c4 1 10 3 17 5 8 2 15 5 20 7 4 2 9 5 12 9 4 4 6 10 6 16s-2 12-5 17c-4 5-8 9-15 11-6 3-13 5-20 5z"/></svg>