<svg xmlns="http://www.w3.org/2000/svg" width="111" height="108" shape-rendering="geometricPrecision" image-rendering="optimizeQuality" fill-rule="evenodd" viewBox="0 0 742 723" fill="#161614" xmlns:v="https://vecta.io/nano"><path d="M371 0C166 0 0 166 0 371c0 164 106 303 254 352 18 3 25-8 25-18l-1-69c-103 22-124-44-124-44-17-43-42-54-42-54-33-23 3-23 3-23 37 3 57 39 57 39 33 56 86 40 108 30 3-24 13-40 23-49-82-10-169-41-169-184 0-40 15-73 38-99-3-9-16-47 4-98 0 0 31-10 102 38 30-8 61-13 93-13 31 0 63 5 93 13 71-48 102-38 102-38 20 51 7 89 3 98 24 26 38 59 38 99 0 143-86 174-169 183 13 12 25 35 25 69v102c0 10 6 21 25 18 148-49 254-188 254-352C742 166 576 0 371 0z"/><path d="M139 528c-1 2-4 3-6 1-3-1-5-3-4-5s4-3 7-1c2 1 4 3 3 5h0zm18 17c-2 1-5 0-7-2-3-3-3-6-2-8 2-1 6-1 8 2 3 2 3 6 1 8h0zm13 20c-3 2-6 0-9-3-2-3-2-7 0-9 3-1 6 0 9 3 2 4 2 8 0 9h0zm21 25c-2 2-7 1-10-2s-4-7-2-9c2-3 7-2 10 1s4 7 2 10h0zm27 8c-1 3-5 4-9 3-4-2-7-5-6-8s5-4 9-3 7 5 6 8h0zm31 3c0 3-3 6-8 6-4 0-8-3-8-6s4-5 8-5c5 0 8 2 8 5h0zm31-1c0 3-3 6-7 7s-8-1-9-4c0-3 3-6 7-7s8 1 9 4h0zm0 0h0 0z"/></svg>