<svg xmlns="http://www.w3.org/2000/svg" width="111" height="124" shape-rendering="geometricPrecision" image-rendering="optimizeQuality" fill-rule="evenodd" viewBox="0 0 540 604" xmlns:v="https://vecta.io/nano"><path fill="#e65100" d="M540 0H0l48 540 222 64 222-64L540 0z"/><path fill="#ff6d00" d="M270 48v506l178-50 40-456z"/><path fill="#fff" d="M270 318v-64h137l-11 183-126 41v-67l65-22 5-71h-70zm141-127l5-64H270v64h141z"/><path fill="#eee" d="M270 411v67l-125-41-7-88h64l3 40 65 22zm-78-220h78v-64H125l12 191h133v-64h-73l-5-63z"/></svg>