<svg xmlns="http://www.w3.org/2000/svg" width="111" height="114" shape-rendering="geometricPrecision" image-rendering="optimizeQuality" fill-rule="evenodd" viewBox="0 0 1183 1218" xmlns:v="https://vecta.io/nano"><path fill="#ff2d20" d="M1183 276v5 261c0 7-3 13-9 17L954 685v250c0 7-3 14-9 17l-458 264c-1 0-3 1-4 1 0 0 0 1-1 1-3 1-7 1-10 0l-1-1c-1 0-2-1-3-1L10 952c-6-3-10-10-10-17V151c0-2 0-3 1-5v-2c1-1 1-2 2-3 0 0 0-1 1-1 0-1 1-2 2-3 0 0 1 0 1-1 1-1 2-1 3-2h0L239 3c6-4 13-4 19 0l229 131h0l2 2c0 1 1 1 2 1 0 1 1 2 1 3 1 0 1 1 2 1 0 1 1 2 1 3s0 1 1 2v5 490l191-110V281c0-2 0-4 1-5v-2c1-1 1-2 2-3 0-1 1-1 1-2 1 0 1-1 2-2 0 0 1-1 2-1 0-1 1-1 2-2h0l229-132a21.18 21.18 0 0 1 19 0l229 132 2 2c1 0 1 1 2 1 1 1 1 2 2 2 0 1 1 1 1 2s1 2 1 3 1 1 1 2zm-38 255V314l-80 46-111 63v218l191-110h0zM916 924V707l-109 62-311 178v219l420-242zM38 184v740l420 242V947L239 822h0 0c-1 0-2-1-3-1 0-1-1-1-1-2h0c-1 0-1-1-2-2 0 0-1-1-1-2h0c-1 0-1-1-1-2-1-1-1-1-1-2h0c-1-1-1-2-1-3v-2h0V294l-111-64-80-46h0zM248 41L57 151l191 110 191-110L248 41h0zm99 686l111-64V184l-80 46-111 64v479l80-46zm588-556L744 281l191 109 191-109-191-110zm-19 252l-111-63-80-46v217l111 64 80 46V423zM477 914l280-160 140-80-191-110-219 127-200 115 190 108z"/></svg>