<svg xmlns="http://www.w3.org/2000/svg" width="111" height="247" shape-rendering="geometricPrecision" image-rendering="optimizeQuality" fill-rule="evenodd" viewBox="0 0 742 1651" xmlns:v="https://vecta.io/nano"><path fill="#599636" d="M366 5l44 82c10 16 20 29 33 42 37 36 72 75 103 117 75 98 125 206 161 324 22 72 34 146 35 221 3 223-73 414-227 573-25 25-53 49-81 70-16 0-23-12-29-23-12-20-19-42-23-65-5-27-9-54-7-82v-12c-1-3-15-1241-9-1247h0z"/><path fill="#6cac48" d="M366 2c-2-4-4-1-6 1 1 18-5 34-15 49-11 15-25 27-40 40-80 69-143 153-193 246C45 464 10 599 1 741c-5 51 16 232 32 284 44 139 123 255 226 356 25 24 52 46 80 68 8 0 9-7 11-13 3-11 6-23 8-35l18-135L366 2z"/><path fill="#c2bfbf" d="M410 1488c2-20 11-37 22-54-11-5-19-14-25-24-5-9-10-19-13-29-13-38-16-78-19-116v-24c-5 4-6 34-6 39-2 41-8 81-16 121-3 16-4 33-14 47 0 2 0 4 1 6 16 48 20 97 23 146v18c0 22-1 17 17 24 7 3 15 4 22 9 6 0 7-4 7-8l-3-29v-83c-1-15 2-29 4-43h0z"/></svg>