<svg xmlns="http://www.w3.org/2000/svg" width="111" height="58" shape-rendering="geometricPrecision" image-rendering="optimizeQuality" fill-rule="evenodd" viewBox="0 0 742 386" xmlns:v="https://vecta.io/nano"><ellipse fill="#8993be" cx="371" cy="193" rx="371" ry="193"/><path fill="#232531" d="M104 307l41-205h94c40 2 61 22 61 58 0 61-49 97-92 94h-45l-11 53h-48zm69-91l12-76h33c18 0 31 7 31 23-3 43-23 50-46 53h-30 0zm117 38l41-206h48l-10 54h46c40 2 56 22 51 48l-18 104h-51l18-94c2-13 2-20-15-20h-39l-22 114h-49zm155 53l40-205h94c41 2 61 22 61 58 0 61-48 97-91 94h-46l-10 53h-48zm68-91l13-76h33c18 0 30 7 30 23-2 43-23 50-45 53h-31 0z"/></svg>