<svg xmlns="http://www.w3.org/2000/svg" width="128" height="131" shape-rendering="geometricPrecision" image-rendering="optimizeQuality" fill-rule="evenodd" viewBox="0 0 974 1003" xmlns:v="https://vecta.io/nano"><style><![CDATA[.B{stroke:#fff}.C{stroke-linecap:round}.D{stroke-linejoin:round}.E{stroke-width:42.675}]]></style><path d="M716 719c6-51 4-58 42-50l9 1c29 1 67-5 90-15 48-22 76-59 29-50-108 23-116-14-116-14 114-169 162-383 121-436C779 12 585 80 581 82h-1c-21-5-44-7-72-8-48 0-85 13-114 34 0 0-346-142-330 180 4 68 99 518 212 382 41-50 81-92 81-92 20 13 43 20 68 18l2-2v7c0 4 0 8 1 12-29 33-21 39-79 51-59 12-24 33-1 39 27 7 90 16 133-43l-2 6c12 10 11 66 13 106 1 41 4 78 12 101 9 22 18 79 95 63 64-14 112-33 117-217h0zm0 0h0 0z"/><path fill="none" stroke="#000" stroke-width="128.087" d="M716 719c6-51 4-58 42-50l9 1c29 1 67-5 90-15 48-22 76-59 29-50-108 23-116-14-116-14 114-169 162-383 121-436C779 12 585 80 581 82h-1c-21-5-44-7-72-8-48 0-85 13-114 34 0 0-346-142-330 180 4 68 99 518 212 382 41-50 81-92 81-92 20 13 43 20 68 18l2-2v7c0 4 0 8 1 12-29 33-21 39-79 51-59 12-24 33-1 39 27 7 90 16 133-43l-2 6c12 10 11 66 13 106 1 41 4 78 12 101 9 22 18 79 95 63 64-14 112-33 117-217m0 0h0 0z"/><path fill="#336791" d="M886 606c-108 22-116-14-116-14 114-169 161-384 120-436C778 12 584 80 581 82h-1c-24-5-48-7-72-7-49-1-86 12-114 34 0 0-346-143-330 179 4 68 98 518 211 382 42-50 82-92 82-92 20 13 43 20 68 18l2-2v7c0 4 0 8 1 12-29 33-21 39-79 51-59 12-24 33-1 39 27 7 90 16 133-43l-2 6c12 10 20 60 18 105-1 46-2 77 7 102 9 24 18 79 95 63 63-14 97-49 101-108 3-42 11-36 11-74l6-18c7-57 1-75 41-66h9c29 2 67-4 90-15 47-22 76-59 29-49h0z"/><g fill="none" class="B E"><g class="C"><path d="M486 638c-3 106 0 213 11 239 10 25 32 76 109 60 64-14 87-40 97-99l24-187M394 106S48-36 64 286c3 69 98 519 211 383 41-50 79-89 79-89M581 80c-12 4 193-75 309 74 41 52-7 267-120 436" class="D"/><path stroke-linejoin="bevel" d="M770 590s7 36 115 14c47-10 19 27-29 50-39 18-127 23-129-3-4-65 47-45 43-61-3-15-26-29-41-65-12-32-177-272 46-237 8-1-58-212-267-215S306 330 306 330"/></g><g class="D"><path d="M427 612c-29 33-20 38-78 50-59 12-25 34-2 40 27 7 91 16 133-44 13-18 0-47-18-54-8-4-20-9-35 8h0z"/><path d="M425 611c-3-19 7-41 16-68 15-40 50-80 22-206-20-95-157-20-157-7 0 12 6 65-2 125-12 79 50 146 121 139" class="C"/></g></g><g fill="#fff" class="B"><path stroke-width="14.246" d="M393 328c-1 4 8 16 19 17 11 2 21-7 21-12 1-4-8-9-19-10-11-2-21 0-21 5z"/><path stroke-width="7.091" d="M735 319c0 4-8 16-20 17-11 2-21-7-21-12-1-4 8-9 19-10 11-2 21 0 22 5z"/></g><path fill="none" d="M775 289c2 34-8 57-9 94-2 53 25 113-15 174" class="B C D E"/></svg>