<svg xmlns="http://www.w3.org/2000/svg" width="111" height="99" shape-rendering="geometricPrecision" image-rendering="optimizeQuality" fill-rule="evenodd" viewBox="0 0 742 661" fill="#61dafb" xmlns:v="https://vecta.io/nano"><path d="M742 330c0-49-62-95-156-124 22-96 12-173-31-197-10-6-21-9-34-9v34c7 0 13 1 18 4 20 12 29 56 22 114-1 14-4 29-8 45-29-8-62-13-96-17-20-28-41-53-62-75 49-46 95-71 127-71V0c-42 0-96 30-151 81C316 30 261 1 220 1v33c31 0 77 25 127 71-22 22-43 47-63 75-34 4-66 9-96 17-4-15-6-30-8-44-7-58 2-103 22-115 5-2 11-4 18-4V1c-13 0-25 2-35 8-42 25-52 101-30 197C61 235 0 281 0 330s62 96 156 125c-22 96-12 173 30 197 10 6 22 9 34 9 42 0 96-30 151-82 55 52 110 81 151 81 13 0 25-3 35-9 42-24 52-100 30-196 93-29 155-76 155-125h0zM545 229c-6 20-13 40-21 60-6-12-12-24-19-36s-15-24-22-35c21 3 42 7 62 11zm-69 161c-12 21-24 40-37 58-22 2-45 3-68 3s-46-1-68-3c-13-18-25-37-37-57-11-20-22-40-31-60 9-20 20-41 31-61 12-20 24-39 37-57 22-2 45-3 68-3s46 1 68 3c12 18 25 37 36 57 12 20 22 40 32 60-10 20-20 41-31 60zm48-19c9 20 16 40 21 60-19 5-40 9-62 12 7-12 15-23 22-36 7-12 13-24 19-36h0zM371 532c-14-14-28-31-42-48 14 0 28 1 42 1s28 0 42-1c-14 17-28 34-42 48zm-112-89c-22-3-43-7-62-12 5-19 12-39 20-60 6 13 13 25 20 37s14 24 22 35zm111-315c14 15 29 31 42 49-13-1-27-1-41-1s-28 0-42 1c13-18 27-34 41-49zm-111 90c-8 11-15 23-22 35s-14 25-20 37c-8-21-15-41-21-61 20-4 41-8 63-11h0zM122 407c-54-23-88-53-88-77 0-23 34-53 88-76 13-6 27-11 42-15 8 29 20 60 34 92-14 31-26 62-34 91-15-4-29-10-42-15h0zm81 216c-21-12-29-57-22-115 1-14 4-29 7-44 30 7 62 13 96 16 21 28 42 54 63 76-49 46-95 71-127 71-7 0-12-2-17-4h0zm359-115c7 57-2 102-22 114-5 3-11 4-18 4-31 0-78-25-127-70 21-22 43-48 63-76 34-3 66-9 96-16 3 15 6 30 8 44h0zm58-101c-13 5-27 10-42 15-9-30-20-60-34-92 14-31 25-62 34-92 14 5 29 10 42 16 54 23 88 53 88 76 0 24-35 54-88 77h0z"/><circle cx="371" cy="330" r="69"/></svg>