<svg xmlns="http://www.w3.org/2000/svg" width="111" height="90" shape-rendering="geometricPrecision" image-rendering="optimizeQuality" fill-rule="evenodd" viewBox="0 0 540 437" xmlns:v="https://vecta.io/nano"><defs><linearGradient id="A" gradientUnits="userSpaceOnUse" x1="194.291" y1="218.502" x2="367.749" y2="218.502"><stop offset="0" stop-color="#909ca9"/><stop offset="1" stop-color="#ededee"/></linearGradient><linearGradient id="B" gradientUnits="userSpaceOnUse" x1="239.542" y1="28.131" x2="333.699" y2="28.131"><stop offset="0" stop-color="#939fab"/><stop offset="3.588" stop-color="#b7bec6"/><stop offset="1" stop-color="#dcdee1"/></linearGradient><radialGradient id="C" gradientUnits="userSpaceOnUse" gradientTransform="matrix(2.08333 -0 -0 1.45463 -519 -28)" cx="479.302" cy="60.647" r="3330.16" fx="479.302" fy="60.647"><stop offset="0" stop-color="#ee352c"/><stop offset="1" stop-color="#a91d22"/></radialGradient></defs><path fill="url(#A)" d="M366 139l-59 20-52 23-15 3c-4 4-7 7-12 11-4 4-9 8-12 10-4 3-9 9-12 12-4 5-7 11-8 15-3 7-2 15 3 22 6 9 18 18 33 25 7 3 19 7 28 9 16 4 45 8 62 9h7c1 0 3-5 6-11 10-21 17-40 21-56 3-10 4-23 6-39v-24c0-8-1-15-2-21 0-1-1-2 0-2l8-2-2-4zm-13 8s2 14 2 23v3l-13-8c-4-3-13-8-14-9s-1-1 3-2l22-7zm-31 10c1 0 2 1 4 2 9 6 22 13 28 15 1 1 1 1-2 4-9 5-19 11-31 16-3 1-4 2-4 2-1 0 0-1 0-3 3-11 5-22 5-31v-5h0zm-6 2v14c-1 6-2 12-5 19 0 2 0 3-1 3 0 1-6-5-8-8-4-4-6-8-8-12l-3-6c1-1 25-10 25-10h0zm-30 12c1 0 1 1 1 2 2 4 5 9 8 13s7 8 10 11l2 2c1 0 1 0-7 3s-17 7-28 10c-3 1-5 2-8 3 0 0 0-1 1-2 6-9 14-25 18-36 1-2 2-4 2-5 0 0 0-1 1-1h0zm-9 4c1 0-2 5-4 9-4 9-9 17-16 27l-2 4-1-2c-1-2-3-6-3-10-1-4-1-10 0-13s1-3 2-4c5-3 24-11 24-11zm78 3v2c0 10-1 24-2 34-1 2-1 3-1 3s-1 0-3-1c-7-2-14-5-21-9-4-2-10-6-10-6l4-2c9-5 17-10 25-15 3-2 7-5 8-5v-1zm-112 13c1 0 1 1 0 2v5c0 7 1 11 4 18 1 2 1 4 1 4s-30 9-39 11c-3 1-5 2-6 2v-1c1-7 6-15 13-23 5-5 9-8 15-11l12-7h0zm71 13s1 0 2 1c10 6 23 11 35 14h1l-2 1c-6 3-26 11-46 19l-6 2h-1s1-1 2-3c5-11 11-23 14-32 0-1 1-2 1-2h0zm-7 2s-1 1-1 2c-4 10-9 20-16 32-1 3-3 5-3 5s-1-1-3-2c-10-6-18-13-23-20l-1-1 4-1c15-4 27-8 40-14 1 0 2-1 3-1h0zm44 16c0 1-2 10-4 17-2 5-3 10-5 18-1 3-3 6-3 6-13-3-26-6-37-11-3-1-8-3-8-3s3-1 6-3c21-9 42-19 49-23 1-1 2-1 2-1zm-103 3s-5 9-13 20c-3 4-6 8-8 10-1 2-3 5-4 6l-2 3-2-2-8-8c-4-5-7-10-8-15v-3c1 0 13-3 24-6 6-1 14-3 16-4 3 0 5-1 5-1h0zm6 3l2 1c6 7 13 13 21 18 1 0 2 1 2 1l-41 14c-7 3-13 5-13 5l-1-1h0l1-2c4-6 10-13 21-27l8-9zm36 25l4 2c6 2 11 3 17 5 8 2 19 4 26 5h1s-7 2-12 4c-8 2-31 9-51 15-3 1-6 2-7 2l-2-1s2-1 3-3c6-7 13-16 18-24 2-3 3-5 3-5h0zm-8 0s-3 6-9 15c-2 3-5 8-6 9s-2 4-3 5l-1 2h-1c-1 0-13-4-16-5-3-2-7-4-10-5-4-2-8-5-8-5s6-2 14-4c19-5 30-8 38-11 1 0 2-1 2-1h0zm56 14s-7 20-10 27c0 1 0 2-1 2s-11-2-18-3l-34-6h-1l6-2c15-3 22-5 29-7 9-3 17-6 26-10 2-1 3-1 3-1h0z"/><path fill="url(#B)" d="M305 0c-1 0-17 6-28 10-14 5-24 11-31 16-3 1-6 5-6 6v1l6 6 14 5 34 6 39 6 1-3h-1l-5-1-1-2c-5-9-11-21-14-29-3-6-6-13-7-18l-1-3h0zm-1 2v3c1 6 3 12 5 19 1 5 1 5 0 4-5-1-26-5-41-7-2 0-4 0-4-1 0 0 11-5 16-8 6-3 23-9 24-10h0zm-44 21h2c10 3 34 8 47 9h3s-1 1-3 2c-6 3-13 7-18 10-2 1-3 2-3 2s-1-1-2-1h-2l-4-4c-8-8-15-14-17-16l-3-2zm-1 1l6 8c3 4 7 8 8 9 0 1 1 2 1 2s-9-1-14-2c-5-2-7-2-10-3l-2-1h0c0-3 4-8 10-13h1zm54 11l1 1c1 4 6 13 7 14 0 1 1 1-5 0-15-2-20-3-20-3s0-1 1-1c4-3 9-6 13-10 1 0 2-1 3-1h0z"/><path fill="url(#C)" d="M240 31s-1 2 0 4c1 1 3 3 4 5l23 22c11 13 16 26 16 43 1 11-1 21-7 33-9 20-29 43-59 68l4-2c3-2 7-4 16-9 21-12 45-23 74-34 43-15 112-34 152-40l4-1-1-1c-3-5-6-9-9-13-8-10-19-19-32-26-17-10-40-18-69-24-6-1-18-3-28-4-20-3-34-6-48-8-6-1-14-2-19-4-2 0-8-1-12-3-3-1-8-2-9-6h0zm12 11s1 1 2 1c1 1 4 1 6 2 2 0 4 1 6 1 3 1 5 2 5 2s5 15 6 20c1 2 1 4 1 4l-1-2c-5-9-13-18-23-26l-2-2h0zm22 6s1 1 2 1c8 2 22 4 31 6h2s0 1-1 1c-1 1-7 4-9 6-5 3-10 7-13 10l-2 2s-1-1-1-2c-2-6-5-15-8-22-1-1-1-2-1-2h0zm39 8s1 1 2 5c1 6 2 14 2 21v3l-1 1-2-1c-5-1-13-4-19-6-4-1-7-2-7-2s5-6 8-8c4-4 17-13 17-13h0zm3 0s19 3 27 5c6 1 16 3 16 3 0 1-1 1-4 2l-29 16c-3 2-4 3-4 3s-1-1-1-3c0-8-1-17-4-24-1-1-1-2-1-2h0zm48 10s0 4-1 6c-2 6-6 16-11 26-1 1-2 3-2 3s-2-1-3-2c-5-3-11-6-18-8-1-1-3-2-3-2s14-10 22-14c6-4 16-9 16-9h0zm3 0c1 0 9 3 13 4 11 3 23 7 31 11l3 2h-2c-20 5-36 10-52 16-1 1-3 1-3 1s1-1 1-2c5-10 8-21 9-30v-2h0zm-81 19s6 1 10 3c5 1 15 5 15 5l-2 2c-6 5-12 10-19 17l-3 3h-1c2-8 1-17 0-27v-3h0zm131 0c1 0-2 5-4 8-3 4-7 9-16 20-5 6-10 13-12 15s-3 4-3 4l-2-2c-5-7-11-14-18-20-1-1-3-2-3-3h-1s8-4 13-6c11-4 25-9 35-12 6-2 11-4 11-4h0zm4 1s1 1 3 2c11 6 21 14 30 22 2 3 8 9 8 9h-5c-18 2-43 6-66 11-2 0-3 1-3 1s1-2 4-4c13-13 20-22 27-36 1-3 2-5 2-5h0zM321 96c0 1 6 3 10 5s11 6 11 6-2 1-5 2c-8 5-15 9-23 13-2 2-4 3-4 3l1-3c4-7 7-16 9-25 0 0 0-1 1-1zm-6 2s-2 5-3 8c-1 6-5 13-8 19 0 1-1 3-2 4l-1 2-3-3c-3-3-5-4-8-6-1-1-2-1-2-1 0-1 7-8 13-13 5-3 14-11 14-10h0zm36 14l2 2c5 3 11 7 15 11 3 2 8 7 9 8l1 1-4 1c-21 5-37 10-55 17l-4 2c-1 0-1 0 4-4 12-11 22-24 30-35l2-3zm-10 3l-10 13c-4 6-12 16-17 22-3 3-4 5-5 5v-1c0-6-1-12-4-17l-1-2c1-1 14-9 23-13 5-3 14-8 14-7h0zm-57 14s1 0 2 1c3 1 6 3 8 5l-2 2c-5 3-11 8-15 11l-4 3c3-5 5-8 6-11 2-3 3-6 4-9 1-1 1-2 1-2h0zm15 11c1 0 1 1 2 3 3 4 5 9 5 13v1l-6 2c-11 4-21 9-28 12-2 1-5 2-8 3-2 2-4 2-4 2l4-2c13-10 25-21 33-31 1-1 2-3 2-3zm-7 2c1 0-5 6-8 10-9 9-17 16-28 22-1 1-3 2-3 2l5-5c3-3 5-6 8-9 2-3 2-3 4-5 7-5 22-15 22-15z"/><path fill="#231f1f" d="M97 329h-3c-16 1-28 8-34 23-6 13-5 30 0 43 6 13 15 20 31 22 4 1 6 3 12 10l9 10h14l-9-10c-6-5-10-10-10-10 0-1 2-2 4-2 9-3 15-9 20-19 4-8 5-10 5-20 2-29-14-47-39-47zm13 76c-7 3-18 4-24 1-7-2-14-9-17-18-4-9-3-25 1-33 6-12 14-17 26-17 18 0 28 11 30 31 1 18-5 30-16 36zm253-51c-6 0-11 2-14 7l-2 4v-10h-11v60h11v-19c0-18 0-20 2-25 4-6 10-9 15-8l4 1v-10h-5zm-62-1c-2 0-5 0-7 1-14 4-22 17-22 31 0 12 3 18 8 24 12 10 22 10 37 5 2-1 5-2 5-2v-9l-5 2c-12 5-20 5-27-1-5-4-7-10-8-16h43v-8c0-17-10-27-24-27h0zm-18 27s2-11 8-15c3-2 6-3 9-3s6 1 9 3c5 5 6 15 6 15h-32zM27 369c-12-7-17-12-16-18 1-17 22-14 33-8v-11s-6-3-15-3c-14 0-22 4-27 13-6 14 0 24 19 35 11 7 16 12 16 18 0 13-15 17-30 9-4-1-6-3-7-3v12s5 2 12 4c18 3 34-5 35-18 2-13-3-20-20-30h0zm430-16c-2 0-4 0-6 1-14 4-22 17-22 31 0 12 2 18 8 24 12 9 22 10 37 5 2-1 5-2 5-2v-10l-5 3c-12 5-21 5-27-1-5-4-7-10-8-16h43v-8c0-17-10-27-25-27h0zm-17 27s2-11 7-15c3-2 6-3 10-3 3 0 6 1 9 3 5 4 6 15 6 15h-32zm-195-11c-12-7-17-12-16-18 2-16 22-14 33-8v-11s-6-3-15-3c-13 0-22 4-26 14-6 13-1 23 18 35 11 6 16 11 16 17 0 13-15 17-30 9-4-1-6-3-6-3-1 4-1 12-1 12s5 2 12 4c18 3 34-5 35-18 2-13-3-20-20-30h0zm275-15c-6 0-11 2-14 7l-3 4v-10h-10v60h10v-19c0-18 1-20 3-25 3-6 9-9 15-8l4 1v-10h-5zm-360 15v-39h-10v85h45v-10h-35v-36zm248 12l-8 23-9-24-8-25h-11c7 20 14 41 22 60 4 1 7 0 10 0l12-30 13-30h-11s-5 12-10 26h0zm-223-74c2 0 3-1 4-2 2-1 2-3 2-4 0-2 0-3-2-5-1-1-2-1-4-1s-3 0-4 2c-1 1-2 2-2 4s1 3 2 4 2 2 4 2zm-4-10c1-1 2-2 4-2s3 1 4 2 2 2 2 4c0 1-1 2-2 4-1 1-2 1-4 1-1 0-3 0-4-1-1-2-1-3-1-4 0-2 0-3 1-4zm3 4h0c1 0 2 1 2 2l1 2h1l-1-3-1-1s1 0 1-1l1-1c0-1-1-1-1-2h-2-2v8h1v-4zm0-3h1 1c1 0 1 0 1 1s-1 1-2 1h-1v-2zM7 301c0-3-1-5-1-6 1 1 1 2 1 3l11 23h1l11-24s0-1 1-3h0v6 21h3v-31h-4l-10 22c0 1-1 2-1 3h-1c0-1 0-2-1-3l-9-21H3v30h3l1-20zm35 0h3v18h-3v-18zm1-7c1 0 1 0 2-1v-1-2c-1-1-1-1-2-1s-1 0-2 1v2 1c1 1 1 1 2 1zm23 26v-3c-1 1-3 1-5 1s-4 0-5-2c-2-1-2-3-2-6 0-2 0-4 2-6 1-1 3-2 5-2s4 0 5 1v-3c-1-1-3-1-5-1-3 0-6 1-8 3s-3 5-3 9c0 3 1 5 3 7s4 3 7 3 5 0 6-1zm9-10c0-3 1-5 2-6s2-2 3-2 2 0 3 1v-4h-2c-1 0-3 0-3 1-1 1-2 2-3 4h0v-5h-3v22h3v-11zm20 11c3 0 6-1 8-3s3-5 3-8c0-4-1-6-3-8-2-3-4-3-8-3-3 0-5 1-7 2-2 2-3 5-3 9 0 3 0 6 2 8s5 3 8 3h0zm-5-17c1-2 3-2 5-2s4 0 5 2c2 1 2 3 2 6s0 5-1 6c-2 2-3 2-6 2-2 0-4 0-5-2-1-1-2-3-2-6s1-5 2-6h0zm31 15c1-1 2-2 2-4s-1-3-2-4-2-2-4-2c-2-1-3-2-3-2-1-1-1-1-1-2s0-2 1-2c1-1 2-1 3-1 2 0 3 0 5 1v-3c-2-1-3-1-5-1s-4 0-5 2c-2 1-2 2-2 4s0 3 1 4 2 1 4 2 3 2 3 2c1 1 1 1 1 2 0 2-1 3-4 3-2 0-4 0-6-2v4c2 1 4 1 6 1s4 0 6-2h0zm16-20c-3 0-6 1-8 3s-3 5-3 8c0 4 1 6 3 8s4 3 8 3c3 0 6-1 7-3 2-2 3-5 3-8 0-4 0-6-2-8s-5-3-8-3h0zm7 11c0 3-1 5-2 6-1 2-3 2-5 2s-4 0-5-2c-2-1-2-3-2-6s0-5 2-6c1-2 3-2 5-2s4 0 5 2c1 1 2 3 2 6zm9 11h4v-19h5v-3h-5v-3c0-3 1-5 3-5 1 0 2 1 2 1v-3h-2c-2 0-4 0-5 1-1 2-2 3-2 6v3h-4v3h4v19zm14-6c0 4 2 6 6 6h3v-3h-2c-1 0-2 0-2-1-1 0-1-1-1-3v-12h5v-3h-5v-6c-1 0-3 1-4 1v5h-3v3h3v13zm371 40c-1-1-2-2-4-2s-3 1-4 2-2 3-2 4c0 2 1 3 2 4s2 2 4 2 3-1 4-2 2-2 2-4-1-3-2-4zm0 8c-1 1-2 1-4 1-1 0-3 0-4-1s-1-3-1-4 0-3 1-4 2-1 4-1c1 0 3 0 4 1s1 3 1 4 0 3-1 4zm-3-4h1c1-1 1-1 1-2 0 0 0-1-1-1 0-1-1-1-2-1h-2v8h1v-3h0c1 0 1 0 2 1l1 2h1l-1-2c-1-1-1-2-1-2zm-1 0h-1v-3h1 1c1 0 1 1 1 1-1 1-1 2-2 2zm-193-61h1v-7h3v-1h-6v1h2v7zm6-5v-2 1l3 6h1l3-6v-1 7h1v-8h-1l-3 6v1h-1v-1l-3-6h-1v8h1v-5z"/></svg>