<svg xmlns="http://www.w3.org/2000/svg" width="111" height="111" shape-rendering="geometricPrecision" image-rendering="optimizeQuality" fill-rule="evenodd" viewBox="0 0 742 742" xmlns:v="https://vecta.io/nano"><path fill="#f90" d="M0 0h742v742H0z"/><path fill="#de8500" d="M371 371h371v370H371z"/><path fill="#ffb13b" d="M0 0h371v371H0z"/><g fill="#f90"><circle cx="137" cy="370" r="136"/><circle cx="206" cy="205" r="136"/><circle cx="371" cy="136" r="136"/><circle cx="537" cy="205" r="136"/><circle cx="605" cy="370" r="136"/><circle cx="537" cy="536" r="136"/><circle cx="371" cy="604" r="136"/><circle cx="206" cy="536" r="136"/></g><path d="M468 136c0-53-43-97-97-97-53 0-97 44-97 97-37-38-99-38-137 0-37 38-37 99 0 137-53 0-97 44-97 97 0 54 44 97 97 97-37 38-37 99 0 137 38 38 100 38 137 0 0 54 44 97 97 97 54 0 97-43 97-97 38 38 100 38 137 0a96.57 96.57 0 0 0 0-137c54 0 97-43 97-97 0-53-43-97-97-97a96.57 96.57 0 0 0 0-137c-37-38-99-38-137 0z"/><path fill="#fff" d="M409 173v108l75-76c0-14 6-27 16-37 20-21 54-21 74 0 20 20 20 53 0 74-10 10-24 15-37 15l-76 76h107c10-9 23-15 37-15 29 0 53 23 53 52s-24 53-53 53c-14 0-27-6-37-16H461l76 76c13 0 27 5 37 16 20 20 20 53 0 74-20 20-54 20-74 0-10-10-16-24-16-37l-75-76v107c9 10 15 23 15 37 0 29-24 53-53 53s-52-24-52-53c0-14 6-27 15-37V460l-76 76c0 13-5 27-15 37-20 20-54 20-74 0-21-21-21-54 0-74 10-11 24-16 37-16l76-76H175c-10 10-23 16-38 16-29 0-52-24-52-53s23-52 52-52c15 0 28 6 38 15h107l-76-76c-13 0-27-5-37-15-21-21-21-54 0-74 20-21 54-21 74 0 10 10 15 23 15 37l76 76V173c-9-9-15-22-15-37 0-29 23-52 52-52s53 23 53 52c0 15-6 28-15 37h0z"/><path d="M40 371h662v330H40z"/><path d="M40 556h662v145H40z"/><path fill="#3f3f3f" d="M110 401h528c22 0 40 18 40 40v133c-205-26-407-61-608-57v-76c0-22 18-40 40-40h0z"/><path fill="#fff" d="M457 393l-61 295h-50l-62-295h51l36 172 36-172h50zm87 122h86v86c0 48-39 87-86 87-48 0-87-39-87-87V479h0c0-48 39-86 87-86 47 0 86 38 86 86h-50c0-20-17-36-36-36-20 0-36 16-36 36v122c0 20 16 36 36 36 19 0 36-16 36-36v-36h-36v-50zm-407 25c-16-16-25-37-25-61 0-48 38-86 86-86s86 38 86 86h-50c0-20-16-36-36-36s-36 16-36 36c0 10 4 19 11 25h0c6 7 15 11 25 11h0c24 0 45 9 61 25s25 37 25 61c0 48-38 87-86 87s-86-39-86-87h50c0 20 16 36 36 36s36-16 36-36c0-10-4-19-11-25-6-7-15-11-25-11-24 0-46-9-61-25z"/><path fill-rule="nonzero" d="M460 393l-61 295v3h-3-50-3v-3l-62-295v-3h3 51 2l1 2 33 159 33-159v-2h3 50 4l-1 3zm-66 292l60-289h-45l-35 170h-6l-35-170h-45l60 289h46zm150-173h86 3v3 86c0 25-10 47-26 63h0c-16 17-39 27-63 27-25 0-47-10-64-27h0 0c-16-16-26-38-26-63V482h0v-3c0-25 10-47 26-63 17-16 39-26 64-26 24 0 47 10 63 26h0c16 16 26 38 26 63v3h-3-50-3v-3c0-9-4-17-10-23h0c-6-6-14-10-23-10s-18 4-23 10h0c-6 6-10 14-10 23v122c0 9 4 17 10 23h0c5 6 14 10 23 10s17-4 23-10h0c6-6 10-14 10-23v-33h-33-3v-3-50-3h3zm83 6h-80v44h33 3v3 36c0 11-5 21-12 28h0c-7 7-17 11-27 11-11 0-21-4-28-11h0c-7-7-11-17-11-28V479c0-11 4-20 11-27h0c7-7 17-12 28-12 10 0 20 5 27 12h0c7 6 11 14 11 24h45c-1-22-10-42-24-56h0c-15-15-36-24-59-24s-44 9-59 24-24 35-25 57v2 122c0 23 10 44 25 59h0c15 15 36 25 59 25s44-10 59-25h0c15-15 24-36 24-59v-83zm-492 24c-9-8-15-18-20-29h0c-4-10-7-22-7-34 0-25 11-47 27-63s38-26 63-26 47 10 63 26 26 38 26 63v3h-3-50-3v-3c0-9-4-17-10-23h0c-6-6-14-10-23-10s-17 4-23 10h0c-6 6-10 14-10 23 0 4 1 9 3 13h0c1 3 3 6 6 9l1 1c3 3 6 6 10 7 4 2 9 3 13 3h0 3 0c11 0 22 3 31 7h0c11 4 21 11 29 19h0c8 8 15 18 20 29h0c4 11 6 22 6 34 0 25-10 47-26 63h0c-16 17-38 27-63 27s-47-10-63-27h0 0c-16-16-27-38-27-63v-3h4 50 3v3c0 9 4 17 10 23s14 10 23 10 17-4 23-10 10-14 10-23c0-4-1-8-3-12h0c-1-4-4-8-7-11h0c-3-3-6-5-11-7-3-2-8-3-12-3-12 0-24-2-34-6h0c-11-5-21-12-29-20h0zm-14-31h0c4 10 10 19 18 27s17 14 27 18h0c10 4 21 6 32 6 5 0 10 1 15 3s9 5 12 9h0c4 3 7 8 9 12h0c2 5 3 10 3 15 0 11-5 21-12 28s-16 11-27 11-20-4-27-11-11-15-12-25h-44c0 22 10 42 24 56h0c15 15 36 25 59 25s44-10 59-25h0c15-15 24-36 24-59 0-11-2-22-6-32h0c-4-10-10-19-18-27h0c-8-7-17-14-27-18h0c-10-4-21-6-32-6h-3 0l-12-3c-4-2-8-4-12-8h0l-1-1c-3-3-6-7-8-12h0c-2-5-3-10-3-15 0-11 4-20 12-27h0c7-7 16-12 27-12s20 5 27 12h0c7 6 11 14 12 24h44c0-22-10-42-24-56-15-15-36-24-59-24s-44 9-59 24-24 36-24 59c0 11 2 22 6 32z"/></svg>