<svg xmlns="http://www.w3.org/2000/svg" width="325" height="376" shape-rendering="geometricPrecision" image-rendering="optimizeQuality" fill-rule="evenodd" viewBox="0 0 2137002 2471764" xmlns:v="https://vecta.io/nano"><style><![CDATA[.B{fill:#3f3d56}.C{fill:#e6e6e6}.D{fill:#ff6584}.E{fill:#2f2e41}.F{fill:#ffb6b6}]]></style><path fill="#f2f2f2" d="M1011447 2318817l-2757-62013c-288-156-575-303-862-451-29551-15509-63427 12558-53983 44571 8884 30117 14849 62587 31104 88954 19446 31010 51994 51513 88348 55676l37549 22988c-10484-12558-22553-23788-35841-33317-51544-139854-63558-116408-63558-116408z"/><path d="M675287 1689491c-72288-74548-177039-117301-287404-117301l-4256 8h-155c-72599 0-144040-19346-206721-55863l-6531-3813 5257-5421c-37611-4489-71138-25962-90926-58238C45976 1386275 0 1297476 0 1229825c53890-48578 84683-117798 84683-190373v-754l-24-5125v-94c0-47342 5817-94685 17249-140607l1165-4644 4776 171c-28308-3440-56103-10865-82422-21924l-5149-2081 1747-5266C341480 404852 613072 443427 770710 82757c127832-292452 578838 259616 578838 578721 0 32564-32222 75589-8100 97109 260774 232652 80846 382043 24114 532365-13459 35671 15727 74820 15727 113410l-497 20084-505 10430-8690-5786c13684 31538 20790 65616 20790 100028 0 40625-9871 80676-28743 116649-27329 51583-53765 88503-78578 109744-74284 63551-168962 98561-266785 98561-111406 0-218153-45378-295442-125580l-47552-39001z" class="C"/><path d="M1111879 2465482c3674-8 6788-2711 7301-6353 318-2198 31049-223876 3448-518495-25497-272089-107360-663987-352617-985849-1390-1833-3572-2913-5879-2913-4077 0-7386 3301-7386 7386 0 1615 536 3192 1515 4481 243136 319082 324340 708107 349658 978277 27445 292903-3053 512849-3363 515039-47 334-78 684-78 1033 0 4077 3316 7394 7394 7394h7zM911737 1408789h7c4078 0 7386-3308 7386-7393 0-2361-1134-4583-3044-5973-886-644-90609-65290-224739-114404-123987-45393-312535-86546-506643-24766-3076 971-5157 3821-5157 7036 0 4077 3300 7386 7378 7386 769 0 1530-117 2252-350 190132-60506 375263-20036 497091 24565 132220 48407 220257 111849 221135 112486 1258 916 2780 1413 4334 1413h0zm338055-841957l15-536c0-4085-3301-7394-7386-7394-2174 0-4240 963-5646 2625-706 847-71651 85677-130293 215916-54201 120408-108828 305499-61190 503553 800 3316 3774 5654 7184 5654 4077 0 7385-3309 7385-7386 0-582-70-1157-202-1724-46659-194000 7037-375729 60297-494031 57804-128383 127420-211629 128111-212460 1010-1181 1608-2664 1725-4217h0z" class="B"/><path d="M1239796 947686c6229 50279 41068 91735 91735 91735 50651 0 91734-41084 91734-91735 0-50666-41285-87051-91734-91734-53525-4970-99734 27182-91735 91734z" class="E"/><path d="M1374020 2425074h34932l16620-134751-51560 7z" class="F"/><path d="M1372793 2461513h107422v-1359c0-23097-18725-41813-41814-41813h0l-19625-14888-36610 14888h-9381l8 43172z" class="E"/><path d="M1236418 2425074h34932l16620-134751-51560 7z" class="F"/><path d="M1235191 2461513h107422v-1359c0-23097-18724-41813-41813-41813h0l-19625-14888-36610 14888h-9382l8 43172zm259042-880369l24696 84683-29092 358628s14981 22421 4396 22421c-10586 0-24161 4970-15610 18367 8550 13389-20674 61461-20674 61461l-41339 255361-52671-785s-26785-14911-11750-30000c15027-15082 25613-15082 11494-29201-14111-14111-14111-9863-14111-20806s-14135-144715 19392-196027l-10104-209206-23796 205207-48997 273758-50744-419s-23438-22592-23392-39313c39-16720 14476-18110 3728-27997-10748-9894-10748-161832 21008-246281 0 0 17963-47188-39-63357s-24-34676-24-34676 28518-10306-23-40004-155-239743-155-239743-31197-84783 396-118123c31601-33341 257411 16052 257411 16052z" class="E"/><path d="M1054347 1727040l44066-106490 34715 19283-20961 108331c1118 3650 1685 7456 1685 11284 0 21303-17280 38583-38583 38583-21302 0-38574-17280-38574-38583 0-13101 6648-25310 17652-32416v8zm739436-842097l-67046 93738-29449-26653 44966-100759-85-2633c0-21303 17272-38582 38574-38582 21303 0 38583 17279 38583 38582 0 16278-10228 30809-25543 36307h0z" class="F"/><path fill="#0060fa" d="M1500888 1589827c43491 67457-175112 153056-258995 118691-14686-6019-65205-25893-30676-53455 34536-27555-4000-31430-4908-49370-614-11999 8674-38303-1018-37177-9684 1127-21023-15454 78-22591 21093-7138 225-13646 404-20426 2019-73934 58751-191537 58751-191537l-102219 261293s754 45200-12278 31391c-13040-13816-12092 30894-12092 30894s-19377 13529-8232 21055c11144 7525-11999 30676-11999 30676l-54006-3860s839-40120 10065-48989c9218-8877 4691-22833 4691-22833s24005-21256 7913-38512c-20704-22188 54775-397032 80815-393319 7510-36525 34902-65788 70859-75690l58324-16060 10361-41091h82127l14305 27003 62448 28176c11759-16597 20550-34086 68716-39748 0 0 129773-118085 123436-127303-6330-9219 13785-30809 13785-30809s17179-5623 7486-8620c-9692-3006 8629-9949 8629-9949s16977-4458 8970-10329c-8000-5871 26715-9731 26715-9731l45044 36757-9102 15432s5545 21023-1693 13350c-7246-7673-8612 14600-8612 14600s-3697 24386-25637 31733c-21939 7347-38574 77150-38574 77150-51747 67278-112804 119754-185170 154306 28207 32370 1289 358892 1289 358892z"/><circle cx="1341671" cy="963519" r="81346" class="F"/><path d="M1257433 972383c2579 17676 17645 42341 14119 42341-3533 0-28618-72870-3533-77623 18196-3448 22265-427 39273-7797l-2399 2260c11253 8177 26917 3137 39763-2190 12876-5297 28509-10337 39801-2191 7091 5118 10089 14011 14500 21559 4411 7588 12558 14748 20953 12419 6741-1864 10624-9421 10585-16403-31-6989-9133-13629-6065-19904 9079-18569 916-31236-18880-39973l-21590-3355c-2197-5630-6003-10508-10942-14002-5747-3425-12877-3177-19548-2827l-44624 2330c-11013 566-22406 1234-32253 6282-12279 6314-20324 18631-26180 31151l7020 67923z" class="E"/><path fill="#cacaca" d="M919037 2470677l800035 1087c2322 0 4202-1879 4202-4201s-1880-4202-4202-4202l-800035-1087c-2315 0-4202 1887-4202 4202 0 2322 1887 4201 4202 4201h0z"/><ellipse transform="matrix(.02 -.17 .17 .02 603301 2100640)" rx="108012" ry="155270" class="C"/><ellipse transform="matrix(.02 -.17 .17 .02 776791 2083710)" rx="108012" ry="155270" class="B"/><ellipse transform="matrix(.02 -.17 .17 .02 555794 1960190)" rx="108012" ry="155270" class="D"/><ellipse transform="matrix(0 -.17 .17 0 495071 1906400)" rx="98134" ry="68265" class="C"/><ellipse transform="matrix(0 -.17 .17 0 469507 1799250)" rx="98134" ry="68265" class="B"/><ellipse transform="matrix(0 -.17 .17 0 668307 1987840)" rx="98134" ry="68265" class="C"/><ellipse transform="matrix(0 -.17 .17 0 584468 2029700)" rx="98134" ry="68265" class="D"/><ellipse transform="matrix(0 -.17 .17 0 701175 2107060)" rx="98134" ry="68265" class="B"/><ellipse transform="matrix(.02 -.17 .17 .02 1936990 1557290)" rx="108012" ry="155270" class="C"/><ellipse transform="matrix(.02 -.17 .17 .02 2110480 1540360)" rx="108012" ry="155270" class="B"/><ellipse transform="matrix(.02 -.17 .17 .02 1889480 1416830)" rx="108012" ry="155270" class="D"/><ellipse transform="matrix(0 -.17 .17 0 1828760 1363050)" rx="98134" ry="68265" class="C"/><ellipse transform="matrix(0 -.17 .17 0 1803190 1255890)" rx="98134" ry="68265" class="B"/><ellipse transform="matrix(0 -.17 .17 0 2001990 1444490)" rx="98134" ry="68265" class="C"/><ellipse transform="matrix(0 -.17 .17 0 1918160 1486340)" rx="98134" ry="68265" class="D"/><ellipse transform="matrix(0 -.17 .17 0 2034860 1563710)" rx="98134" ry="68265" class="B"/><ellipse fill="#fff" transform="matrix(.02 -.17 .17 .02 1291310 551732)" rx="108012" ry="155270"/><ellipse transform="matrix(.02 -.17 .17 .02 1464810 534803)" rx="108012" ry="155270" class="B"/><ellipse transform="matrix(.02 -.17 .17 .02 1243810 411279)" rx="108012" ry="155270" class="D"/><ellipse transform="matrix(0 -.17 .17 0 1183080 357497)" rx="98134" ry="68265" class="C"/><ellipse transform="matrix(0 -.17 .17 0 1157520 250338)" rx="98134" ry="68265" class="B"/><ellipse transform="matrix(0 -.17 .17 0 1356320 438931)" rx="98134" ry="68265" class="C"/><ellipse transform="matrix(0 -.17 .17 0 1272480 480789)" rx="98134" ry="68265" class="D"/><ellipse transform="matrix(0 -.17 .17 0 1389190 558156)" rx="98134" ry="68265" class="B"/></svg>