<svg xmlns="http://www.w3.org/2000/svg" width="111" height="111" shape-rendering="geometricPrecision" image-rendering="optimizeQuality" fill-rule="evenodd" viewBox="0 0 1183 1183" xmlns:v="https://vecta.io/nano"><path fill-rule="nonzero" d="M394 100v13c0 55-45 100-100 100h-43c-21 0-38 17-38 38v682c0 20 17 37 38 37h682c20 0 37-17 37-37v-43c0-55 45-101 101-101h12c55 0 100 46 100 101v206c0 48-39 87-87 87H88c-49 0-88-39-88-87V88C0 39 39 0 88 0h206c55 0 100 45 100 100zM632 0h464c48 0 87 39 87 88v464c0 55-45 100-100 100h-12c-56 0-101-45-101-100V394c0-5-3-9-8-11-4-2-10-1-13 3L599 735c-39 39-102 39-142 0l-8-9c-40-39-40-103 0-142l349-349c4-4 5-9 3-14s-7-8-12-8H632c-56 0-101-45-101-100v-13C531 45 576 0 632 0z"/></svg>