<svg xmlns="http://www.w3.org/2000/svg" width="111" height="111" shape-rendering="geometricPrecision" image-rendering="optimizeQuality" fill-rule="evenodd" viewBox="0 0 1183 1183" xmlns:v="https://vecta.io/nano"><path fill-rule="nonzero" d="M582 226c-99 0-187 40-252 104-64 65-104 153-104 252 0 98 40 186 104 251 65 64 153 104 252 104 98 0 186-40 251-104 64-65 104-153 104-251 0-99-40-187-104-252-65-64-153-104-251-104zm505 701l69 69c37 37 37 96 0 132l-28 28c-36 37-95 37-132 0l-69-69c-13-13-32-15-48-6-87 52-189 82-297 82-161 0-306-65-412-170C65 887 0 742 0 582c0-161 65-306 170-412C276 65 421 0 582 0c160 0 305 65 411 170 105 106 170 251 170 412 0 108-30 210-82 297-9 16-7 35 6 48z"/></svg>