<svg xmlns="http://www.w3.org/2000/svg" width="111" height="94" shape-rendering="geometricPrecision" image-rendering="optimizeQuality" fill-rule="evenodd" viewBox="0 0 742 625" xmlns:v="https://vecta.io/nano"><path d="M724 205H17c-10 0-17 7-17 17v377c0 14 12 26 25 26h691c14 0 26-12 26-26V222c0-10-8-17-18-17zM155 521c-20 0-37-17-37-38 0-22 17-39 37-39 22 0 39 17 39 39 0 21-17 38-39 38zm0-137c-20 0-37-16-37-38 0-21 17-38 37-38 22 0 39 17 39 38 0 22-17 38-39 38zm144 137c-21 0-38-17-38-38 0-22 17-39 38-39 22 0 39 17 39 39 0 21-17 38-39 38zm0-137c-21 0-38-16-38-38 0-21 17-38 38-38 22 0 39 17 39 38 0 22-17 38-39 38zm143 137c-21 0-38-17-38-38 0-22 17-39 38-39 22 0 38 17 38 39 0 21-16 38-38 38zm0-137c-21 0-38-16-38-38 0-21 17-38 38-38 22 0 38 17 38 38 0 22-16 38-38 38zm144 137c-21 0-38-17-38-38 0-22 17-39 38-39s38 17 38 39c0 21-17 38-38 38zm0-137c-21 0-38-16-38-38 0-21 17-38 38-38s38 17 38 38c0 22-17 38-38 38zM716 42H612V26c0-14-12-26-26-26-15 0-26 12-26 26v16h-92V26c0-14-12-26-26-26s-26 12-26 26v16h-90V26c0-14-12-26-27-26-14 0-25 12-25 26v16h-92V26c0-14-12-26-27-26-14 0-25 12-25 26v16H25C12 42 0 53 0 67v94c0 10 7 17 17 17h707c10 0 18-7 18-17V67c0-14-12-25-26-25z"/></svg>