<svg xmlns="http://www.w3.org/2000/svg" width="111" height="111" shape-rendering="geometricPrecision" image-rendering="optimizeQuality" fill-rule="evenodd" viewBox="0 0 742 742" xmlns:v="https://vecta.io/nano"><path d="M0 327v313c0 61 42 102 105 102h532c64 0 105-41 105-105V448c0-51-26-83-64-98-23-9-123-5-156-5-25 0-57 4-72-8-34-29-56-113-129-113H95c-15 0-29 4-39 9-15 7-18 11-29 21-17 17-27 40-27 73zm150 235h134c16 0 30 14 30 30v2c0 16-14 30-30 30H150c-16 0-30-14-30-30v-2c0-16 14-30 30-30zm0-104h134c16 0 30 13 30 29v2c0 16-14 30-30 30H150c-16 0-30-14-30-30v-2c0-16 14-29 30-29zM276 60v11h155c14 0 30 6 40 11 36 16 63 56 63 97v132h114c11 0 14 2 24 2V60c0-34-28-60-67-60H343c-20 0-36 6-47 16-10 8-20 26-20 44zM69 193c11 0 19-3 33-3h211c52 0 88 22 115 62l30 41c3 4 4 7 7 11 8 10 13 7 35 7V176c0-21-14-43-26-53-15-12-33-20-60-20H137c-25 0-44 10-55 24-15 21-13 32-13 66z"/></svg>