<svg xmlns="http://www.w3.org/2000/svg" width="111" height="100" shape-rendering="geometricPrecision" image-rendering="optimizeQuality" fill-rule="evenodd" viewBox="0 0 540 486" xmlns:v="https://vecta.io/nano"><path d="M311 263v40c100 10 160 44 160 71 0 30-82 73-215 73-134 0-216-43-216-73 0-27 60-61 161-71v-40C96 272 0 311 0 374c0 73 132 112 256 112 123 0 254-39 254-112 0-63-94-101-199-111zM531 17c-3-2-6-3-9-3s-6 1-9 2l-33 16c-15 8-32 11-49 11s-35-4-51-12-33-12-51-12-36 4-53 13V20c0-11-8-20-20-20-11 0-19 9-19 20v358c0 12 8 21 19 21 12 0 20-9 20-21V196c17-9 35-13 53-13s35 3 51 12c16 8 34 12 51 12s34-3 49-11l49-24c7-3 11-10 11-17V33c0-7-3-13-9-16z"/></svg>