<svg xmlns="http://www.w3.org/2000/svg" width="111" height="82" shape-rendering="geometricPrecision" image-rendering="optimizeQuality" fill-rule="evenodd" viewBox="0 0 540 399" xmlns:v="https://vecta.io/nano"><path fill-rule="nonzero" d="M431 253c43 27 79 63 105 106 5 9 5 18 1 27-5 8-14 13-24 13h-3c-9 0-17-4-22-12-23-37-54-68-92-90-4-2-9-1-13 2-30 26-70 42-113 42s-83-16-113-42c-4-3-9-4-13-2-38 22-69 53-92 90-5 8-13 12-22 12h-3c-10 0-19-5-23-13-5-9-5-18 0-27 26-43 62-79 105-106 5-3 7-9 5-14-10-21-15-44-15-68 0-47 19-90 50-121S223 0 270 0s90 19 121 50 50 74 50 121c0 24-5 47-14 68-3 5-1 11 4 14zM351 89c-20-20-49-33-81-33s-60 13-81 33c-21 21-34 50-34 82s13 60 34 81 49 34 81 34 61-13 81-34c21-21 34-49 34-81s-13-61-34-82z"/></svg>