<svg xmlns="http://www.w3.org/2000/svg" width="111" height="105" shape-rendering="geometricPrecision" image-rendering="optimizeQuality" fill-rule="evenodd" viewBox="0 0 742 699" xmlns:v="https://vecta.io/nano"><path d="M106 599h83c-21 207 149 35 236 0h130c59 0 106-48 106-106V247c-13 5-28 13-34 28 0 0-9 16-24 16s-24-16-24-16c-11-27-53-33-53-33h-48c-31 0-57-26-57-57V76H106C48 76 0 123 0 181v312c0 58 48 106 106 106zm26-294h291c15 0 27 12 27 27h0c0 15-12 27-27 27H132c-14 0-26-12-26-27h0c0-15 12-27 26-27zm0 93h291c15 0 27 12 27 27h0c0 14-12 27-27 27H132c-14 0-26-13-26-27h0c0-15 12-27 26-27zm376-184h36s32 5 41 26c0 0 7 12 18 12 12 0 18-12 18-12 9-21 41-26 41-26h36c24 0 44-19 44-43V43c0-24-20-43-44-43H508c-24 0-44 19-44 43v128c0 24 20 43 44 43zm95-132c9 0 16 8 16 17s-7 16-16 16-16-7-16-16 7-17 16-17zm-47 0c9 0 16 8 16 17s-7 16-16 16-17-7-17-16 8-17 17-17zm94 0c9 0 17 8 17 17s-8 16-17 16-16-7-16-16 7-17 16-17z"/></svg>