<svg xmlns="http://www.w3.org/2000/svg" width="111" height="137" shape-rendering="geometricPrecision" image-rendering="optimizeQuality" fill-rule="evenodd" viewBox="0 0 540 665" xmlns:v="https://vecta.io/nano"><path d="M353 545c0-33-12-62-36-86s-53-36-86-36-61 11-85 35-35 52-35 87c0 33 11 62 35 85 23 23 51 35 85 35s62-12 86-36c24-23 36-51 36-84zm79-84c28-23 49-44 63-63 30-41 45-90 45-146 0-76-26-137-78-183C411 23 343 0 258 0 184 0 122 19 74 56 24 94 0 140 0 196c0 33 9 60 27 80s42 30 73 30 56-9 75-27 29-42 29-70c0-20-4-37-13-52-8-15-19-26-34-34l-22-9c-14-4-20-9-20-14 0-14 12-27 38-40 25-13 55-20 90-20 44 0 80 10 108 30 28 21 42 47 42 78 0 36-31 84-94 143-15 14-28 25-38 36-12 11-16 28-11 44 6 16 19 27 36 29 26 3 49 15 69 35 6 6 10 11 15 17 7 10 17 16 29 18s23-2 33-9z"/></svg>