<svg xmlns="http://www.w3.org/2000/svg" width="105" height="111" shape-rendering="geometricPrecision" image-rendering="optimizeQuality" fill-rule="evenodd" viewBox="0 0 1330 1412" xmlns:v="https://vecta.io/nano"><path d="M461 1259l12 72c7 47 46 81 93 81h198c47 0 86-34 93-81l12-72c6-39 27-70 60-89 33-20 70-23 106-9l67 26c44 17 93 0 116-41l99-174c24-41 14-93-22-123l-56-46c-30-24-46-58-46-97s16-73 46-98l56-46c36-30 46-81 22-122l-99-174c-23-41-72-59-116-42l-67 26c-36 14-73 12-106-8s-54-50-60-89l-12-72c-7-47-46-81-93-81H566c-47 0-86 34-93 81l-12 72c-6 39-27 69-60 89-34 20-70 22-106 8l-67-26c-44-17-93 1-116 42L13 440c-24 41-14 92 22 122l56 46c30 25 46 59 46 98s-16 73-46 97l-56 46c-36 30-46 82-22 123l99 174c23 41 72 58 116 41l67-26c36-14 72-11 106 9 33 19 54 50 60 89zm204-826c148 0 269 122 269 273S813 979 665 979c-149 0-269-122-269-273s120-273 269-273z"/></svg>