<svg xmlns="http://www.w3.org/2000/svg" width="111" height="54" shape-rendering="geometricPrecision" image-rendering="optimizeQuality" fill-rule="evenodd" viewBox="0 0 11834 5801" xmlns:v="https://vecta.io/nano"><path d="M5936 615L4182 4388c-213 457-13 1004 444 1216l56 26c457 213 1004 14 1216-444l412-886 931-2001 412-886c212-458 13-1004-445-1217l-56-26c-457-212-1003-13-1216 445zm-2277 449V801c0-330-188-612-493-738-304-126-636-60-870 173L233 2300c-311 310-311 818 0 1128l2063 2064c234 233 566 299 870 173 305-126 493-408 493-738v-263c0-220-78-409-234-565l-671-671c-310-310-310-818 0-1128l671-671c156-156 234-345 234-565zm4516 73V873c0-329 189-611 493-737 305-126 637-60 870 173l2063 2063c311 311 311 818 0 1129L9538 5564c-233 234-565 300-870 173-304-126-493-407-493-737v-263c0-220 79-409 234-565l671-671c311-311 311-818 0-1129l-671-671c-155-155-234-344-234-564z"/></svg>