<svg xmlns="http://www.w3.org/2000/svg" width="93" height="150" shape-rendering="geometricPrecision" image-rendering="optimizeQuality" fill-rule="evenodd" viewBox="0 0 21423 34630" xmlns:v="https://vecta.io/nano"><path d="M13936 29140H6949c-307 0-538 230-538 537s231 538 538 538h6987c307 0 538-231 538-538s-231-537-538-537zm0 2188H6949c-307 0-538 269-538 576 0 269 231 538 538 538h6987c307 0 538-269 538-538 0-307-231-576-538-576zm-1881 2227H8792c-269 0-538 230-538 537s269 538 538 538h3263c307 0 537-231 537-538s-230-537-537-537zM10711 0C4799 0 0 4799 0 10712c0 2188 653 4261 1881 6027 1152 1574 2687 2841 4530 3609v2726h-575c-269 0-538 268-538 537v3878c0 307 269 537 538 537h9175c307 0 576-230 576-537v-3878c0-269-269-537-576-537h-537v-2688c1996-729 3647-1958 4875-3493 1344-1766 2074-3878 2074-6181C21423 4799 16624 0 10711 0z"/><path d="M11326 3263c0-307-231-576-538-576-2611 0-5106 1459-6488 3763-154 230-77 576 192 729 76 39 192 77 268 77 192 0 384-115 461-269 1190-1957 3340-3186 5567-3186 307 0 538-269 538-538zM4108 8139c-307-77-576 115-653 384-153 576-192 1190-192 1766 0 307 231 538 538 538s537-231 537-538c0-499 38-998 154-1497 76-307-77-576-384-653zm4453 10516v5532h1075v-5532c0-307-230-538-537-538s-538 231-538 538zm2688 0v5532h1075v-5532c0-307-231-538-538-538s-537 231-537 538z" fill="#fff"/></svg>