<svg xmlns="http://www.w3.org/2000/svg" width="93" height="150" shape-rendering="geometricPrecision" image-rendering="optimizeQuality" fill-rule="evenodd" viewBox="0 0 8436 13638" xmlns:v="https://vecta.io/nano"><path d="M5488 11476H2737c-121 0-212 90-212 211s91 212 212 212h2751c121 0 212-91 212-212s-91-211-212-211zm0 861H2737c-121 0-212 106-212 227 0 106 91 212 212 212h2751c121 0 212-106 212-212 0-121-91-227-212-227zm-741 877H3462c-106 0-211 91-211 212s105 212 211 212h1285c121 0 212-91 212-212s-91-212-212-212zM4218 0C1890 0 0 1890 0 4218c0 862 257 1678 741 2374 453 620 1058 1119 1784 1421v1074h-227c-106 0-212 105-212 211v1527c0 121 106 212 212 212h3614c121 0 226-91 226-212V9298c0-106-105-211-226-211h-212V8028c786-287 1436-771 1920-1376 529-695 816-1527 816-2434C8436 1890 6547 0 4218 0zm1482 10614H2525V9525h3175v1089zm1587-4219c-468 575-1103 1029-1859 1286-91 30-151 105-151 196h0v1210h-424V5337c0-121-90-212-212-212-120 0-211 91-211 212v3750h-635V5337c0-121-91-212-212-212s-212 91-212 212v3750h-423V7877h0c0-91-60-166-136-196-695-288-1300-741-1723-1331-424-620-666-1361-666-2132 0-2086 1709-3795 3795-3795 2087 0 3795 1709 3795 3795 0 802-257 1558-726 2177zM4460 1285c0-121-91-227-212-227-1028 0-2010 575-2555 1482-60 91-30 227 76 287 30 15 76 31 106 31 75 0 151-46 181-106 469-771 1315-1255 2192-1255 121 0 212-106 212-212zM1618 3205c-121-30-227 46-257 151-61 227-76 469-76 696 0 121 91 212 212 212s211-91 211-212c0-197 15-393 61-590 30-121-30-226-151-257zm3417 907c-31-30-91-60-152-60-60 0-105 30-151 60l-242 242-242-242c-30-30-75-60-136-60-45 0-105 30-151 60l-227 242-241-242c-46-30-106-60-152-60-60 0-121 30-151 60l-393 394c-91 90-91 226 0 302 76 91 212 91 302 0l242-242 242 242c30 45 91 60 151 60 46 0 106-15 152-60l226-242 227 242c46 45 106 60 151 60 61 0 121-15 151-60l242-242 242 242c46 45 91 60 152 60 60 0 105-15 151-60 90-76 90-212 0-302l-393-394z"/></svg>